{"glyphs":{"0":{"ha":972,"x_min":82,"x_max":889,"o":"m 440 -15 q 256 27 336 -15 q 128 159 175 69 q 82 389 82 249 q 115 591 82 501 q 195 744 147 681 q 292 840 243 807 q 376 874 342 874 q 428 861 413 874 q 444 815 444 849 q 433 768 444 790 q 403 729 422 746 q 326 638 357 690 q 280 524 296 586 q 264 389 264 461 q 283 274 264 325 q 342 193 301 222 q 443 164 382 164 q 572 212 511 164 q 670 352 632 260 q 708 579 708 444 q 693 696 708 644 q 644 778 678 747 q 556 808 610 808 q 464 793 504 808 q 392 750 424 778 q 331 688 360 722 q 297 663 315 674 q 257 651 279 651 q 194 680 221 651 q 167 750 167 708 q 194 822 167 781 q 272 900 221 863 q 395 963 324 938 q 556 988 467 988 q 744 938 671 988 q 853 797 818 889 q 889 579 889 706 q 851 317 889 429 q 748 132 813 206 q 603 22 683 58 q 440 -15 522 -15 z "},"1":{"ha":614,"x_min":65,"x_max":528,"o":"m 453 83 q 433 9 453 33 q 375 -15 414 -15 q 299 13 326 -15 q 272 96 272 42 q 279 335 272 213 q 299 580 286 458 q 329 810 311 701 l 369 776 q 297 728 332 747 q 231 701 261 710 q 172 693 200 693 q 92 723 119 693 q 65 790 65 753 q 83 838 65 818 q 140 861 101 857 q 238 894 193 869 q 326 956 282 919 q 367 981 346 972 q 414 989 388 989 q 477 970 450 989 q 516 920 504 951 q 519 851 528 889 q 489 680 501 776 q 469 479 476 583 q 457 273 461 375 q 453 83 453 171 z "},"2":{"ha":972,"x_min":104,"x_max":911,"o":"m 240 -28 q 138 7 172 -28 q 104 93 104 42 q 121 155 104 126 q 175 207 138 183 q 389 356 300 288 q 533 484 478 424 q 615 599 589 544 q 640 704 640 653 q 613 781 640 753 q 525 808 585 808 q 410 790 460 808 q 322 748 360 772 q 254 706 283 724 q 203 688 225 688 q 141 715 167 688 q 115 778 115 742 q 126 821 115 803 q 164 858 138 839 q 341 955 250 919 q 525 990 432 990 q 698 953 632 990 q 793 853 764 917 q 822 704 822 789 q 802 585 822 647 q 729 451 782 522 q 580 299 676 381 q 331 122 483 217 l 289 174 q 336 163 313 165 q 383 160 360 160 q 486 165 428 160 q 613 176 544 171 q 758 182 682 182 q 878 151 846 182 q 911 76 911 119 q 887 22 911 44 q 815 0 863 0 q 615 -4 703 0 q 458 -14 526 -8 q 336 -24 389 -19 q 240 -28 283 -28 z "},"3":{"ha":972,"x_min":94,"x_max":894,"o":"m 390 -17 q 222 6 285 -17 q 132 66 160 29 q 104 146 104 103 q 120 207 104 182 q 171 232 136 232 q 204 222 190 232 q 235 198 218 211 q 281 175 253 185 q 361 165 310 165 q 542 183 463 165 q 667 234 621 200 q 713 315 713 268 q 682 374 713 353 q 585 405 651 396 q 411 414 518 414 q 340 446 364 414 q 315 518 315 478 q 328 557 315 540 q 367 579 340 574 q 504 619 446 597 q 594 674 563 642 q 626 747 626 706 q 614 790 626 775 q 579 810 601 804 q 526 815 557 815 q 383 800 439 815 q 292 765 328 785 q 230 729 256 744 q 178 714 204 714 q 140 725 160 714 q 108 755 121 736 q 94 797 94 774 q 128 858 94 825 q 220 920 161 890 q 356 969 279 950 q 517 989 432 989 q 684 960 618 989 q 783 878 750 931 q 815 756 815 826 q 802 679 815 718 q 757 606 789 640 q 669 544 725 571 q 529 504 614 518 l 525 546 q 701 528 629 546 q 815 479 772 511 q 876 403 857 447 q 894 306 894 360 q 857 166 894 226 q 751 65 819 106 q 592 4 683 25 q 390 -17 500 -17 z "},"4":{"ha":972,"x_min":58,"x_max":943,"o":"m 626 -15 q 546 40 571 -15 q 521 218 521 96 q 537 412 521 317 q 569 597 553 507 q 585 768 585 686 q 581 824 585 799 q 565 876 576 849 l 625 826 q 458 705 535 779 q 323 539 381 631 q 226 343 265 447 l 169 422 q 219 404 204 408 q 258 400 235 400 q 389 410 325 400 q 519 433 453 419 q 662 457 586 447 q 828 467 738 467 q 888 451 863 467 q 928 410 914 436 q 943 354 943 385 q 925 303 943 324 q 864 283 907 283 q 674 273 760 283 q 512 250 588 263 q 361 227 436 238 q 203 217 286 217 q 127 235 160 217 q 76 283 94 254 q 58 344 58 313 q 70 432 58 386 q 121 547 82 478 q 242 730 174 647 q 382 871 310 813 q 519 961 454 929 q 628 993 583 993 q 710 966 678 993 q 756 892 742 939 q 771 788 771 846 q 761 640 771 710 q 738 501 751 569 q 715 360 725 432 q 704 206 704 289 q 711 122 704 151 q 718 63 718 93 q 693 6 718 26 q 626 -15 668 -15 z "},"5":{"ha":863,"x_min":61,"x_max":794,"o":"m 288 -17 q 160 3 211 -17 q 85 60 110 24 q 61 142 61 96 q 80 200 61 176 q 135 224 99 224 q 165 215 153 224 q 188 193 176 206 q 219 171 200 181 q 272 161 238 161 q 392 173 333 161 q 499 208 451 185 q 575 263 547 231 q 603 338 603 294 q 585 387 603 367 q 526 422 567 407 q 422 449 486 436 q 240 490 308 469 q 138 537 172 511 q 92 597 104 563 q 81 682 81 632 q 90 776 81 724 q 121 896 100 829 q 153 954 133 936 q 207 972 172 972 q 338 976 282 972 q 439 983 393 979 q 531 991 485 988 q 632 994 576 994 q 744 959 708 994 q 778 879 781 924 q 758 831 778 849 q 703 814 738 814 q 578 810 633 814 q 471 803 524 807 q 357 797 418 800 q 215 796 296 794 l 310 851 q 274 760 283 797 q 265 694 265 722 q 270 670 265 681 q 292 650 275 660 q 349 631 310 640 q 456 608 388 622 q 625 565 558 590 q 728 508 692 540 q 780 434 765 475 q 794 340 794 393 q 731 158 794 239 q 554 30 668 76 q 288 -17 440 -17 z "},"6":{"ha":972,"x_min":68,"x_max":904,"o":"m 493 -14 q 303 10 383 -14 q 170 80 222 35 q 93 189 118 125 q 68 332 68 253 q 117 536 68 432 q 260 742 167 640 q 488 940 354 843 q 549 978 528 969 q 593 986 569 986 q 640 974 619 986 q 672 940 660 961 q 685 896 685 919 q 674 853 685 871 q 626 810 663 835 q 433 653 517 731 q 303 496 350 575 q 256 336 256 417 q 286 233 256 271 q 371 180 317 196 q 496 164 425 164 q 610 179 560 164 q 691 226 661 194 q 721 301 721 257 q 703 356 721 329 q 648 399 686 382 q 543 415 610 415 q 449 410 486 415 q 388 397 413 404 q 343 384 363 389 q 300 379 324 379 q 254 394 267 379 q 242 432 242 408 q 282 492 242 458 q 399 551 322 526 q 582 575 476 575 q 756 538 685 575 q 866 435 828 500 q 904 290 904 371 q 856 137 904 206 q 715 27 807 68 q 493 -14 622 -14 z "},"7":{"ha":972,"x_min":69,"x_max":919,"o":"m 507 -12 q 451 -1 476 -12 q 411 35 426 11 q 396 96 396 60 q 422 243 396 168 q 487 390 449 318 q 563 526 525 461 q 628 645 601 592 q 654 733 654 699 q 628 794 654 775 q 532 813 603 813 q 392 801 451 813 q 290 774 333 789 q 217 746 247 758 q 163 733 186 733 q 118 749 139 733 q 83 787 97 764 q 69 835 69 810 q 80 872 69 854 q 110 897 90 889 q 246 943 174 924 q 390 974 318 963 q 522 986 461 986 q 707 956 638 986 q 808 874 776 926 q 839 751 839 821 q 813 624 839 688 q 747 494 786 560 q 669 363 708 429 q 604 227 631 296 q 578 86 578 158 q 562 8 578 28 q 507 -12 546 -12 m 319 324 q 236 356 269 324 q 203 428 203 389 q 219 479 203 461 q 267 497 236 497 q 417 507 343 497 q 578 526 492 517 q 778 536 665 536 q 882 503 844 536 q 919 424 919 471 q 900 379 919 396 q 843 363 881 363 q 655 357 733 363 q 519 343 576 351 q 415 329 463 335 q 319 324 368 324 z "},"8":{"ha":972,"x_min":79,"x_max":882,"o":"m 429 -17 q 238 17 310 -17 q 133 102 165 50 q 103 213 101 154 q 115 288 103 251 q 160 364 126 324 q 262 453 194 404 q 440 568 329 503 q 585 660 532 619 q 665 739 638 701 q 704 821 692 776 q 731 876 715 857 q 776 896 746 896 q 844 867 819 896 q 869 796 869 839 q 843 694 869 747 q 756 583 817 640 q 590 465 694 526 q 428 366 489 407 q 336 295 367 325 q 296 242 306 265 q 286 196 286 219 q 293 141 286 171 q 324 71 300 111 l 215 206 q 317 167 268 175 q 426 160 365 160 q 558 173 497 160 q 655 217 618 186 q 692 294 692 247 q 676 343 692 319 q 610 391 660 367 q 463 443 561 415 q 264 515 340 481 q 147 583 188 549 q 93 656 107 618 q 79 742 79 694 q 181 922 82 857 q 496 988 279 988 q 591 974 557 988 q 639 938 625 961 q 653 885 653 915 q 630 830 653 849 q 563 813 607 811 q 385 807 451 815 q 290 781 318 799 q 261 738 261 764 q 278 701 261 718 q 330 667 294 685 q 420 627 365 649 q 551 579 475 606 q 727 508 661 542 q 826 442 793 475 q 871 372 860 408 q 882 290 882 335 q 837 141 882 211 q 692 27 792 71 q 429 -17 592 -17 z "},"9":{"ha":972,"x_min":78,"x_max":869,"o":"m 799 -12 q 718 16 750 -12 q 678 90 686 44 q 665 290 665 172 q 664 556 664 407 l 765 599 q 664 462 722 517 q 534 381 606 407 q 379 354 463 354 q 215 388 282 354 q 113 483 147 422 q 78 622 78 543 q 106 753 78 689 q 188 871 133 818 q 324 955 242 924 q 513 986 406 986 q 665 947 611 986 q 719 842 719 908 q 705 789 719 813 q 661 765 690 765 q 633 772 644 765 q 608 786 622 778 q 571 801 593 794 q 513 807 549 807 q 375 781 431 807 q 292 715 319 756 q 264 628 264 674 q 292 553 264 581 q 382 526 321 526 q 526 556 460 526 q 634 653 593 586 q 675 836 675 721 q 693 898 675 876 q 740 919 711 919 q 822 896 792 919 q 859 822 851 872 q 851 693 867 772 q 849 515 849 590 q 849 392 849 440 q 854 233 849 293 q 865 135 860 172 q 869 68 869 97 q 851 7 869 26 q 799 -12 833 -12 z "}," ":{"ha":476,"x_min":0,"x_max":0,"o":""}," ":{"ha":476,"x_min":0,"x_max":0,"o":""},"A":{"ha":1046,"x_min":44,"x_max":997,"o":"m 896 -14 q 828 9 857 -14 q 768 88 799 32 q 719 210 742 136 q 682 365 697 283 q 658 519 667 447 q 641 665 649 608 q 625 752 633 722 q 606 794 617 782 q 578 807 594 807 q 503 755 543 807 q 424 604 464 703 q 349 368 383 506 q 292 61 314 231 q 272 6 288 24 q 224 -11 256 -11 q 145 26 172 -11 q 118 156 118 64 q 131 318 118 240 q 162 470 144 396 q 193 618 179 544 q 210 768 207 692 q 223 808 210 793 q 264 822 236 822 q 315 809 289 822 q 361 764 340 796 l 290 740 q 423 922 349 857 q 585 988 497 988 q 726 939 676 988 q 803 787 776 890 q 847 518 829 683 q 878 338 858 413 q 918 210 897 263 q 953 120 939 157 q 967 53 967 83 q 949 3 967 21 q 896 -14 932 -14 m 150 242 q 69 263 94 242 q 44 321 44 285 q 60 363 44 346 q 111 392 76 381 q 450 467 258 440 q 875 493 642 493 q 972 472 946 493 q 997 414 997 451 q 960 341 997 369 q 857 313 922 313 q 639 305 733 313 q 472 287 544 297 q 342 266 399 276 q 238 249 285 256 q 150 242 192 242 z "},"À":{"ha":1046,"x_min":44,"x_max":997,"o":"m 896 -14 q 828 9 857 -14 q 768 88 799 32 q 719 210 742 136 q 682 365 697 283 q 658 519 667 447 q 641 665 649 608 q 625 752 633 722 q 606 794 617 782 q 578 807 594 807 q 503 755 543 807 q 424 604 464 703 q 349 368 383 506 q 292 61 314 231 q 272 6 288 24 q 224 -11 256 -11 q 145 26 172 -11 q 118 156 118 64 q 131 318 118 240 q 162 470 144 396 q 193 618 179 544 q 210 768 207 692 q 223 808 210 793 q 264 822 236 822 q 315 809 289 822 q 361 764 340 796 l 290 740 q 423 922 349 857 q 585 988 497 988 q 726 939 676 988 q 803 787 776 890 q 847 518 829 683 q 878 338 858 413 q 918 210 897 263 q 953 120 939 157 q 967 53 967 83 q 949 3 967 21 q 896 -14 932 -14 m 150 242 q 69 263 94 242 q 44 321 44 285 q 60 363 44 346 q 111 392 76 381 q 450 467 258 440 q 875 493 642 493 q 972 472 946 493 q 997 414 997 451 q 960 341 997 369 q 857 313 922 313 q 639 305 733 313 q 472 287 544 297 q 342 266 399 276 q 238 249 285 256 q 150 242 192 242 m 574 1075 q 494 1094 535 1075 q 419 1147 453 1114 q 365 1217 386 1179 q 344 1293 344 1256 q 368 1363 344 1336 q 443 1389 392 1389 q 501 1372 478 1389 q 543 1307 525 1354 q 576 1244 557 1267 q 614 1208 596 1222 q 644 1180 632 1194 q 657 1142 657 1165 q 637 1093 657 1111 q 574 1075 617 1075 z "},"Á":{"ha":1046,"x_min":44,"x_max":997,"o":"m 896 -14 q 828 9 857 -14 q 768 88 799 32 q 719 210 742 136 q 682 365 697 283 q 658 519 667 447 q 641 665 649 608 q 625 752 633 722 q 606 794 617 782 q 578 807 594 807 q 503 755 543 807 q 424 604 464 703 q 349 368 383 506 q 292 61 314 231 q 272 6 288 24 q 224 -11 256 -11 q 145 26 172 -11 q 118 156 118 64 q 131 318 118 240 q 162 470 144 396 q 193 618 179 544 q 210 768 207 692 q 223 808 210 793 q 264 822 236 822 q 315 809 289 822 q 361 764 340 796 l 290 740 q 423 922 349 857 q 585 988 497 988 q 726 939 676 988 q 803 787 776 890 q 847 518 829 683 q 878 338 858 413 q 918 210 897 263 q 953 120 939 157 q 967 53 967 83 q 949 3 967 21 q 896 -14 932 -14 m 150 242 q 69 263 94 242 q 44 321 44 285 q 60 363 44 346 q 111 392 76 381 q 450 467 258 440 q 875 493 642 493 q 972 472 946 493 q 997 414 997 451 q 960 341 997 369 q 857 313 922 313 q 639 305 733 313 q 472 287 544 297 q 342 266 399 276 q 238 249 285 256 q 150 242 192 242 m 557 1068 q 500 1084 519 1068 q 481 1125 481 1100 q 493 1164 481 1147 q 529 1201 506 1181 q 577 1257 563 1231 q 604 1324 592 1283 q 642 1383 619 1368 q 697 1399 665 1399 q 768 1375 744 1399 q 792 1304 792 1351 q 757 1188 792 1242 q 668 1101 722 1135 q 557 1068 614 1068 z "},"Â":{"ha":1046,"x_min":44,"x_max":997,"o":"m 896 -14 q 828 9 857 -14 q 768 88 799 32 q 719 210 742 136 q 682 365 697 283 q 658 519 667 447 q 641 665 649 608 q 625 752 633 722 q 606 794 617 782 q 578 807 594 807 q 503 755 543 807 q 424 604 464 703 q 349 368 383 506 q 292 61 314 231 q 272 6 288 24 q 224 -11 256 -11 q 145 26 172 -11 q 118 156 118 64 q 131 318 118 240 q 162 470 144 396 q 193 618 179 544 q 210 768 207 692 q 223 808 210 793 q 264 822 236 822 q 315 809 289 822 q 361 764 340 796 l 290 740 q 423 922 349 857 q 585 988 497 988 q 726 939 676 988 q 803 787 776 890 q 847 518 829 683 q 878 338 858 413 q 918 210 897 263 q 953 120 939 157 q 967 53 967 83 q 949 3 967 21 q 896 -14 932 -14 m 150 242 q 69 263 94 242 q 44 321 44 285 q 60 363 44 346 q 111 392 76 381 q 450 467 258 440 q 875 493 642 493 q 972 472 946 493 q 997 414 997 451 q 960 341 997 369 q 857 313 922 313 q 639 305 733 313 q 472 287 544 297 q 342 266 399 276 q 238 249 285 256 q 150 242 192 242 m 397 1058 q 353 1070 374 1058 q 319 1100 332 1082 q 306 1136 306 1118 q 313 1162 306 1149 q 344 1200 319 1175 q 425 1271 369 1225 q 491 1323 467 1303 q 538 1351 515 1343 q 592 1360 560 1360 q 651 1344 625 1360 q 703 1292 676 1328 q 762 1224 735 1249 q 810 1185 789 1200 q 843 1156 831 1169 q 856 1118 856 1142 q 833 1077 856 1092 q 768 1063 810 1063 q 702 1076 735 1063 q 631 1124 669 1089 q 540 1225 593 1160 l 611 1225 q 518 1131 554 1165 q 460 1082 482 1097 q 425 1063 439 1067 q 397 1058 411 1058 z "},"Ã":{"ha":1046,"x_min":44,"x_max":997,"o":"m 896 -14 q 828 9 857 -14 q 768 88 799 32 q 719 210 742 136 q 682 365 697 283 q 658 519 667 447 q 641 665 649 608 q 625 752 633 722 q 606 794 617 782 q 578 807 594 807 q 503 755 543 807 q 424 604 464 703 q 349 368 383 506 q 292 61 314 231 q 272 6 288 24 q 224 -11 256 -11 q 145 26 172 -11 q 118 156 118 64 q 131 318 118 240 q 162 470 144 396 q 193 618 179 544 q 210 768 207 692 q 223 808 210 793 q 264 822 236 822 q 315 809 289 822 q 361 764 340 796 l 290 740 q 423 922 349 857 q 585 988 497 988 q 726 939 676 988 q 803 787 776 890 q 847 518 829 683 q 878 338 858 413 q 918 210 897 263 q 953 120 939 157 q 967 53 967 83 q 949 3 967 21 q 896 -14 932 -14 m 150 242 q 69 263 94 242 q 44 321 44 285 q 60 363 44 346 q 111 392 76 381 q 450 467 258 440 q 875 493 642 493 q 972 472 946 493 q 997 414 997 451 q 960 341 997 369 q 857 313 922 313 q 639 305 733 313 q 472 287 544 297 q 342 266 399 276 q 238 249 285 256 q 150 242 192 242 m 374 1085 q 310 1115 333 1085 q 286 1189 286 1146 q 303 1266 286 1229 q 357 1326 319 1303 q 456 1350 394 1350 q 533 1335 501 1350 q 589 1301 565 1319 q 633 1267 613 1282 q 674 1251 653 1251 q 710 1260 697 1251 q 733 1283 724 1269 q 749 1311 742 1297 q 767 1334 756 1325 q 797 1343 778 1343 q 848 1322 829 1343 q 867 1250 867 1300 q 819 1129 867 1176 q 692 1082 772 1082 q 629 1095 656 1082 q 581 1126 603 1108 q 538 1156 558 1143 q 493 1169 518 1169 q 452 1157 465 1169 q 431 1127 439 1144 q 411 1097 424 1110 q 374 1085 399 1085 z "},"Ä":{"ha":1046,"x_min":44,"x_max":997,"o":"m 896 -14 q 828 9 857 -14 q 768 88 799 32 q 719 210 742 136 q 682 365 697 283 q 658 519 667 447 q 641 665 649 608 q 625 752 633 722 q 606 794 617 782 q 578 807 594 807 q 503 755 543 807 q 424 604 464 703 q 349 368 383 506 q 292 61 314 231 q 272 6 288 24 q 224 -11 256 -11 q 145 26 172 -11 q 118 156 118 64 q 131 318 118 240 q 162 470 144 396 q 193 618 179 544 q 210 768 207 692 q 223 808 210 793 q 264 822 236 822 q 315 809 289 822 q 361 764 340 796 l 290 740 q 423 922 349 857 q 585 988 497 988 q 726 939 676 988 q 803 787 776 890 q 847 518 829 683 q 878 338 858 413 q 918 210 897 263 q 953 120 939 157 q 967 53 967 83 q 949 3 967 21 q 896 -14 932 -14 m 150 242 q 69 263 94 242 q 44 321 44 285 q 60 363 44 346 q 111 392 76 381 q 450 467 258 440 q 875 493 642 493 q 972 472 946 493 q 997 414 997 451 q 960 341 997 369 q 857 313 922 313 q 639 305 733 313 q 472 287 544 297 q 342 266 399 276 q 238 249 285 256 q 150 242 192 242 m 754 1069 q 664 1109 701 1069 q 626 1207 626 1149 q 658 1281 626 1251 q 735 1310 690 1310 q 806 1287 776 1310 q 851 1231 835 1264 q 867 1167 867 1199 q 841 1101 867 1132 q 754 1069 815 1069 m 419 1063 q 350 1081 381 1063 q 301 1131 319 1100 q 283 1194 283 1161 q 311 1272 283 1243 q 386 1301 339 1301 q 462 1279 431 1301 q 510 1224 493 1257 q 526 1157 526 1190 q 501 1091 526 1119 q 419 1063 476 1063 z "},"Å":{"ha":1046,"x_min":44,"x_max":997,"o":"m 896 -14 q 828 9 857 -14 q 768 88 799 32 q 719 210 742 136 q 682 365 697 283 q 658 519 667 447 q 641 665 649 608 q 625 752 633 722 q 606 794 617 782 q 578 807 594 807 q 503 755 543 807 q 424 604 464 703 q 349 368 383 506 q 292 61 314 231 q 272 6 288 24 q 224 -11 256 -11 q 145 26 172 -11 q 118 156 118 64 q 131 318 118 240 q 162 470 144 396 q 193 618 179 544 q 210 768 207 692 q 223 808 210 793 q 264 822 236 822 q 315 809 289 822 q 361 764 340 796 l 290 740 q 423 922 349 857 q 585 988 497 988 q 726 939 676 988 q 803 787 776 890 q 847 518 829 683 q 878 338 858 413 q 918 210 897 263 q 953 120 939 157 q 967 53 967 83 q 949 3 967 21 q 896 -14 932 -14 m 150 242 q 69 263 94 242 q 44 321 44 285 q 60 363 44 346 q 111 392 76 381 q 450 467 258 440 q 875 493 642 493 q 972 472 946 493 q 997 414 997 451 q 960 341 997 369 q 857 313 922 313 q 639 305 733 313 q 472 287 544 297 q 342 266 399 276 q 238 249 285 256 q 150 242 192 242 m 582 878 q 436 910 499 878 q 339 997 374 942 q 304 1126 304 1053 q 324 1212 304 1169 q 377 1288 343 1254 q 453 1342 411 1322 q 538 1361 494 1361 q 590 1338 569 1361 q 611 1279 611 1314 q 599 1239 611 1257 q 558 1207 586 1221 q 503 1166 518 1189 q 489 1115 489 1143 q 513 1062 489 1082 q 574 1042 536 1042 q 633 1064 613 1042 q 654 1125 654 1086 q 635 1173 654 1154 q 585 1192 617 1192 q 544 1182 558 1192 q 520 1163 531 1172 q 494 1153 510 1153 q 431 1168 449 1153 q 414 1219 414 1183 q 458 1314 414 1276 q 581 1351 501 1351 q 717 1324 661 1351 q 803 1245 774 1296 q 833 1126 833 1194 q 800 999 833 1056 q 710 910 767 943 q 582 878 654 878 z "},"Ā":{"ha":1046,"x_min":44,"x_max":997,"o":"m 896 -14 q 828 9 857 -14 q 768 88 799 32 q 719 210 742 136 q 682 365 697 283 q 658 519 667 447 q 641 665 649 608 q 625 752 633 722 q 606 794 617 782 q 578 807 594 807 q 503 755 543 807 q 424 604 464 703 q 349 368 383 506 q 292 61 314 231 q 272 6 288 24 q 224 -11 256 -11 q 145 26 172 -11 q 118 156 118 64 q 131 318 118 240 q 162 470 144 396 q 193 618 179 544 q 210 768 207 692 q 223 808 210 793 q 264 822 236 822 q 315 809 289 822 q 361 764 340 796 l 290 740 q 423 922 349 857 q 585 988 497 988 q 726 939 676 988 q 803 787 776 890 q 847 518 829 683 q 878 338 858 413 q 918 210 897 263 q 953 120 939 157 q 967 53 967 83 q 949 3 967 21 q 896 -14 932 -14 m 150 242 q 69 263 94 242 q 44 321 44 285 q 60 363 44 346 q 111 392 76 381 q 450 467 258 440 q 875 493 642 493 q 972 472 946 493 q 997 414 997 451 q 960 341 997 369 q 857 313 922 313 q 639 305 733 313 q 472 287 544 297 q 342 266 399 276 q 238 249 285 256 q 150 242 192 242 m 426 1111 q 334 1144 367 1111 q 301 1213 301 1176 q 315 1255 301 1235 q 378 1281 329 1275 q 488 1293 438 1289 q 589 1299 539 1297 q 694 1301 639 1301 q 796 1283 758 1301 q 849 1238 833 1264 q 865 1192 865 1213 q 847 1144 865 1161 q 796 1126 829 1126 q 608 1123 679 1126 q 494 1115 536 1119 q 426 1111 453 1111 z "},"Ă":{"ha":1046,"x_min":44,"x_max":997,"o":"m 896 -14 q 828 9 857 -14 q 768 88 799 32 q 719 210 742 136 q 682 365 697 283 q 658 519 667 447 q 641 665 649 608 q 625 752 633 722 q 606 794 617 782 q 578 807 594 807 q 503 755 543 807 q 424 604 464 703 q 349 368 383 506 q 292 61 314 231 q 272 6 288 24 q 224 -11 256 -11 q 145 26 172 -11 q 118 156 118 64 q 131 318 118 240 q 162 470 144 396 q 193 618 179 544 q 210 768 207 692 q 223 808 210 793 q 264 822 236 822 q 315 809 289 822 q 361 764 340 796 l 290 740 q 423 922 349 857 q 585 988 497 988 q 726 939 676 988 q 803 787 776 890 q 847 518 829 683 q 878 338 858 413 q 918 210 897 263 q 953 120 939 157 q 967 53 967 83 q 949 3 967 21 q 896 -14 932 -14 m 150 242 q 69 263 94 242 q 44 321 44 285 q 60 363 44 346 q 111 392 76 381 q 450 467 258 440 q 875 493 642 493 q 972 472 946 493 q 997 414 997 451 q 960 341 997 369 q 857 313 922 313 q 639 305 733 313 q 472 287 544 297 q 342 266 399 276 q 238 249 285 256 q 150 242 192 242 m 567 1067 q 431 1094 489 1067 q 341 1165 374 1121 q 308 1261 308 1210 q 333 1331 308 1308 q 394 1353 357 1353 q 439 1339 422 1353 q 467 1293 456 1325 q 504 1241 478 1260 q 576 1222 531 1222 q 656 1240 628 1222 q 694 1292 683 1258 q 721 1344 706 1328 q 764 1360 736 1360 q 823 1337 803 1360 q 843 1271 843 1314 q 811 1169 843 1215 q 717 1094 779 1122 q 567 1067 656 1067 z "},"Ą":{"ha":1046,"x_min":44,"x_max":1014,"o":"m 896 -14 q 828 9 857 -14 q 768 88 799 32 q 719 210 742 136 q 682 365 697 283 q 658 519 667 447 q 641 665 649 608 q 625 752 633 722 q 606 794 617 782 q 578 807 594 807 q 503 755 543 807 q 424 604 464 703 q 349 368 383 506 q 292 61 314 231 q 272 6 288 24 q 224 -11 256 -11 q 145 26 172 -11 q 118 156 118 64 q 131 318 118 240 q 162 470 144 396 q 193 618 179 544 q 210 768 207 692 q 223 808 210 793 q 264 822 236 822 q 315 809 289 822 q 361 764 340 796 l 290 740 q 423 922 349 857 q 585 988 497 988 q 726 939 676 988 q 803 787 776 890 q 847 518 829 683 q 878 338 858 413 q 918 210 897 263 q 953 120 939 157 q 967 53 967 83 q 949 3 967 21 q 896 -14 932 -14 m 150 242 q 69 263 94 242 q 44 321 44 285 q 60 363 44 346 q 111 392 76 381 q 450 467 258 440 q 875 493 642 493 q 972 472 946 493 q 997 414 997 451 q 960 341 997 369 q 857 313 922 313 q 639 305 733 313 q 472 287 544 297 q 342 266 399 276 q 238 249 285 256 q 150 242 192 242 m 882 -358 q 719 -310 775 -358 q 663 -181 663 -262 q 694 -63 663 -117 q 781 23 726 -10 q 901 56 835 56 q 931 49 919 56 q 943 26 943 42 q 938 11 943 18 q 914 -7 932 4 q 856 -59 875 -29 q 838 -125 838 -89 q 858 -172 838 -156 q 935 -189 879 -189 q 997 -208 981 -189 q 1014 -254 1014 -226 q 977 -333 1014 -308 q 882 -358 940 -358 z "},"Ǎ":{"ha":1046,"x_min":44,"x_max":997,"o":"m 896 -14 q 828 9 857 -14 q 768 88 799 32 q 719 210 742 136 q 682 365 697 283 q 658 519 667 447 q 641 665 649 608 q 625 752 633 722 q 606 794 617 782 q 578 807 594 807 q 503 755 543 807 q 424 604 464 703 q 349 368 383 506 q 292 61 314 231 q 272 6 288 24 q 224 -11 256 -11 q 145 26 172 -11 q 118 156 118 64 q 131 318 118 240 q 162 470 144 396 q 193 618 179 544 q 210 768 207 692 q 223 808 210 793 q 264 822 236 822 q 315 809 289 822 q 361 764 340 796 l 290 740 q 423 922 349 857 q 585 988 497 988 q 726 939 676 988 q 803 787 776 890 q 847 518 829 683 q 878 338 858 413 q 918 210 897 263 q 953 120 939 157 q 967 53 967 83 q 949 3 967 21 q 896 -14 932 -14 m 150 242 q 69 263 94 242 q 44 321 44 285 q 60 363 44 346 q 111 392 76 381 q 450 467 258 440 q 875 493 642 493 q 972 472 946 493 q 997 414 997 451 q 960 341 997 369 q 857 313 922 313 q 639 305 733 313 q 472 287 544 297 q 342 266 399 276 q 238 249 285 256 q 150 242 192 242 m 756 1385 q 800 1373 779 1385 q 834 1344 821 1361 q 847 1308 847 1326 q 840 1282 847 1296 q 808 1243 833 1268 q 728 1172 783 1218 q 663 1121 688 1140 q 615 1092 638 1101 q 561 1083 593 1083 q 502 1099 528 1083 q 450 1153 476 1115 q 391 1219 418 1194 q 343 1258 364 1243 q 310 1288 322 1274 q 297 1326 297 1303 q 321 1366 297 1351 q 385 1381 344 1381 q 452 1368 419 1381 q 523 1320 485 1356 q 613 1218 561 1285 l 542 1219 q 635 1313 600 1279 q 692 1362 671 1346 q 728 1381 714 1378 q 756 1385 742 1385 z "},"Ǻ":{"ha":1046,"x_min":44,"x_max":997,"o":"m 896 -14 q 828 9 857 -14 q 768 88 799 32 q 719 210 742 136 q 682 365 697 283 q 658 519 667 447 q 641 665 649 608 q 625 752 633 722 q 606 794 617 782 q 578 807 594 807 q 503 755 543 807 q 424 604 464 703 q 349 368 383 506 q 292 61 314 231 q 272 6 288 24 q 224 -11 256 -11 q 145 26 172 -11 q 118 156 118 64 q 131 318 118 240 q 162 470 144 396 q 193 618 179 544 q 210 768 207 692 q 223 808 210 793 q 264 822 236 822 q 315 809 289 822 q 361 764 340 796 l 290 740 q 423 922 349 857 q 585 988 497 988 q 726 939 676 988 q 803 787 776 890 q 847 518 829 683 q 878 338 858 413 q 918 210 897 263 q 953 120 939 157 q 967 53 967 83 q 949 3 967 21 q 896 -14 932 -14 m 150 242 q 69 263 94 242 q 44 321 44 285 q 60 363 44 346 q 111 392 76 381 q 450 467 258 440 q 875 493 642 493 q 972 472 946 493 q 997 414 997 451 q 960 341 997 369 q 857 313 922 313 q 639 305 733 313 q 472 287 544 297 q 342 266 399 276 q 238 249 285 256 q 150 242 192 242 m 586 863 q 453 891 510 863 q 365 969 396 919 q 333 1082 333 1018 q 364 1181 333 1133 q 442 1259 394 1229 q 543 1289 490 1289 q 593 1267 574 1289 q 613 1213 613 1244 q 601 1174 613 1192 q 561 1144 589 1157 q 518 1110 529 1128 q 507 1071 507 1092 q 526 1031 507 1046 q 578 1017 546 1017 q 627 1034 610 1017 q 644 1081 644 1051 q 630 1116 644 1103 q 589 1129 615 1129 q 554 1119 567 1129 q 533 1101 542 1110 q 513 1092 524 1092 q 453 1106 469 1092 q 436 1154 436 1119 q 475 1244 436 1208 q 585 1279 514 1279 q 708 1254 657 1279 q 787 1185 760 1229 q 814 1082 814 1142 q 783 969 814 1018 q 701 892 753 921 q 586 863 650 863 m 561 1178 q 507 1191 525 1178 q 489 1225 489 1204 q 501 1263 489 1246 q 536 1299 513 1279 q 581 1350 567 1325 q 608 1414 596 1375 q 644 1471 622 1456 q 696 1486 665 1486 q 761 1464 739 1486 q 783 1397 783 1442 q 751 1289 783 1339 q 667 1208 718 1239 q 561 1178 617 1178 z "},"Ȁ":{"ha":1046,"x_min":44,"x_max":997,"o":"m 896 -14 q 828 9 857 -14 q 768 88 799 32 q 719 210 742 136 q 682 365 697 283 q 658 519 667 447 q 641 665 649 608 q 625 752 633 722 q 606 794 617 782 q 578 807 594 807 q 503 755 543 807 q 424 604 464 703 q 349 368 383 506 q 292 61 314 231 q 272 6 288 24 q 224 -11 256 -11 q 145 26 172 -11 q 118 156 118 64 q 131 318 118 240 q 162 470 144 396 q 193 618 179 544 q 210 768 207 692 q 223 808 210 793 q 264 822 236 822 q 315 809 289 822 q 361 764 340 796 l 290 740 q 423 922 349 857 q 585 988 497 988 q 726 939 676 988 q 803 787 776 890 q 847 518 829 683 q 878 338 858 413 q 918 210 897 263 q 953 120 939 157 q 967 53 967 83 q 949 3 967 21 q 896 -14 932 -14 m 150 242 q 69 263 94 242 q 44 321 44 285 q 60 363 44 346 q 111 392 76 381 q 450 467 258 440 q 875 493 642 493 q 972 472 946 493 q 997 414 997 451 q 960 341 997 369 q 857 313 922 313 q 639 305 733 313 q 472 287 544 297 q 342 266 399 276 q 238 249 285 256 q 150 242 192 242 m 782 1100 q 709 1120 744 1100 q 644 1173 674 1140 q 599 1244 615 1206 q 582 1321 582 1283 q 604 1390 582 1364 q 674 1415 626 1415 q 734 1398 710 1415 q 776 1333 758 1381 q 803 1276 789 1297 q 828 1238 817 1254 q 847 1208 839 1222 q 854 1169 854 1193 q 835 1119 854 1139 q 782 1100 815 1100 m 499 1058 q 426 1078 461 1058 q 363 1131 392 1097 q 316 1203 333 1164 q 299 1278 299 1242 q 322 1347 299 1321 q 396 1372 344 1372 q 453 1354 431 1372 q 496 1285 476 1336 q 522 1224 510 1247 q 546 1186 535 1201 q 564 1158 557 1171 q 571 1125 571 1144 q 552 1076 571 1094 q 499 1058 533 1058 z "},"Ȃ":{"ha":1046,"x_min":44,"x_max":997,"o":"m 896 -14 q 828 9 857 -14 q 768 88 799 32 q 719 210 742 136 q 682 365 697 283 q 658 519 667 447 q 641 665 649 608 q 625 752 633 722 q 606 794 617 782 q 578 807 594 807 q 503 755 543 807 q 424 604 464 703 q 349 368 383 506 q 292 61 314 231 q 272 6 288 24 q 224 -11 256 -11 q 145 26 172 -11 q 118 156 118 64 q 131 318 118 240 q 162 470 144 396 q 193 618 179 544 q 210 768 207 692 q 223 808 210 793 q 264 822 236 822 q 315 809 289 822 q 361 764 340 796 l 290 740 q 423 922 349 857 q 585 988 497 988 q 726 939 676 988 q 803 787 776 890 q 847 518 829 683 q 878 338 858 413 q 918 210 897 263 q 953 120 939 157 q 967 53 967 83 q 949 3 967 21 q 896 -14 932 -14 m 150 242 q 69 263 94 242 q 44 321 44 285 q 60 363 44 346 q 111 392 76 381 q 450 467 258 440 q 875 493 642 493 q 972 472 946 493 q 997 414 997 451 q 960 341 997 369 q 857 313 922 313 q 639 305 733 313 q 472 287 544 297 q 342 266 399 276 q 238 249 285 256 q 150 242 192 242 m 586 1397 q 722 1370 664 1397 q 812 1299 779 1343 q 844 1203 844 1254 q 820 1133 844 1156 q 758 1111 796 1111 q 715 1125 732 1111 q 686 1171 697 1139 q 650 1223 676 1204 q 576 1242 624 1242 q 498 1224 526 1242 q 458 1172 469 1206 q 432 1121 447 1138 q 389 1104 417 1104 q 330 1127 350 1104 q 310 1193 310 1150 q 342 1295 310 1249 q 435 1369 374 1342 q 586 1397 497 1397 z "},"Ạ":{"ha":1046,"x_min":44,"x_max":997,"o":"m 896 -14 q 828 9 857 -14 q 768 88 799 32 q 719 210 742 136 q 682 365 697 283 q 658 519 667 447 q 641 665 649 608 q 625 752 633 722 q 606 794 617 782 q 578 807 594 807 q 503 755 543 807 q 424 604 464 703 q 349 368 383 506 q 292 61 314 231 q 272 6 288 24 q 224 -11 256 -11 q 145 26 172 -11 q 118 156 118 64 q 131 318 118 240 q 162 470 144 396 q 193 618 179 544 q 210 768 207 692 q 223 808 210 793 q 264 822 236 822 q 315 809 289 822 q 361 764 340 796 l 290 740 q 423 922 349 857 q 585 988 497 988 q 726 939 676 988 q 803 787 776 890 q 847 518 829 683 q 878 338 858 413 q 918 210 897 263 q 953 120 939 157 q 967 53 967 83 q 949 3 967 21 q 896 -14 932 -14 m 150 242 q 69 263 94 242 q 44 321 44 285 q 60 363 44 346 q 111 392 76 381 q 450 467 258 440 q 875 493 642 493 q 972 472 946 493 q 997 414 997 451 q 960 341 997 369 q 857 313 922 313 q 639 305 733 313 q 472 287 544 297 q 342 266 399 276 q 238 249 285 256 q 150 242 192 242 m 567 -362 q 453 -326 497 -362 q 410 -239 410 -290 q 447 -157 410 -187 q 543 -126 485 -126 q 622 -147 589 -126 q 671 -197 654 -167 q 688 -258 688 -228 q 660 -329 688 -296 q 567 -362 632 -362 z "},"Ả":{"ha":1046,"x_min":44,"x_max":997,"o":"m 896 -14 q 828 9 857 -14 q 768 88 799 32 q 719 210 742 136 q 682 365 697 283 q 658 519 667 447 q 641 665 649 608 q 625 752 633 722 q 606 794 617 782 q 578 807 594 807 q 503 755 543 807 q 424 604 464 703 q 349 368 383 506 q 292 61 314 231 q 272 6 288 24 q 224 -11 256 -11 q 145 26 172 -11 q 118 156 118 64 q 131 318 118 240 q 162 470 144 396 q 193 618 179 544 q 210 768 207 692 q 223 808 210 793 q 264 822 236 822 q 315 809 289 822 q 361 764 340 796 l 290 740 q 423 922 349 857 q 585 988 497 988 q 726 939 676 988 q 803 787 776 890 q 847 518 829 683 q 878 338 858 413 q 918 210 897 263 q 953 120 939 157 q 967 53 967 83 q 949 3 967 21 q 896 -14 932 -14 m 150 242 q 69 263 94 242 q 44 321 44 285 q 60 363 44 346 q 111 392 76 381 q 450 467 258 440 q 875 493 642 493 q 972 472 946 493 q 997 414 997 451 q 960 341 997 369 q 857 313 922 313 q 639 305 733 313 q 472 287 544 297 q 342 266 399 276 q 238 249 285 256 q 150 242 192 242 m 579 1044 q 530 1059 544 1044 q 515 1094 515 1074 q 529 1126 515 1115 q 560 1144 543 1138 q 590 1163 576 1151 q 603 1194 603 1174 q 558 1233 603 1233 q 516 1227 535 1233 q 476 1221 497 1221 q 422 1239 442 1221 q 403 1289 403 1257 q 453 1369 403 1338 q 593 1401 503 1401 q 734 1353 685 1401 q 783 1219 783 1304 q 757 1131 783 1171 q 684 1068 731 1092 q 579 1044 638 1044 z "},"Ấ":{"ha":1046,"x_min":44,"x_max":997,"o":"m 896 -14 q 828 9 857 -14 q 768 88 799 32 q 719 210 742 136 q 682 365 697 283 q 658 519 667 447 q 641 665 649 608 q 625 752 633 722 q 606 794 617 782 q 578 807 594 807 q 503 755 543 807 q 424 604 464 703 q 349 368 383 506 q 292 61 314 231 q 272 6 288 24 q 224 -11 256 -11 q 145 26 172 -11 q 118 156 118 64 q 131 318 118 240 q 162 470 144 396 q 193 618 179 544 q 210 768 207 692 q 223 808 210 793 q 264 822 236 822 q 315 809 289 822 q 361 764 340 796 l 290 740 q 423 922 349 857 q 585 988 497 988 q 726 939 676 988 q 803 787 776 890 q 847 518 829 683 q 878 338 858 413 q 918 210 897 263 q 953 120 939 157 q 967 53 967 83 q 949 3 967 21 q 896 -14 932 -14 m 150 242 q 69 263 94 242 q 44 321 44 285 q 60 363 44 346 q 111 392 76 381 q 450 467 258 440 q 875 493 642 493 q 972 472 946 493 q 997 414 997 451 q 960 341 997 369 q 857 313 922 313 q 639 305 733 313 q 472 287 544 297 q 342 266 399 276 q 238 249 285 256 q 150 242 192 242 m 410 1010 q 366 1022 386 1010 q 333 1050 346 1033 q 321 1083 321 1067 q 326 1109 321 1096 q 356 1144 332 1122 q 429 1208 379 1167 q 494 1259 469 1240 q 539 1286 518 1278 q 590 1294 560 1294 q 648 1279 624 1294 q 699 1229 672 1264 q 752 1169 726 1190 q 797 1133 778 1147 q 828 1106 817 1119 q 839 1072 839 1093 q 817 1034 839 1049 q 757 1019 796 1019 q 694 1031 725 1019 q 626 1074 663 1043 q 543 1167 590 1106 l 610 1165 q 522 1078 556 1110 q 468 1032 489 1046 q 435 1014 447 1018 q 410 1010 422 1010 m 782 1254 q 732 1268 749 1254 q 715 1304 715 1282 q 727 1340 715 1325 q 760 1372 739 1354 q 801 1419 789 1397 q 825 1475 814 1440 q 857 1528 838 1514 q 906 1542 876 1542 q 967 1521 946 1542 q 988 1458 988 1500 q 957 1359 988 1406 q 879 1283 926 1313 q 782 1254 832 1254 z "},"Ầ":{"ha":1046,"x_min":44,"x_max":997,"o":"m 896 -14 q 828 9 857 -14 q 768 88 799 32 q 719 210 742 136 q 682 365 697 283 q 658 519 667 447 q 641 665 649 608 q 625 752 633 722 q 606 794 617 782 q 578 807 594 807 q 503 755 543 807 q 424 604 464 703 q 349 368 383 506 q 292 61 314 231 q 272 6 288 24 q 224 -11 256 -11 q 145 26 172 -11 q 118 156 118 64 q 131 318 118 240 q 162 470 144 396 q 193 618 179 544 q 210 768 207 692 q 223 808 210 793 q 264 822 236 822 q 315 809 289 822 q 361 764 340 796 l 290 740 q 423 922 349 857 q 585 988 497 988 q 726 939 676 988 q 803 787 776 890 q 847 518 829 683 q 878 338 858 413 q 918 210 897 263 q 953 120 939 157 q 967 53 967 83 q 949 3 967 21 q 896 -14 932 -14 m 150 242 q 69 263 94 242 q 44 321 44 285 q 60 363 44 346 q 111 392 76 381 q 450 467 258 440 q 875 493 642 493 q 972 472 946 493 q 997 414 997 451 q 960 341 997 369 q 857 313 922 313 q 639 305 733 313 q 472 287 544 297 q 342 266 399 276 q 238 249 285 256 q 150 242 192 242 m 410 1010 q 366 1022 386 1010 q 333 1050 346 1033 q 321 1083 321 1067 q 326 1109 321 1096 q 356 1144 332 1122 q 429 1208 379 1167 q 494 1259 469 1240 q 539 1286 518 1278 q 590 1294 560 1294 q 648 1279 624 1294 q 699 1229 672 1264 q 752 1169 726 1190 q 797 1133 778 1147 q 828 1106 817 1119 q 839 1072 839 1093 q 817 1034 839 1049 q 757 1019 796 1019 q 694 1031 725 1019 q 626 1074 663 1043 q 543 1167 590 1106 l 610 1165 q 522 1078 556 1110 q 468 1032 489 1046 q 435 1014 447 1018 q 410 1010 422 1010 m 831 1249 q 757 1267 794 1249 q 688 1316 719 1286 q 638 1381 657 1346 q 618 1450 618 1417 q 640 1515 618 1490 q 710 1539 663 1539 q 765 1523 743 1539 q 803 1463 786 1507 q 833 1405 815 1425 q 869 1372 851 1385 q 897 1345 886 1358 q 908 1311 908 1332 q 890 1266 908 1283 q 831 1249 871 1249 z "},"Ẩ":{"ha":1046,"x_min":44,"x_max":997,"o":"m 896 -14 q 828 9 857 -14 q 768 88 799 32 q 719 210 742 136 q 682 365 697 283 q 658 519 667 447 q 641 665 649 608 q 625 752 633 722 q 606 794 617 782 q 578 807 594 807 q 503 755 543 807 q 424 604 464 703 q 349 368 383 506 q 292 61 314 231 q 272 6 288 24 q 224 -11 256 -11 q 145 26 172 -11 q 118 156 118 64 q 131 318 118 240 q 162 470 144 396 q 193 618 179 544 q 210 768 207 692 q 223 808 210 793 q 264 822 236 822 q 315 809 289 822 q 361 764 340 796 l 290 740 q 423 922 349 857 q 585 988 497 988 q 726 939 676 988 q 803 787 776 890 q 847 518 829 683 q 878 338 858 413 q 918 210 897 263 q 953 120 939 157 q 967 53 967 83 q 949 3 967 21 q 896 -14 932 -14 m 150 242 q 69 263 94 242 q 44 321 44 285 q 60 363 44 346 q 111 392 76 381 q 450 467 258 440 q 875 493 642 493 q 972 472 946 493 q 997 414 997 451 q 960 341 997 369 q 857 313 922 313 q 639 305 733 313 q 472 287 544 297 q 342 266 399 276 q 238 249 285 256 q 150 242 192 242 m 410 1010 q 366 1022 386 1010 q 333 1050 346 1033 q 321 1083 321 1067 q 326 1109 321 1096 q 356 1144 332 1122 q 429 1208 379 1167 q 494 1259 469 1240 q 539 1286 518 1278 q 590 1294 560 1294 q 648 1279 624 1294 q 699 1229 672 1264 q 752 1169 726 1190 q 797 1133 778 1147 q 828 1106 817 1119 q 839 1072 839 1093 q 817 1034 839 1049 q 757 1019 796 1019 q 694 1031 725 1019 q 626 1074 663 1043 q 543 1167 590 1106 l 610 1165 q 522 1078 556 1110 q 468 1032 489 1046 q 435 1014 447 1018 q 410 1010 422 1010 m 815 1208 q 770 1221 783 1208 q 757 1253 757 1233 q 769 1281 757 1272 q 796 1296 781 1289 q 823 1313 811 1303 q 835 1340 835 1322 q 796 1375 835 1375 q 758 1369 774 1375 q 724 1363 742 1363 q 676 1378 693 1363 q 660 1424 660 1394 q 703 1495 660 1467 q 825 1524 746 1524 q 949 1480 906 1524 q 993 1361 993 1436 q 969 1285 993 1319 q 906 1229 946 1250 q 815 1208 865 1208 z "},"Ẫ":{"ha":1046,"x_min":44,"x_max":997,"o":"m 896 -14 q 828 9 857 -14 q 768 88 799 32 q 719 210 742 136 q 682 365 697 283 q 658 519 667 447 q 641 665 649 608 q 625 752 633 722 q 606 794 617 782 q 578 807 594 807 q 503 755 543 807 q 424 604 464 703 q 349 368 383 506 q 292 61 314 231 q 272 6 288 24 q 224 -11 256 -11 q 145 26 172 -11 q 118 156 118 64 q 131 318 118 240 q 162 470 144 396 q 193 618 179 544 q 210 768 207 692 q 223 808 210 793 q 264 822 236 822 q 315 809 289 822 q 361 764 340 796 l 290 740 q 423 922 349 857 q 585 988 497 988 q 726 939 676 988 q 803 787 776 890 q 847 518 829 683 q 878 338 858 413 q 918 210 897 263 q 953 120 939 157 q 967 53 967 83 q 949 3 967 21 q 896 -14 932 -14 m 150 242 q 69 263 94 242 q 44 321 44 285 q 60 363 44 346 q 111 392 76 381 q 450 467 258 440 q 875 493 642 493 q 972 472 946 493 q 997 414 997 451 q 960 341 997 369 q 857 313 922 313 q 639 305 733 313 q 472 287 544 297 q 342 266 399 276 q 238 249 285 256 q 150 242 192 242 m 408 1010 q 365 1022 386 1010 q 333 1050 344 1033 q 321 1083 321 1067 q 326 1109 321 1096 q 356 1144 332 1122 q 429 1208 379 1167 q 494 1259 469 1240 q 540 1286 518 1278 q 590 1294 561 1294 q 649 1279 624 1294 q 697 1229 674 1264 q 752 1169 726 1190 q 797 1133 778 1147 q 828 1106 817 1119 q 839 1072 839 1093 q 817 1034 839 1049 q 757 1019 796 1019 q 694 1031 725 1019 q 626 1075 663 1043 q 542 1167 589 1107 l 610 1165 q 522 1078 556 1110 q 468 1032 489 1046 q 435 1014 447 1018 q 408 1010 422 1010 m 411 1321 q 353 1349 375 1321 q 332 1415 332 1376 q 347 1481 332 1449 q 397 1533 363 1513 q 485 1553 431 1553 q 551 1540 524 1553 q 599 1513 579 1528 q 637 1485 619 1497 q 672 1474 654 1474 q 712 1485 699 1474 q 733 1510 725 1496 q 751 1535 740 1524 q 783 1546 763 1546 q 830 1526 813 1546 q 847 1461 847 1507 q 804 1359 847 1399 q 688 1319 761 1319 q 634 1330 657 1319 q 593 1354 611 1340 q 558 1378 575 1368 q 519 1389 540 1389 q 482 1378 493 1389 q 463 1355 471 1368 q 445 1331 456 1342 q 411 1321 435 1321 z "},"Ậ":{"ha":1046,"x_min":44,"x_max":997,"o":"m 896 -14 q 828 9 857 -14 q 768 88 799 32 q 719 210 742 136 q 682 365 697 283 q 658 519 667 447 q 641 665 649 608 q 625 752 633 722 q 606 794 617 782 q 578 807 594 807 q 503 755 543 807 q 424 604 464 703 q 349 368 383 506 q 292 61 314 231 q 272 6 288 24 q 224 -11 256 -11 q 145 26 172 -11 q 118 156 118 64 q 131 318 118 240 q 162 470 144 396 q 193 618 179 544 q 210 768 207 692 q 223 808 210 793 q 264 822 236 822 q 315 809 289 822 q 361 764 340 796 l 290 740 q 423 922 349 857 q 585 988 497 988 q 726 939 676 988 q 803 787 776 890 q 847 518 829 683 q 878 338 858 413 q 918 210 897 263 q 953 120 939 157 q 967 53 967 83 q 949 3 967 21 q 896 -14 932 -14 m 150 242 q 69 263 94 242 q 44 321 44 285 q 60 363 44 346 q 111 392 76 381 q 450 467 258 440 q 875 493 642 493 q 972 472 946 493 q 997 414 997 451 q 960 341 997 369 q 857 313 922 313 q 639 305 733 313 q 472 287 544 297 q 342 266 399 276 q 238 249 285 256 q 150 242 192 242 m 397 1058 q 353 1070 374 1058 q 319 1100 332 1082 q 306 1136 306 1118 q 313 1162 306 1149 q 344 1200 319 1175 q 425 1271 369 1225 q 491 1323 467 1303 q 538 1351 515 1343 q 592 1360 560 1360 q 651 1344 625 1360 q 703 1292 676 1328 q 762 1224 735 1249 q 810 1185 789 1200 q 843 1156 831 1169 q 856 1118 856 1142 q 833 1077 856 1092 q 768 1063 810 1063 q 702 1076 735 1063 q 631 1124 669 1089 q 540 1225 593 1160 l 611 1225 q 518 1131 554 1165 q 460 1082 482 1097 q 425 1063 439 1067 q 397 1058 411 1058 m 567 -362 q 453 -326 497 -362 q 410 -239 410 -290 q 447 -157 410 -187 q 543 -126 485 -126 q 622 -147 589 -126 q 671 -197 654 -167 q 688 -258 688 -228 q 660 -329 688 -296 q 567 -362 632 -362 z "},"Ắ":{"ha":1046,"x_min":44,"x_max":997,"o":"m 896 -14 q 828 9 857 -14 q 768 88 799 32 q 719 210 742 136 q 682 365 697 283 q 658 519 667 447 q 641 665 649 608 q 625 752 633 722 q 606 794 617 782 q 578 807 594 807 q 503 755 543 807 q 424 604 464 703 q 349 368 383 506 q 292 61 314 231 q 272 6 288 24 q 224 -11 256 -11 q 145 26 172 -11 q 118 156 118 64 q 131 318 118 240 q 162 470 144 396 q 193 618 179 544 q 210 768 207 692 q 223 808 210 793 q 264 822 236 822 q 315 809 289 822 q 361 764 340 796 l 290 740 q 423 922 349 857 q 585 988 497 988 q 726 939 676 988 q 803 787 776 890 q 847 518 829 683 q 878 338 858 413 q 918 210 897 263 q 953 120 939 157 q 967 53 967 83 q 949 3 967 21 q 896 -14 932 -14 m 150 242 q 69 263 94 242 q 44 321 44 285 q 60 363 44 346 q 111 392 76 381 q 450 467 258 440 q 875 493 642 493 q 972 472 946 493 q 997 414 997 451 q 960 341 997 369 q 857 313 922 313 q 639 305 733 313 q 472 287 544 297 q 342 266 399 276 q 238 249 285 256 q 150 242 192 242 m 568 1026 q 436 1053 493 1026 q 349 1124 379 1081 q 318 1215 318 1167 q 341 1282 318 1261 q 400 1303 364 1303 q 442 1290 426 1303 q 469 1244 458 1276 q 506 1194 481 1213 q 576 1176 531 1176 q 653 1194 625 1176 q 692 1244 681 1211 q 717 1294 703 1279 q 758 1310 732 1310 q 815 1288 796 1310 q 835 1225 835 1265 q 803 1126 835 1171 q 713 1053 772 1081 q 568 1026 654 1026 m 558 1288 q 508 1301 525 1288 q 492 1338 492 1315 q 503 1373 492 1358 q 536 1406 515 1388 q 578 1452 565 1431 q 601 1508 590 1474 q 633 1561 614 1547 q 682 1575 653 1575 q 743 1554 722 1575 q 764 1492 764 1533 q 733 1392 764 1439 q 656 1317 703 1346 q 558 1288 608 1288 z "},"Ằ":{"ha":1046,"x_min":44,"x_max":997,"o":"m 896 -14 q 828 9 857 -14 q 768 88 799 32 q 719 210 742 136 q 682 365 697 283 q 658 519 667 447 q 641 665 649 608 q 625 752 633 722 q 606 794 617 782 q 578 807 594 807 q 503 755 543 807 q 424 604 464 703 q 349 368 383 506 q 292 61 314 231 q 272 6 288 24 q 224 -11 256 -11 q 145 26 172 -11 q 118 156 118 64 q 131 318 118 240 q 162 470 144 396 q 193 618 179 544 q 210 768 207 692 q 223 808 210 793 q 264 822 236 822 q 315 809 289 822 q 361 764 340 796 l 290 740 q 423 922 349 857 q 585 988 497 988 q 726 939 676 988 q 803 787 776 890 q 847 518 829 683 q 878 338 858 413 q 918 210 897 263 q 953 120 939 157 q 967 53 967 83 q 949 3 967 21 q 896 -14 932 -14 m 150 242 q 69 263 94 242 q 44 321 44 285 q 60 363 44 346 q 111 392 76 381 q 450 467 258 440 q 875 493 642 493 q 972 472 946 493 q 997 414 997 451 q 960 341 997 369 q 857 313 922 313 q 639 305 733 313 q 472 287 544 297 q 342 266 399 276 q 238 249 285 256 q 150 242 192 242 m 568 1026 q 436 1053 493 1026 q 349 1124 379 1081 q 318 1215 318 1167 q 341 1282 318 1261 q 400 1303 364 1303 q 442 1290 426 1303 q 469 1244 458 1276 q 506 1194 481 1213 q 576 1176 531 1176 q 653 1194 625 1176 q 692 1244 681 1211 q 717 1294 703 1279 q 758 1310 732 1310 q 815 1288 796 1310 q 835 1225 835 1265 q 803 1126 835 1171 q 713 1053 772 1081 q 568 1026 654 1026 m 593 1289 q 520 1308 557 1289 q 452 1356 483 1326 q 402 1422 421 1386 q 383 1492 383 1457 q 405 1556 383 1532 q 474 1581 426 1581 q 527 1564 506 1581 q 565 1503 549 1547 q 597 1446 579 1467 q 632 1412 615 1425 q 660 1386 649 1399 q 671 1351 671 1374 q 652 1306 671 1324 q 593 1289 633 1289 z "},"Ẳ":{"ha":1046,"x_min":44,"x_max":997,"o":"m 896 -14 q 828 9 857 -14 q 768 88 799 32 q 719 210 742 136 q 682 365 697 283 q 658 519 667 447 q 641 665 649 608 q 625 752 633 722 q 606 794 617 782 q 578 807 594 807 q 503 755 543 807 q 424 604 464 703 q 349 368 383 506 q 292 61 314 231 q 272 6 288 24 q 224 -11 256 -11 q 145 26 172 -11 q 118 156 118 64 q 131 318 118 240 q 162 470 144 396 q 193 618 179 544 q 210 768 207 692 q 223 808 210 793 q 264 822 236 822 q 315 809 289 822 q 361 764 340 796 l 290 740 q 423 922 349 857 q 585 988 497 988 q 726 939 676 988 q 803 787 776 890 q 847 518 829 683 q 878 338 858 413 q 918 210 897 263 q 953 120 939 157 q 967 53 967 83 q 949 3 967 21 q 896 -14 932 -14 m 150 242 q 69 263 94 242 q 44 321 44 285 q 60 363 44 346 q 111 392 76 381 q 450 467 258 440 q 875 493 642 493 q 972 472 946 493 q 997 414 997 451 q 960 341 997 369 q 857 313 922 313 q 639 305 733 313 q 472 287 544 297 q 342 266 399 276 q 238 249 285 256 q 150 242 192 242 m 568 1026 q 436 1053 493 1026 q 349 1124 379 1081 q 318 1215 318 1167 q 341 1282 318 1261 q 400 1303 364 1303 q 442 1290 426 1303 q 469 1244 458 1276 q 506 1194 481 1213 q 576 1176 531 1176 q 653 1194 625 1176 q 692 1244 681 1211 q 717 1294 703 1279 q 758 1310 732 1310 q 815 1288 796 1310 q 835 1225 835 1265 q 803 1126 835 1171 q 713 1053 772 1081 q 568 1026 654 1026 m 557 1285 q 513 1298 525 1285 q 500 1329 500 1311 q 512 1358 500 1349 q 538 1373 524 1367 q 565 1389 553 1379 q 576 1417 576 1399 q 538 1451 576 1451 q 499 1446 515 1451 q 467 1440 483 1440 q 418 1456 435 1440 q 401 1500 401 1472 q 444 1572 401 1543 q 567 1600 488 1600 q 692 1556 647 1600 q 736 1439 736 1513 q 713 1361 736 1396 q 649 1306 689 1326 q 557 1285 608 1285 z "},"Ẵ":{"ha":1046,"x_min":44,"x_max":997,"o":"m 896 -14 q 828 9 857 -14 q 768 88 799 32 q 719 210 742 136 q 682 365 697 283 q 658 519 667 447 q 641 665 649 608 q 625 752 633 722 q 606 794 617 782 q 578 807 594 807 q 503 755 543 807 q 424 604 464 703 q 349 368 383 506 q 292 61 314 231 q 272 6 288 24 q 224 -11 256 -11 q 145 26 172 -11 q 118 156 118 64 q 131 318 118 240 q 162 470 144 396 q 193 618 179 544 q 210 768 207 692 q 223 808 210 793 q 264 822 236 822 q 315 809 289 822 q 361 764 340 796 l 290 740 q 423 922 349 857 q 585 988 497 988 q 726 939 676 988 q 803 787 776 890 q 847 518 829 683 q 878 338 858 413 q 918 210 897 263 q 953 120 939 157 q 967 53 967 83 q 949 3 967 21 q 896 -14 932 -14 m 150 242 q 69 263 94 242 q 44 321 44 285 q 60 363 44 346 q 111 392 76 381 q 450 467 258 440 q 875 493 642 493 q 972 472 946 493 q 997 414 997 451 q 960 341 997 369 q 857 313 922 313 q 639 305 733 313 q 472 287 544 297 q 342 266 399 276 q 238 249 285 256 q 150 242 192 242 m 568 1026 q 436 1051 493 1026 q 349 1117 379 1076 q 318 1204 318 1158 q 341 1271 318 1250 q 400 1292 364 1292 q 442 1279 426 1292 q 469 1238 458 1267 q 505 1194 479 1211 q 576 1176 531 1176 q 653 1193 625 1176 q 692 1238 682 1210 q 717 1284 703 1269 q 758 1299 732 1299 q 815 1276 796 1299 q 835 1214 835 1254 q 803 1120 835 1163 q 713 1052 772 1078 q 568 1026 654 1026 m 404 1329 q 346 1357 368 1329 q 324 1424 324 1385 q 339 1488 324 1457 q 388 1540 354 1519 q 478 1560 422 1560 q 544 1548 517 1560 q 592 1521 572 1536 q 630 1493 613 1506 q 665 1481 647 1481 q 705 1492 692 1481 q 726 1517 718 1503 q 744 1543 733 1532 q 775 1554 754 1554 q 823 1535 806 1554 q 840 1469 840 1515 q 797 1367 840 1407 q 681 1328 754 1328 q 628 1338 650 1328 q 586 1362 606 1349 q 549 1386 567 1375 q 513 1397 532 1397 q 474 1387 486 1397 q 456 1363 463 1376 q 438 1339 449 1349 q 404 1329 428 1329 z "},"Ặ":{"ha":1046,"x_min":44,"x_max":997,"o":"m 896 -14 q 828 9 857 -14 q 768 88 799 32 q 719 210 742 136 q 682 365 697 283 q 658 519 667 447 q 641 665 649 608 q 625 752 633 722 q 606 794 617 782 q 578 807 594 807 q 503 755 543 807 q 424 604 464 703 q 349 368 383 506 q 292 61 314 231 q 272 6 288 24 q 224 -11 256 -11 q 145 26 172 -11 q 118 156 118 64 q 131 318 118 240 q 162 470 144 396 q 193 618 179 544 q 210 768 207 692 q 223 808 210 793 q 264 822 236 822 q 315 809 289 822 q 361 764 340 796 l 290 740 q 423 922 349 857 q 585 988 497 988 q 726 939 676 988 q 803 787 776 890 q 847 518 829 683 q 878 338 858 413 q 918 210 897 263 q 953 120 939 157 q 967 53 967 83 q 949 3 967 21 q 896 -14 932 -14 m 150 242 q 69 263 94 242 q 44 321 44 285 q 60 363 44 346 q 111 392 76 381 q 450 467 258 440 q 875 493 642 493 q 972 472 946 493 q 997 414 997 451 q 960 341 997 369 q 857 313 922 313 q 639 305 733 313 q 472 287 544 297 q 342 266 399 276 q 238 249 285 256 q 150 242 192 242 m 567 1067 q 431 1094 489 1067 q 341 1165 374 1121 q 308 1261 308 1210 q 333 1331 308 1308 q 394 1353 357 1353 q 439 1339 422 1353 q 467 1293 456 1325 q 504 1241 478 1260 q 576 1222 531 1222 q 656 1240 628 1222 q 694 1292 683 1258 q 721 1344 706 1328 q 764 1360 736 1360 q 823 1337 803 1360 q 843 1271 843 1314 q 811 1169 843 1215 q 717 1094 779 1122 q 567 1067 656 1067 m 567 -362 q 453 -326 497 -362 q 410 -239 410 -290 q 447 -157 410 -187 q 543 -126 485 -126 q 622 -147 589 -126 q 671 -197 654 -167 q 688 -258 688 -228 q 660 -329 688 -296 q 567 -362 632 -362 z "},"B":{"ha":849,"x_min":49,"x_max":794,"o":"m 347 -21 q 238 18 286 -21 q 157 125 190 57 q 106 279 124 193 q 89 460 89 365 q 92 560 89 515 q 99 647 94 606 q 113 735 104 689 q 135 840 122 782 q 162 884 142 871 q 207 897 182 897 q 255 880 233 897 q 288 835 276 863 q 294 778 300 808 q 281 667 286 714 q 272 574 275 619 q 269 472 269 529 q 277 338 269 396 q 298 240 285 279 q 328 180 311 200 q 365 160 346 160 q 435 170 399 160 q 505 199 472 181 q 558 238 538 217 q 578 279 578 260 q 556 322 578 303 q 491 356 533 342 q 391 378 449 371 q 261 385 333 386 q 198 406 222 383 q 174 467 174 428 q 193 504 174 488 q 253 529 213 521 q 333 553 288 538 q 426 587 379 568 q 515 627 474 606 q 581 669 556 649 q 606 710 606 690 q 588 748 606 732 q 531 775 569 764 q 430 792 492 786 q 281 797 368 797 q 185 796 232 797 q 118 794 139 794 q 67 814 85 794 q 49 863 49 833 q 97 956 49 924 q 258 989 146 989 q 469 975 372 989 q 640 931 567 961 q 753 851 713 901 q 794 729 794 801 q 765 638 794 686 q 662 543 736 590 q 453 453 588 496 l 444 511 q 597 479 536 501 q 692 426 657 457 q 743 361 728 396 q 758 292 758 326 q 719 159 758 217 q 618 61 681 101 q 484 0 556 21 q 347 -21 413 -21 z "},"C":{"ha":853,"x_min":69,"x_max":790,"o":"m 464 -14 q 244 42 332 -14 q 113 195 157 99 q 69 414 69 292 q 109 629 69 526 q 218 813 149 732 q 379 940 288 893 q 574 988 471 988 q 687 968 644 988 q 749 911 729 949 q 769 824 769 874 q 758 751 769 785 q 722 697 746 718 q 664 676 699 676 q 633 686 644 676 q 616 711 621 696 q 611 744 611 726 q 606 771 611 760 q 588 789 601 782 q 547 796 575 796 q 428 763 482 796 q 335 676 374 731 q 274 553 296 621 q 251 414 251 485 q 311 226 251 292 q 472 161 371 161 q 560 173 525 161 q 617 201 596 185 q 655 235 639 218 q 688 263 671 251 q 726 274 704 274 q 776 254 761 274 q 790 203 790 235 q 769 129 790 167 q 706 59 749 92 q 603 6 664 26 q 464 -14 542 -14 z "},"Ç":{"ha":853,"x_min":69,"x_max":790,"o":"m 464 -14 q 244 42 332 -14 q 113 195 157 99 q 69 414 69 292 q 109 629 69 526 q 218 813 149 732 q 379 940 288 893 q 574 988 471 988 q 687 968 644 988 q 749 911 729 949 q 769 824 769 874 q 758 751 769 785 q 722 697 746 718 q 664 676 699 676 q 633 686 644 676 q 616 711 621 696 q 611 744 611 726 q 606 771 611 760 q 588 789 601 782 q 547 796 575 796 q 428 763 482 796 q 335 676 374 731 q 274 553 296 621 q 251 414 251 485 q 311 226 251 292 q 472 161 371 161 q 560 173 525 161 q 617 201 596 185 q 655 235 639 218 q 688 263 671 251 q 726 274 704 274 q 776 254 761 274 q 790 203 790 235 q 769 129 790 167 q 706 59 749 92 q 603 6 664 26 q 464 -14 542 -14 m 367 -318 q 277 -294 311 -318 q 243 -226 243 -271 q 260 -175 243 -194 q 319 -149 276 -156 q 410 -119 385 -140 q 436 -61 436 -99 q 428 -24 436 -36 q 412 -3 421 -11 q 396 12 403 4 q 389 35 389 19 q 403 63 389 50 q 449 75 418 75 q 568 21 522 75 q 614 -126 614 -33 q 549 -266 614 -214 q 367 -318 483 -318 z "},"Ć":{"ha":853,"x_min":69,"x_max":790,"o":"m 464 -14 q 244 42 332 -14 q 113 195 157 99 q 69 414 69 292 q 109 629 69 526 q 218 813 149 732 q 379 940 288 893 q 574 988 471 988 q 687 968 644 988 q 749 911 729 949 q 769 824 769 874 q 758 751 769 785 q 722 697 746 718 q 664 676 699 676 q 633 686 644 676 q 616 711 621 696 q 611 744 611 726 q 606 771 611 760 q 588 789 601 782 q 547 796 575 796 q 428 763 482 796 q 335 676 374 731 q 274 553 296 621 q 251 414 251 485 q 311 226 251 292 q 472 161 371 161 q 560 173 525 161 q 617 201 596 185 q 655 235 639 218 q 688 263 671 251 q 726 274 704 274 q 776 254 761 274 q 790 203 790 235 q 769 129 790 167 q 706 59 749 92 q 603 6 664 26 q 464 -14 542 -14 m 494 1068 q 438 1084 457 1068 q 418 1125 418 1100 q 431 1164 418 1147 q 467 1201 443 1181 q 515 1257 500 1231 q 542 1324 529 1283 q 580 1383 557 1368 q 635 1399 603 1399 q 706 1375 682 1399 q 729 1304 729 1351 q 694 1188 729 1242 q 606 1101 660 1135 q 494 1068 551 1068 z "},"Ĉ":{"ha":853,"x_min":69,"x_max":792,"o":"m 464 -14 q 244 42 332 -14 q 113 195 157 99 q 69 414 69 292 q 109 629 69 526 q 218 813 149 732 q 379 940 288 893 q 574 988 471 988 q 687 968 644 988 q 749 911 729 949 q 769 824 769 874 q 758 751 769 785 q 722 697 746 718 q 664 676 699 676 q 633 686 644 676 q 616 711 621 696 q 611 744 611 726 q 606 771 611 760 q 588 789 601 782 q 547 796 575 796 q 428 763 482 796 q 335 676 374 731 q 274 553 296 621 q 251 414 251 485 q 311 226 251 292 q 472 161 371 161 q 560 173 525 161 q 617 201 596 185 q 655 235 639 218 q 688 263 671 251 q 726 274 704 274 q 776 254 761 274 q 790 203 790 235 q 769 129 790 167 q 706 59 749 92 q 603 6 664 26 q 464 -14 542 -14 m 335 1058 q 290 1070 311 1058 q 256 1100 269 1082 q 243 1136 243 1118 q 250 1162 243 1149 q 282 1200 257 1175 q 363 1271 307 1225 q 428 1323 404 1303 q 475 1351 453 1343 q 529 1360 497 1360 q 588 1344 563 1360 q 640 1292 614 1328 q 699 1224 672 1249 q 747 1185 726 1200 q 781 1156 768 1169 q 793 1118 793 1142 q 770 1077 793 1092 q 706 1063 747 1063 q 640 1076 672 1063 q 569 1124 607 1089 q 478 1225 531 1160 l 549 1225 q 456 1131 492 1165 q 398 1082 419 1097 q 363 1063 376 1067 q 335 1058 349 1058 z "},"Ċ":{"ha":853,"x_min":69,"x_max":790,"o":"m 464 -14 q 244 42 332 -14 q 113 195 157 99 q 69 414 69 292 q 109 629 69 526 q 218 813 149 732 q 379 940 288 893 q 574 988 471 988 q 687 968 644 988 q 749 911 729 949 q 769 824 769 874 q 758 751 769 785 q 722 697 746 718 q 664 676 699 676 q 633 686 644 676 q 616 711 621 696 q 611 744 611 726 q 606 771 611 760 q 588 789 601 782 q 547 796 575 796 q 428 763 482 796 q 335 676 374 731 q 274 553 296 621 q 251 414 251 485 q 311 226 251 292 q 472 161 371 161 q 560 173 525 161 q 617 201 596 185 q 655 235 639 218 q 688 263 671 251 q 726 274 704 274 q 776 254 761 274 q 790 203 790 235 q 769 129 790 167 q 706 59 749 92 q 603 6 664 26 q 464 -14 542 -14 m 526 1078 q 421 1113 461 1078 q 381 1197 381 1147 q 415 1276 381 1247 q 504 1304 450 1304 q 577 1285 547 1304 q 622 1237 607 1265 q 638 1178 638 1208 q 612 1110 638 1143 q 526 1078 586 1078 z "},"Č":{"ha":853,"x_min":69,"x_max":790,"o":"m 464 -14 q 244 42 332 -14 q 113 195 157 99 q 69 414 69 292 q 109 629 69 526 q 218 813 149 732 q 379 940 288 893 q 574 988 471 988 q 687 968 644 988 q 749 911 729 949 q 769 824 769 874 q 758 751 769 785 q 722 697 746 718 q 664 676 699 676 q 633 686 644 676 q 616 711 621 696 q 611 744 611 726 q 606 771 611 760 q 588 789 601 782 q 547 796 575 796 q 428 763 482 796 q 335 676 374 731 q 274 553 296 621 q 251 414 251 485 q 311 226 251 292 q 472 161 371 161 q 560 173 525 161 q 617 201 596 185 q 655 235 639 218 q 688 263 671 251 q 726 274 704 274 q 776 254 761 274 q 790 203 790 235 q 769 129 790 167 q 706 59 749 92 q 603 6 664 26 q 464 -14 542 -14 m 693 1385 q 738 1373 717 1385 q 772 1344 758 1361 q 785 1308 785 1326 q 778 1282 785 1296 q 746 1243 771 1268 q 665 1172 721 1218 q 600 1121 625 1140 q 553 1092 575 1101 q 499 1083 531 1083 q 440 1099 465 1083 q 388 1153 414 1115 q 328 1219 356 1194 q 281 1258 301 1243 q 247 1288 260 1274 q 235 1326 235 1303 q 258 1366 235 1351 q 322 1381 282 1381 q 390 1368 357 1381 q 460 1320 422 1356 q 550 1218 499 1285 l 479 1219 q 573 1313 538 1279 q 630 1362 608 1346 q 665 1381 651 1378 q 693 1385 679 1385 z "},"D":{"ha":960,"x_min":29,"x_max":900,"o":"m 300 -14 q 208 20 246 -14 q 151 114 171 54 q 131 251 131 174 q 135 512 131 388 q 150 764 140 636 q 173 825 153 807 q 239 843 193 843 q 301 818 275 843 q 328 757 328 793 q 327 617 331 692 q 319 457 324 542 q 315 278 315 372 q 324 193 315 229 q 361 119 333 157 l 232 149 q 433 200 344 160 q 585 301 522 240 q 680 436 647 361 q 713 593 713 511 q 689 704 713 657 q 615 776 665 751 q 483 801 565 801 q 363 792 413 801 q 276 771 313 783 q 209 749 239 758 q 150 740 179 740 q 83 756 111 740 q 42 796 56 771 q 29 849 29 821 q 40 890 29 869 q 79 918 51 910 q 159 940 113 928 q 259 962 206 951 q 370 978 313 972 q 482 985 428 985 q 708 935 615 985 q 851 798 801 885 q 900 600 900 711 q 865 403 900 496 q 771 233 831 310 q 633 102 711 157 q 470 17 556 47 q 300 -14 385 -14 z "},"Ď":{"ha":960,"x_min":29,"x_max":900,"o":"m 300 -14 q 208 20 246 -14 q 151 114 171 54 q 131 251 131 174 q 135 512 131 388 q 150 764 140 636 q 173 825 153 807 q 239 843 193 843 q 301 818 275 843 q 328 757 328 793 q 327 617 331 692 q 319 457 324 542 q 315 278 315 372 q 324 193 315 229 q 361 119 333 157 l 232 149 q 433 200 344 160 q 585 301 522 240 q 680 436 647 361 q 713 593 713 511 q 689 704 713 657 q 615 776 665 751 q 483 801 565 801 q 363 792 413 801 q 276 771 313 783 q 209 749 239 758 q 150 740 179 740 q 83 756 111 740 q 42 796 56 771 q 29 849 29 821 q 40 890 29 869 q 79 918 51 910 q 159 940 113 928 q 259 962 206 951 q 370 978 313 972 q 482 985 428 985 q 708 935 615 985 q 851 798 801 885 q 900 600 900 711 q 865 403 900 496 q 771 233 831 310 q 633 102 711 157 q 470 17 556 47 q 300 -14 385 -14 m 692 1385 q 736 1373 715 1385 q 770 1344 757 1361 q 783 1308 783 1326 q 776 1282 783 1296 q 744 1243 769 1268 q 664 1172 719 1218 q 599 1121 624 1140 q 551 1092 574 1101 q 497 1083 529 1083 q 438 1099 464 1083 q 386 1153 413 1115 q 327 1219 354 1194 q 279 1258 300 1243 q 246 1288 258 1274 q 233 1326 233 1303 q 257 1366 233 1351 q 321 1381 281 1381 q 388 1368 356 1381 q 459 1320 421 1356 q 549 1218 497 1285 l 478 1219 q 572 1313 536 1279 q 628 1362 607 1346 q 664 1381 650 1378 q 692 1385 678 1385 z "},"E":{"ha":904,"x_min":90,"x_max":844,"o":"m 499 -10 q 323 22 399 -10 q 197 111 247 54 q 121 244 146 168 q 96 407 96 319 q 105 519 96 460 q 131 638 114 578 q 171 751 149 697 q 224 833 190 803 q 303 864 258 864 q 344 856 328 864 q 368 830 361 847 q 368 786 375 813 q 331 683 351 743 q 295 553 310 624 q 279 407 281 482 q 306 284 279 338 q 381 200 332 231 q 497 169 431 169 q 606 178 561 169 q 683 197 651 186 q 738 215 715 207 q 776 222 760 222 q 827 205 811 222 q 843 156 843 188 q 803 71 843 108 q 687 12 764 33 q 499 -10 610 -10 m 254 357 q 206 361 224 350 q 181 394 188 372 q 174 442 174 417 q 199 501 174 475 q 265 536 224 526 q 349 551 304 544 q 442 564 393 558 q 544 574 492 569 q 651 581 597 578 q 727 562 706 581 q 749 513 749 543 q 714 435 749 461 q 628 407 679 410 q 516 398 569 403 q 416 387 463 393 q 329 373 369 381 q 254 357 289 365 m 214 764 q 122 791 153 764 q 90 856 90 818 q 101 896 90 876 q 149 925 113 915 q 342 959 239 946 q 542 979 446 972 q 706 986 638 986 q 813 962 781 986 q 844 894 844 938 q 824 835 844 860 q 758 811 803 811 q 573 804 658 811 q 419 788 488 797 q 298 771 350 778 q 214 764 246 764 z "},"È":{"ha":904,"x_min":90,"x_max":844,"o":"m 499 -10 q 323 22 399 -10 q 197 111 247 54 q 121 244 146 168 q 96 407 96 319 q 105 519 96 460 q 131 638 114 578 q 171 751 149 697 q 224 833 190 803 q 303 864 258 864 q 344 856 328 864 q 368 830 361 847 q 368 786 375 813 q 331 683 351 743 q 295 553 310 624 q 279 407 281 482 q 306 284 279 338 q 381 200 332 231 q 497 169 431 169 q 606 178 561 169 q 683 197 651 186 q 738 215 715 207 q 776 222 760 222 q 827 205 811 222 q 843 156 843 188 q 803 71 843 108 q 687 12 764 33 q 499 -10 610 -10 m 254 357 q 206 361 224 350 q 181 394 188 372 q 174 442 174 417 q 199 501 174 475 q 265 536 224 526 q 349 551 304 544 q 442 564 393 558 q 544 574 492 569 q 651 581 597 578 q 727 562 706 581 q 749 513 749 543 q 714 435 749 461 q 628 407 679 410 q 516 398 569 403 q 416 387 463 393 q 329 373 369 381 q 254 357 289 365 m 214 764 q 122 791 153 764 q 90 856 90 818 q 101 896 90 876 q 149 925 113 915 q 342 959 239 946 q 542 979 446 972 q 706 986 638 986 q 813 962 781 986 q 844 894 844 938 q 824 835 844 860 q 758 811 803 811 q 573 804 658 811 q 419 788 488 797 q 298 771 350 778 q 214 764 246 764 m 522 1075 q 442 1094 483 1075 q 368 1147 401 1114 q 314 1217 335 1179 q 293 1293 293 1256 q 317 1363 293 1336 q 392 1389 340 1389 q 450 1372 426 1389 q 492 1307 474 1354 q 525 1244 506 1267 q 563 1208 544 1222 q 593 1180 581 1194 q 606 1142 606 1165 q 585 1093 606 1111 q 522 1075 565 1075 z "},"É":{"ha":904,"x_min":90,"x_max":844,"o":"m 499 -10 q 323 22 399 -10 q 197 111 247 54 q 121 244 146 168 q 96 407 96 319 q 105 519 96 460 q 131 638 114 578 q 171 751 149 697 q 224 833 190 803 q 303 864 258 864 q 344 856 328 864 q 368 830 361 847 q 368 786 375 813 q 331 683 351 743 q 295 553 310 624 q 279 407 281 482 q 306 284 279 338 q 381 200 332 231 q 497 169 431 169 q 606 178 561 169 q 683 197 651 186 q 738 215 715 207 q 776 222 760 222 q 827 205 811 222 q 843 156 843 188 q 803 71 843 108 q 687 12 764 33 q 499 -10 610 -10 m 254 357 q 206 361 224 350 q 181 394 188 372 q 174 442 174 417 q 199 501 174 475 q 265 536 224 526 q 349 551 304 544 q 442 564 393 558 q 544 574 492 569 q 651 581 597 578 q 727 562 706 581 q 749 513 749 543 q 714 435 749 461 q 628 407 679 410 q 516 398 569 403 q 416 387 463 393 q 329 373 369 381 q 254 357 289 365 m 214 764 q 122 791 153 764 q 90 856 90 818 q 101 896 90 876 q 149 925 113 915 q 342 959 239 946 q 542 979 446 972 q 706 986 638 986 q 813 962 781 986 q 844 894 844 938 q 824 835 844 860 q 758 811 803 811 q 573 804 658 811 q 419 788 488 797 q 298 771 350 778 q 214 764 246 764 m 506 1068 q 449 1084 468 1068 q 429 1125 429 1100 q 442 1164 429 1147 q 478 1201 454 1181 q 526 1257 511 1231 q 553 1324 540 1283 q 591 1383 568 1368 q 646 1399 614 1399 q 717 1375 693 1399 q 740 1304 740 1351 q 706 1188 740 1242 q 617 1101 671 1135 q 506 1068 563 1068 z "},"Ê":{"ha":904,"x_min":90,"x_max":844,"o":"m 499 -10 q 323 22 399 -10 q 197 111 247 54 q 121 244 146 168 q 96 407 96 319 q 105 519 96 460 q 131 638 114 578 q 171 751 149 697 q 224 833 190 803 q 303 864 258 864 q 344 856 328 864 q 368 830 361 847 q 368 786 375 813 q 331 683 351 743 q 295 553 310 624 q 279 407 281 482 q 306 284 279 338 q 381 200 332 231 q 497 169 431 169 q 606 178 561 169 q 683 197 651 186 q 738 215 715 207 q 776 222 760 222 q 827 205 811 222 q 843 156 843 188 q 803 71 843 108 q 687 12 764 33 q 499 -10 610 -10 m 254 357 q 206 361 224 350 q 181 394 188 372 q 174 442 174 417 q 199 501 174 475 q 265 536 224 526 q 349 551 304 544 q 442 564 393 558 q 544 574 492 569 q 651 581 597 578 q 727 562 706 581 q 749 513 749 543 q 714 435 749 461 q 628 407 679 410 q 516 398 569 403 q 416 387 463 393 q 329 373 369 381 q 254 357 289 365 m 214 764 q 122 791 153 764 q 90 856 90 818 q 101 896 90 876 q 149 925 113 915 q 342 959 239 946 q 542 979 446 972 q 706 986 638 986 q 813 962 781 986 q 844 894 844 938 q 824 835 844 860 q 758 811 803 811 q 573 804 658 811 q 419 788 488 797 q 298 771 350 778 q 214 764 246 764 m 346 1058 q 301 1070 322 1058 q 267 1100 281 1082 q 254 1136 254 1118 q 261 1162 254 1149 q 293 1200 268 1175 q 374 1271 318 1225 q 440 1323 415 1303 q 486 1351 464 1343 q 540 1360 508 1360 q 599 1344 574 1360 q 651 1292 625 1328 q 710 1224 683 1249 q 758 1185 738 1200 q 792 1156 779 1169 q 804 1118 804 1142 q 781 1077 804 1092 q 717 1063 758 1063 q 651 1076 683 1063 q 580 1124 618 1089 q 489 1225 542 1160 l 560 1225 q 467 1131 503 1165 q 409 1082 431 1097 q 374 1063 388 1067 q 346 1058 360 1058 z "},"Ë":{"ha":904,"x_min":90,"x_max":844,"o":"m 499 -10 q 323 22 399 -10 q 197 111 247 54 q 121 244 146 168 q 96 407 96 319 q 105 519 96 460 q 131 638 114 578 q 171 751 149 697 q 224 833 190 803 q 303 864 258 864 q 344 856 328 864 q 368 830 361 847 q 368 786 375 813 q 331 683 351 743 q 295 553 310 624 q 279 407 281 482 q 306 284 279 338 q 381 200 332 231 q 497 169 431 169 q 606 178 561 169 q 683 197 651 186 q 738 215 715 207 q 776 222 760 222 q 827 205 811 222 q 843 156 843 188 q 803 71 843 108 q 687 12 764 33 q 499 -10 610 -10 m 254 357 q 206 361 224 350 q 181 394 188 372 q 174 442 174 417 q 199 501 174 475 q 265 536 224 526 q 349 551 304 544 q 442 564 393 558 q 544 574 492 569 q 651 581 597 578 q 727 562 706 581 q 749 513 749 543 q 714 435 749 461 q 628 407 679 410 q 516 398 569 403 q 416 387 463 393 q 329 373 369 381 q 254 357 289 365 m 214 764 q 122 791 153 764 q 90 856 90 818 q 101 896 90 876 q 149 925 113 915 q 342 959 239 946 q 542 979 446 972 q 706 986 638 986 q 813 962 781 986 q 844 894 844 938 q 824 835 844 860 q 758 811 803 811 q 573 804 658 811 q 419 788 488 797 q 298 771 350 778 q 214 764 246 764 m 703 1069 q 613 1109 650 1069 q 575 1207 575 1149 q 607 1281 575 1251 q 683 1310 639 1310 q 754 1287 725 1310 q 799 1231 783 1264 q 815 1167 815 1199 q 790 1101 815 1132 q 703 1069 764 1069 m 368 1063 q 299 1081 329 1063 q 250 1131 268 1100 q 232 1194 232 1161 q 260 1272 232 1243 q 335 1301 288 1301 q 410 1279 379 1301 q 458 1224 442 1257 q 475 1157 475 1190 q 450 1091 475 1119 q 368 1063 425 1063 z "},"Ē":{"ha":904,"x_min":90,"x_max":844,"o":"m 499 -10 q 323 22 399 -10 q 197 111 247 54 q 121 244 146 168 q 96 407 96 319 q 105 519 96 460 q 131 638 114 578 q 171 751 149 697 q 224 833 190 803 q 303 864 258 864 q 344 856 328 864 q 368 830 361 847 q 368 786 375 813 q 331 683 351 743 q 295 553 310 624 q 279 407 281 482 q 306 284 279 338 q 381 200 332 231 q 497 169 431 169 q 606 178 561 169 q 683 197 651 186 q 738 215 715 207 q 776 222 760 222 q 827 205 811 222 q 843 156 843 188 q 803 71 843 108 q 687 12 764 33 q 499 -10 610 -10 m 254 357 q 206 361 224 350 q 181 394 188 372 q 174 442 174 417 q 199 501 174 475 q 265 536 224 526 q 349 551 304 544 q 442 564 393 558 q 544 574 492 569 q 651 581 597 578 q 727 562 706 581 q 749 513 749 543 q 714 435 749 461 q 628 407 679 410 q 516 398 569 403 q 416 387 463 393 q 329 373 369 381 q 254 357 289 365 m 214 764 q 122 791 153 764 q 90 856 90 818 q 101 896 90 876 q 149 925 113 915 q 342 959 239 946 q 542 979 446 972 q 706 986 638 986 q 813 962 781 986 q 844 894 844 938 q 824 835 844 860 q 758 811 803 811 q 573 804 658 811 q 419 788 488 797 q 298 771 350 778 q 214 764 246 764 m 375 1111 q 283 1144 315 1111 q 250 1213 250 1176 q 264 1255 250 1235 q 326 1281 278 1275 q 437 1293 386 1289 q 538 1299 488 1297 q 643 1301 588 1301 q 744 1283 707 1301 q 798 1238 782 1264 q 814 1192 814 1213 q 796 1144 814 1161 q 744 1126 778 1126 q 556 1123 628 1126 q 443 1115 485 1119 q 375 1111 401 1111 z "},"Ĕ":{"ha":904,"x_min":90,"x_max":844,"o":"m 499 -10 q 323 22 399 -10 q 197 111 247 54 q 121 244 146 168 q 96 407 96 319 q 105 519 96 460 q 131 638 114 578 q 171 751 149 697 q 224 833 190 803 q 303 864 258 864 q 344 856 328 864 q 368 830 361 847 q 368 786 375 813 q 331 683 351 743 q 295 553 310 624 q 279 407 281 482 q 306 284 279 338 q 381 200 332 231 q 497 169 431 169 q 606 178 561 169 q 683 197 651 186 q 738 215 715 207 q 776 222 760 222 q 827 205 811 222 q 843 156 843 188 q 803 71 843 108 q 687 12 764 33 q 499 -10 610 -10 m 254 357 q 206 361 224 350 q 181 394 188 372 q 174 442 174 417 q 199 501 174 475 q 265 536 224 526 q 349 551 304 544 q 442 564 393 558 q 544 574 492 569 q 651 581 597 578 q 727 562 706 581 q 749 513 749 543 q 714 435 749 461 q 628 407 679 410 q 516 398 569 403 q 416 387 463 393 q 329 373 369 381 q 254 357 289 365 m 214 764 q 122 791 153 764 q 90 856 90 818 q 101 896 90 876 q 149 925 113 915 q 342 959 239 946 q 542 979 446 972 q 706 986 638 986 q 813 962 781 986 q 844 894 844 938 q 824 835 844 860 q 758 811 803 811 q 573 804 658 811 q 419 788 488 797 q 298 771 350 778 q 214 764 246 764 m 515 1067 q 380 1094 438 1067 q 290 1165 322 1121 q 257 1261 257 1210 q 281 1331 257 1308 q 343 1353 306 1353 q 388 1339 371 1353 q 415 1293 404 1325 q 453 1241 426 1260 q 525 1222 479 1222 q 604 1240 576 1222 q 643 1292 632 1258 q 669 1344 654 1328 q 713 1360 685 1360 q 772 1337 751 1360 q 792 1271 792 1314 q 760 1169 792 1215 q 666 1094 728 1122 q 515 1067 604 1067 z "},"Ė":{"ha":904,"x_min":90,"x_max":844,"o":"m 499 -10 q 323 22 399 -10 q 197 111 247 54 q 121 244 146 168 q 96 407 96 319 q 105 519 96 460 q 131 638 114 578 q 171 751 149 697 q 224 833 190 803 q 303 864 258 864 q 344 856 328 864 q 368 830 361 847 q 368 786 375 813 q 331 683 351 743 q 295 553 310 624 q 279 407 281 482 q 306 284 279 338 q 381 200 332 231 q 497 169 431 169 q 606 178 561 169 q 683 197 651 186 q 738 215 715 207 q 776 222 760 222 q 827 205 811 222 q 843 156 843 188 q 803 71 843 108 q 687 12 764 33 q 499 -10 610 -10 m 254 357 q 206 361 224 350 q 181 394 188 372 q 174 442 174 417 q 199 501 174 475 q 265 536 224 526 q 349 551 304 544 q 442 564 393 558 q 544 574 492 569 q 651 581 597 578 q 727 562 706 581 q 749 513 749 543 q 714 435 749 461 q 628 407 679 410 q 516 398 569 403 q 416 387 463 393 q 329 373 369 381 q 254 357 289 365 m 214 764 q 122 791 153 764 q 90 856 90 818 q 101 896 90 876 q 149 925 113 915 q 342 959 239 946 q 542 979 446 972 q 706 986 638 986 q 813 962 781 986 q 844 894 844 938 q 824 835 844 860 q 758 811 803 811 q 573 804 658 811 q 419 788 488 797 q 298 771 350 778 q 214 764 246 764 m 538 1078 q 432 1113 472 1078 q 392 1197 392 1147 q 426 1276 392 1247 q 515 1304 461 1304 q 588 1285 558 1304 q 633 1237 618 1265 q 649 1178 649 1208 q 623 1110 649 1143 q 538 1078 597 1078 z "},"Ę":{"ha":904,"x_min":90,"x_max":883,"o":"m 499 -10 q 323 22 399 -10 q 197 111 247 54 q 121 244 146 168 q 96 407 96 319 q 105 519 96 460 q 131 638 114 578 q 171 751 149 697 q 224 833 190 803 q 303 864 258 864 q 344 856 328 864 q 368 830 361 847 q 368 786 375 813 q 331 683 351 743 q 295 553 310 624 q 279 407 281 482 q 306 284 279 338 q 381 200 332 231 q 497 169 431 169 q 606 178 561 169 q 683 197 651 186 q 738 215 715 207 q 776 222 760 222 q 827 205 811 222 q 843 156 843 188 q 803 71 843 108 q 687 12 764 33 q 499 -10 610 -10 m 254 357 q 206 361 224 350 q 181 394 188 372 q 174 442 174 417 q 199 501 174 475 q 265 536 224 526 q 349 551 304 544 q 442 564 393 558 q 544 574 492 569 q 651 581 597 578 q 727 562 706 581 q 749 513 749 543 q 714 435 749 461 q 628 407 679 410 q 516 398 569 403 q 416 387 463 393 q 329 373 369 381 q 254 357 289 365 m 214 764 q 122 791 153 764 q 90 856 90 818 q 101 896 90 876 q 149 925 113 915 q 342 959 239 946 q 542 979 446 972 q 706 986 638 986 q 813 962 781 986 q 844 894 844 938 q 824 835 844 860 q 758 811 803 811 q 573 804 658 811 q 419 788 488 797 q 298 771 350 778 q 214 764 246 764 m 751 -293 q 588 -245 644 -293 q 532 -115 532 -197 q 564 2 532 -51 q 650 88 596 56 q 771 121 704 121 q 801 114 789 121 q 813 92 813 107 q 807 76 813 83 q 783 58 801 69 q 726 6 744 36 q 707 -60 707 -24 q 728 -107 707 -90 q 804 -124 749 -124 q 867 -142 850 -124 q 883 -189 883 -161 q 847 -268 883 -243 q 751 -293 810 -293 z "},"Ě":{"ha":904,"x_min":90,"x_max":844,"o":"m 499 -10 q 323 22 399 -10 q 197 111 247 54 q 121 244 146 168 q 96 407 96 319 q 105 519 96 460 q 131 638 114 578 q 171 751 149 697 q 224 833 190 803 q 303 864 258 864 q 344 856 328 864 q 368 830 361 847 q 368 786 375 813 q 331 683 351 743 q 295 553 310 624 q 279 407 281 482 q 306 284 279 338 q 381 200 332 231 q 497 169 431 169 q 606 178 561 169 q 683 197 651 186 q 738 215 715 207 q 776 222 760 222 q 827 205 811 222 q 843 156 843 188 q 803 71 843 108 q 687 12 764 33 q 499 -10 610 -10 m 254 357 q 206 361 224 350 q 181 394 188 372 q 174 442 174 417 q 199 501 174 475 q 265 536 224 526 q 349 551 304 544 q 442 564 393 558 q 544 574 492 569 q 651 581 597 578 q 727 562 706 581 q 749 513 749 543 q 714 435 749 461 q 628 407 679 410 q 516 398 569 403 q 416 387 463 393 q 329 373 369 381 q 254 357 289 365 m 214 764 q 122 791 153 764 q 90 856 90 818 q 101 896 90 876 q 149 925 113 915 q 342 959 239 946 q 542 979 446 972 q 706 986 638 986 q 813 962 781 986 q 844 894 844 938 q 824 835 844 860 q 758 811 803 811 q 573 804 658 811 q 419 788 488 797 q 298 771 350 778 q 214 764 246 764 m 704 1385 q 749 1373 728 1385 q 783 1344 769 1361 q 796 1308 796 1326 q 789 1282 796 1296 q 757 1243 782 1268 q 676 1172 732 1218 q 611 1121 636 1140 q 564 1092 586 1101 q 510 1083 542 1083 q 451 1099 476 1083 q 399 1153 425 1115 q 340 1219 367 1194 q 292 1258 313 1243 q 258 1288 271 1274 q 246 1326 246 1303 q 269 1366 246 1351 q 333 1381 293 1381 q 401 1368 368 1381 q 472 1320 433 1356 q 561 1218 510 1285 l 490 1219 q 584 1313 549 1279 q 641 1362 619 1346 q 676 1381 663 1378 q 704 1385 690 1385 z "},"Ȅ":{"ha":904,"x_min":90,"x_max":844,"o":"m 499 -10 q 323 22 399 -10 q 197 111 247 54 q 121 244 146 168 q 96 407 96 319 q 105 519 96 460 q 131 638 114 578 q 171 751 149 697 q 224 833 190 803 q 303 864 258 864 q 344 856 328 864 q 368 830 361 847 q 368 786 375 813 q 331 683 351 743 q 295 553 310 624 q 279 407 281 482 q 306 284 279 338 q 381 200 332 231 q 497 169 431 169 q 606 178 561 169 q 683 197 651 186 q 738 215 715 207 q 776 222 760 222 q 827 205 811 222 q 843 156 843 188 q 803 71 843 108 q 687 12 764 33 q 499 -10 610 -10 m 254 357 q 206 361 224 350 q 181 394 188 372 q 174 442 174 417 q 199 501 174 475 q 265 536 224 526 q 349 551 304 544 q 442 564 393 558 q 544 574 492 569 q 651 581 597 578 q 727 562 706 581 q 749 513 749 543 q 714 435 749 461 q 628 407 679 410 q 516 398 569 403 q 416 387 463 393 q 329 373 369 381 q 254 357 289 365 m 214 764 q 122 791 153 764 q 90 856 90 818 q 101 896 90 876 q 149 925 113 915 q 342 959 239 946 q 542 979 446 972 q 706 986 638 986 q 813 962 781 986 q 844 894 844 938 q 824 835 844 860 q 758 811 803 811 q 573 804 658 811 q 419 788 488 797 q 298 771 350 778 q 214 764 246 764 m 731 1100 q 658 1120 693 1100 q 593 1173 622 1140 q 547 1244 564 1206 q 531 1321 531 1283 q 553 1390 531 1364 q 622 1415 575 1415 q 683 1398 658 1415 q 725 1333 707 1381 q 751 1276 738 1297 q 776 1238 765 1254 q 795 1208 788 1222 q 803 1169 803 1193 q 783 1119 803 1139 q 731 1100 764 1100 m 447 1058 q 375 1078 410 1058 q 311 1131 340 1097 q 265 1203 282 1164 q 247 1278 247 1242 q 270 1347 247 1321 q 344 1372 293 1372 q 402 1354 379 1372 q 444 1285 425 1336 q 471 1224 458 1247 q 494 1186 483 1201 q 513 1158 506 1171 q 519 1125 519 1144 q 501 1076 519 1094 q 447 1058 482 1058 z "},"Ȇ":{"ha":904,"x_min":90,"x_max":844,"o":"m 499 -10 q 323 22 399 -10 q 197 111 247 54 q 121 244 146 168 q 96 407 96 319 q 105 519 96 460 q 131 638 114 578 q 171 751 149 697 q 224 833 190 803 q 303 864 258 864 q 344 856 328 864 q 368 830 361 847 q 368 786 375 813 q 331 683 351 743 q 295 553 310 624 q 279 407 281 482 q 306 284 279 338 q 381 200 332 231 q 497 169 431 169 q 606 178 561 169 q 683 197 651 186 q 738 215 715 207 q 776 222 760 222 q 827 205 811 222 q 843 156 843 188 q 803 71 843 108 q 687 12 764 33 q 499 -10 610 -10 m 254 357 q 206 361 224 350 q 181 394 188 372 q 174 442 174 417 q 199 501 174 475 q 265 536 224 526 q 349 551 304 544 q 442 564 393 558 q 544 574 492 569 q 651 581 597 578 q 727 562 706 581 q 749 513 749 543 q 714 435 749 461 q 628 407 679 410 q 516 398 569 403 q 416 387 463 393 q 329 373 369 381 q 254 357 289 365 m 214 764 q 122 791 153 764 q 90 856 90 818 q 101 896 90 876 q 149 925 113 915 q 342 959 239 946 q 542 979 446 972 q 706 986 638 986 q 813 962 781 986 q 844 894 844 938 q 824 835 844 860 q 758 811 803 811 q 573 804 658 811 q 419 788 488 797 q 298 771 350 778 q 214 764 246 764 m 535 1397 q 670 1370 613 1397 q 760 1299 728 1343 q 793 1203 793 1254 q 769 1133 793 1156 q 707 1111 744 1111 q 663 1125 681 1111 q 635 1171 646 1139 q 599 1223 625 1204 q 525 1242 572 1242 q 447 1224 475 1242 q 407 1172 418 1206 q 381 1121 396 1138 q 338 1104 365 1104 q 278 1127 299 1104 q 258 1193 258 1150 q 290 1295 258 1249 q 384 1369 322 1342 q 535 1397 446 1397 z "},"Ẹ":{"ha":904,"x_min":90,"x_max":844,"o":"m 499 -10 q 323 22 399 -10 q 197 111 247 54 q 121 244 146 168 q 96 407 96 319 q 105 519 96 460 q 131 638 114 578 q 171 751 149 697 q 224 833 190 803 q 303 864 258 864 q 344 856 328 864 q 368 830 361 847 q 368 786 375 813 q 331 683 351 743 q 295 553 310 624 q 279 407 281 482 q 306 284 279 338 q 381 200 332 231 q 497 169 431 169 q 606 178 561 169 q 683 197 651 186 q 738 215 715 207 q 776 222 760 222 q 827 205 811 222 q 843 156 843 188 q 803 71 843 108 q 687 12 764 33 q 499 -10 610 -10 m 254 357 q 206 361 224 350 q 181 394 188 372 q 174 442 174 417 q 199 501 174 475 q 265 536 224 526 q 349 551 304 544 q 442 564 393 558 q 544 574 492 569 q 651 581 597 578 q 727 562 706 581 q 749 513 749 543 q 714 435 749 461 q 628 407 679 410 q 516 398 569 403 q 416 387 463 393 q 329 373 369 381 q 254 357 289 365 m 214 764 q 122 791 153 764 q 90 856 90 818 q 101 896 90 876 q 149 925 113 915 q 342 959 239 946 q 542 979 446 972 q 706 986 638 986 q 813 962 781 986 q 844 894 844 938 q 824 835 844 860 q 758 811 803 811 q 573 804 658 811 q 419 788 488 797 q 298 771 350 778 q 214 764 246 764 m 539 -362 q 426 -326 469 -362 q 382 -239 382 -290 q 419 -157 382 -187 q 515 -126 457 -126 q 594 -147 561 -126 q 643 -197 626 -167 q 660 -258 660 -228 q 632 -329 660 -296 q 539 -362 604 -362 z "},"Ẻ":{"ha":904,"x_min":90,"x_max":844,"o":"m 499 -10 q 323 22 399 -10 q 197 111 247 54 q 121 244 146 168 q 96 407 96 319 q 105 519 96 460 q 131 638 114 578 q 171 751 149 697 q 224 833 190 803 q 303 864 258 864 q 344 856 328 864 q 368 830 361 847 q 368 786 375 813 q 331 683 351 743 q 295 553 310 624 q 279 407 281 482 q 306 284 279 338 q 381 200 332 231 q 497 169 431 169 q 606 178 561 169 q 683 197 651 186 q 738 215 715 207 q 776 222 760 222 q 827 205 811 222 q 843 156 843 188 q 803 71 843 108 q 687 12 764 33 q 499 -10 610 -10 m 254 357 q 206 361 224 350 q 181 394 188 372 q 174 442 174 417 q 199 501 174 475 q 265 536 224 526 q 349 551 304 544 q 442 564 393 558 q 544 574 492 569 q 651 581 597 578 q 727 562 706 581 q 749 513 749 543 q 714 435 749 461 q 628 407 679 410 q 516 398 569 403 q 416 387 463 393 q 329 373 369 381 q 254 357 289 365 m 214 764 q 122 791 153 764 q 90 856 90 818 q 101 896 90 876 q 149 925 113 915 q 342 959 239 946 q 542 979 446 972 q 706 986 638 986 q 813 962 781 986 q 844 894 844 938 q 824 835 844 860 q 758 811 803 811 q 573 804 658 811 q 419 788 488 797 q 298 771 350 778 q 214 764 246 764 m 528 1044 q 478 1059 493 1044 q 464 1094 464 1074 q 478 1126 464 1115 q 508 1144 492 1138 q 538 1163 525 1151 q 551 1194 551 1174 q 507 1233 551 1233 q 465 1227 483 1233 q 425 1221 446 1221 q 371 1239 390 1221 q 351 1289 351 1257 q 401 1369 351 1338 q 542 1401 451 1401 q 683 1353 633 1401 q 732 1219 732 1304 q 706 1131 732 1171 q 633 1068 679 1092 q 528 1044 586 1044 z "},"Ẽ":{"ha":904,"x_min":90,"x_max":844,"o":"m 499 -10 q 323 22 399 -10 q 197 111 247 54 q 121 244 146 168 q 96 407 96 319 q 105 519 96 460 q 131 638 114 578 q 171 751 149 697 q 224 833 190 803 q 303 864 258 864 q 344 856 328 864 q 368 830 361 847 q 368 786 375 813 q 331 683 351 743 q 295 553 310 624 q 279 407 281 482 q 306 284 279 338 q 381 200 332 231 q 497 169 431 169 q 606 178 561 169 q 683 197 651 186 q 738 215 715 207 q 776 222 760 222 q 827 205 811 222 q 843 156 843 188 q 803 71 843 108 q 687 12 764 33 q 499 -10 610 -10 m 254 357 q 206 361 224 350 q 181 394 188 372 q 174 442 174 417 q 199 501 174 475 q 265 536 224 526 q 349 551 304 544 q 442 564 393 558 q 544 574 492 569 q 651 581 597 578 q 727 562 706 581 q 749 513 749 543 q 714 435 749 461 q 628 407 679 410 q 516 398 569 403 q 416 387 463 393 q 329 373 369 381 q 254 357 289 365 m 214 764 q 122 791 153 764 q 90 856 90 818 q 101 896 90 876 q 149 925 113 915 q 342 959 239 946 q 542 979 446 972 q 706 986 638 986 q 813 962 781 986 q 844 894 844 938 q 824 835 844 860 q 758 811 803 811 q 573 804 658 811 q 419 788 488 797 q 298 771 350 778 q 214 764 246 764 m 322 1085 q 258 1115 282 1085 q 235 1189 235 1146 q 251 1266 235 1229 q 306 1326 268 1303 q 404 1350 343 1350 q 482 1335 450 1350 q 538 1301 514 1319 q 581 1267 561 1282 q 622 1251 601 1251 q 659 1260 646 1251 q 681 1283 672 1269 q 697 1311 690 1297 q 715 1334 704 1325 q 746 1343 726 1343 q 797 1322 778 1343 q 815 1250 815 1300 q 768 1129 815 1176 q 640 1082 721 1082 q 578 1095 604 1082 q 529 1126 551 1108 q 487 1156 507 1143 q 442 1169 467 1169 q 401 1157 414 1169 q 380 1127 388 1144 q 360 1097 372 1110 q 322 1085 347 1085 z "},"Ế":{"ha":904,"x_min":90,"x_max":935,"o":"m 499 -10 q 323 22 399 -10 q 197 111 247 54 q 121 244 146 168 q 96 407 96 319 q 105 519 96 460 q 131 638 114 578 q 171 751 149 697 q 224 833 190 803 q 303 864 258 864 q 344 856 328 864 q 368 830 361 847 q 368 786 375 813 q 331 683 351 743 q 295 553 310 624 q 279 407 281 482 q 306 284 279 338 q 381 200 332 231 q 497 169 431 169 q 606 178 561 169 q 683 197 651 186 q 738 215 715 207 q 776 222 760 222 q 827 205 811 222 q 843 156 843 188 q 803 71 843 108 q 687 12 764 33 q 499 -10 610 -10 m 254 357 q 206 361 224 350 q 181 394 188 372 q 174 442 174 417 q 199 501 174 475 q 265 536 224 526 q 349 551 304 544 q 442 564 393 558 q 544 574 492 569 q 651 581 597 578 q 727 562 706 581 q 749 513 749 543 q 714 435 749 461 q 628 407 679 410 q 516 398 569 403 q 416 387 463 393 q 329 373 369 381 q 254 357 289 365 m 214 764 q 122 791 153 764 q 90 856 90 818 q 101 896 90 876 q 149 925 113 915 q 342 959 239 946 q 542 979 446 972 q 706 986 638 986 q 813 962 781 986 q 844 894 844 938 q 824 835 844 860 q 758 811 803 811 q 573 804 658 811 q 419 788 488 797 q 298 771 350 778 q 214 764 246 764 m 358 1010 q 315 1022 335 1010 q 282 1050 294 1033 q 269 1083 269 1067 q 275 1109 269 1096 q 304 1144 281 1122 q 378 1208 328 1167 q 442 1259 418 1240 q 488 1286 467 1278 q 539 1294 508 1294 q 597 1279 572 1294 q 647 1229 621 1264 q 701 1169 675 1190 q 746 1133 726 1147 q 776 1106 765 1119 q 788 1072 788 1093 q 766 1034 788 1049 q 706 1019 744 1019 q 642 1031 674 1019 q 575 1074 611 1043 q 492 1167 539 1106 l 558 1165 q 471 1078 504 1110 q 417 1032 438 1046 q 383 1014 396 1018 q 358 1010 371 1010 m 731 1254 q 681 1268 697 1254 q 664 1304 664 1282 q 676 1340 664 1325 q 708 1372 688 1354 q 750 1419 738 1397 q 774 1475 763 1440 q 806 1528 786 1514 q 854 1542 825 1542 q 915 1521 894 1542 q 936 1458 936 1500 q 906 1359 936 1406 q 828 1283 875 1313 q 731 1254 781 1254 z "},"Ề":{"ha":904,"x_min":90,"x_max":857,"o":"m 499 -10 q 323 22 399 -10 q 197 111 247 54 q 121 244 146 168 q 96 407 96 319 q 105 519 96 460 q 131 638 114 578 q 171 751 149 697 q 224 833 190 803 q 303 864 258 864 q 344 856 328 864 q 368 830 361 847 q 368 786 375 813 q 331 683 351 743 q 295 553 310 624 q 279 407 281 482 q 306 284 279 338 q 381 200 332 231 q 497 169 431 169 q 606 178 561 169 q 683 197 651 186 q 738 215 715 207 q 776 222 760 222 q 827 205 811 222 q 843 156 843 188 q 803 71 843 108 q 687 12 764 33 q 499 -10 610 -10 m 254 357 q 206 361 224 350 q 181 394 188 372 q 174 442 174 417 q 199 501 174 475 q 265 536 224 526 q 349 551 304 544 q 442 564 393 558 q 544 574 492 569 q 651 581 597 578 q 727 562 706 581 q 749 513 749 543 q 714 435 749 461 q 628 407 679 410 q 516 398 569 403 q 416 387 463 393 q 329 373 369 381 q 254 357 289 365 m 214 764 q 122 791 153 764 q 90 856 90 818 q 101 896 90 876 q 149 925 113 915 q 342 959 239 946 q 542 979 446 972 q 706 986 638 986 q 813 962 781 986 q 844 894 844 938 q 824 835 844 860 q 758 811 803 811 q 573 804 658 811 q 419 788 488 797 q 298 771 350 778 q 214 764 246 764 m 358 1010 q 315 1022 335 1010 q 282 1050 294 1033 q 269 1083 269 1067 q 275 1109 269 1096 q 304 1144 281 1122 q 378 1208 328 1167 q 442 1259 418 1240 q 488 1286 467 1278 q 539 1294 508 1294 q 597 1279 572 1294 q 647 1229 621 1264 q 701 1169 675 1190 q 746 1133 726 1147 q 776 1106 765 1119 q 788 1072 788 1093 q 766 1034 788 1049 q 706 1019 744 1019 q 642 1031 674 1019 q 575 1074 611 1043 q 492 1167 539 1106 l 558 1165 q 471 1078 504 1110 q 417 1032 438 1046 q 383 1014 396 1018 q 358 1010 371 1010 m 779 1249 q 706 1267 743 1249 q 637 1316 668 1286 q 586 1381 606 1346 q 567 1450 567 1417 q 589 1515 567 1490 q 658 1539 611 1539 q 713 1523 692 1539 q 751 1463 735 1507 q 782 1405 764 1425 q 817 1372 800 1385 q 846 1345 835 1358 q 857 1311 857 1332 q 838 1266 857 1283 q 779 1249 819 1249 z "},"Ể":{"ha":904,"x_min":90,"x_max":942,"o":"m 499 -10 q 323 22 399 -10 q 197 111 247 54 q 121 244 146 168 q 96 407 96 319 q 105 519 96 460 q 131 638 114 578 q 171 751 149 697 q 224 833 190 803 q 303 864 258 864 q 344 856 328 864 q 368 830 361 847 q 368 786 375 813 q 331 683 351 743 q 295 553 310 624 q 279 407 281 482 q 306 284 279 338 q 381 200 332 231 q 497 169 431 169 q 606 178 561 169 q 683 197 651 186 q 738 215 715 207 q 776 222 760 222 q 827 205 811 222 q 843 156 843 188 q 803 71 843 108 q 687 12 764 33 q 499 -10 610 -10 m 254 357 q 206 361 224 350 q 181 394 188 372 q 174 442 174 417 q 199 501 174 475 q 265 536 224 526 q 349 551 304 544 q 442 564 393 558 q 544 574 492 569 q 651 581 597 578 q 727 562 706 581 q 749 513 749 543 q 714 435 749 461 q 628 407 679 410 q 516 398 569 403 q 416 387 463 393 q 329 373 369 381 q 254 357 289 365 m 214 764 q 122 791 153 764 q 90 856 90 818 q 101 896 90 876 q 149 925 113 915 q 342 959 239 946 q 542 979 446 972 q 706 986 638 986 q 813 962 781 986 q 844 894 844 938 q 824 835 844 860 q 758 811 803 811 q 573 804 658 811 q 419 788 488 797 q 298 771 350 778 q 214 764 246 764 m 358 1010 q 315 1022 335 1010 q 282 1050 294 1033 q 269 1083 269 1067 q 275 1109 269 1096 q 304 1144 281 1122 q 378 1208 328 1167 q 442 1259 418 1240 q 488 1286 467 1278 q 539 1294 508 1294 q 597 1279 572 1294 q 647 1229 621 1264 q 701 1169 675 1190 q 746 1133 726 1147 q 776 1106 765 1119 q 788 1072 788 1093 q 766 1034 788 1049 q 706 1019 744 1019 q 642 1031 674 1019 q 575 1074 611 1043 q 492 1167 539 1106 l 558 1165 q 471 1078 504 1110 q 417 1032 438 1046 q 383 1014 396 1018 q 358 1010 371 1010 m 764 1208 q 719 1221 732 1208 q 706 1253 706 1233 q 717 1281 706 1272 q 744 1296 729 1289 q 772 1313 760 1303 q 783 1340 783 1322 q 744 1375 783 1375 q 706 1369 722 1375 q 672 1363 690 1363 q 625 1378 642 1363 q 608 1424 608 1394 q 651 1495 608 1467 q 774 1524 694 1524 q 898 1480 854 1524 q 942 1361 942 1436 q 918 1285 942 1319 q 854 1229 894 1250 q 764 1208 814 1208 z "},"Ễ":{"ha":904,"x_min":90,"x_max":844,"o":"m 499 -10 q 323 22 399 -10 q 197 111 247 54 q 121 244 146 168 q 96 407 96 319 q 105 519 96 460 q 131 638 114 578 q 171 751 149 697 q 224 833 190 803 q 303 864 258 864 q 344 856 328 864 q 368 830 361 847 q 368 786 375 813 q 331 683 351 743 q 295 553 310 624 q 279 407 281 482 q 306 284 279 338 q 381 200 332 231 q 497 169 431 169 q 606 178 561 169 q 683 197 651 186 q 738 215 715 207 q 776 222 760 222 q 827 205 811 222 q 843 156 843 188 q 803 71 843 108 q 687 12 764 33 q 499 -10 610 -10 m 254 357 q 206 361 224 350 q 181 394 188 372 q 174 442 174 417 q 199 501 174 475 q 265 536 224 526 q 349 551 304 544 q 442 564 393 558 q 544 574 492 569 q 651 581 597 578 q 727 562 706 581 q 749 513 749 543 q 714 435 749 461 q 628 407 679 410 q 516 398 569 403 q 416 387 463 393 q 329 373 369 381 q 254 357 289 365 m 214 764 q 122 791 153 764 q 90 856 90 818 q 101 896 90 876 q 149 925 113 915 q 342 959 239 946 q 542 979 446 972 q 706 986 638 986 q 813 962 781 986 q 844 894 844 938 q 824 835 844 860 q 758 811 803 811 q 573 804 658 811 q 419 788 488 797 q 298 771 350 778 q 214 764 246 764 m 357 1010 q 314 1022 335 1010 q 281 1050 293 1033 q 269 1083 269 1067 q 275 1109 269 1096 q 304 1144 281 1122 q 378 1208 328 1167 q 442 1259 418 1240 q 488 1286 467 1278 q 539 1294 510 1294 q 597 1279 572 1294 q 646 1229 622 1264 q 701 1169 675 1190 q 746 1133 726 1147 q 776 1106 765 1119 q 788 1072 788 1093 q 766 1034 788 1049 q 706 1019 744 1019 q 642 1031 674 1019 q 574 1075 611 1043 q 490 1167 538 1107 l 558 1165 q 471 1078 504 1110 q 417 1032 438 1046 q 383 1014 396 1018 q 357 1010 371 1010 m 360 1321 q 302 1349 324 1321 q 281 1415 281 1376 q 296 1481 281 1449 q 345 1533 311 1513 q 433 1553 379 1553 q 500 1540 472 1553 q 548 1513 528 1528 q 585 1485 568 1497 q 621 1474 603 1474 q 660 1485 647 1474 q 681 1510 674 1496 q 700 1535 689 1524 q 732 1546 711 1546 q 778 1526 761 1546 q 796 1461 796 1507 q 753 1359 796 1399 q 636 1319 710 1319 q 583 1330 606 1319 q 542 1354 560 1340 q 506 1378 524 1368 q 468 1389 489 1389 q 431 1378 442 1389 q 412 1355 419 1368 q 394 1331 404 1342 q 360 1321 383 1321 z "},"Ệ":{"ha":904,"x_min":90,"x_max":844,"o":"m 499 -10 q 323 22 399 -10 q 197 111 247 54 q 121 244 146 168 q 96 407 96 319 q 105 519 96 460 q 131 638 114 578 q 171 751 149 697 q 224 833 190 803 q 303 864 258 864 q 344 856 328 864 q 368 830 361 847 q 368 786 375 813 q 331 683 351 743 q 295 553 310 624 q 279 407 281 482 q 306 284 279 338 q 381 200 332 231 q 497 169 431 169 q 606 178 561 169 q 683 197 651 186 q 738 215 715 207 q 776 222 760 222 q 827 205 811 222 q 843 156 843 188 q 803 71 843 108 q 687 12 764 33 q 499 -10 610 -10 m 254 357 q 206 361 224 350 q 181 394 188 372 q 174 442 174 417 q 199 501 174 475 q 265 536 224 526 q 349 551 304 544 q 442 564 393 558 q 544 574 492 569 q 651 581 597 578 q 727 562 706 581 q 749 513 749 543 q 714 435 749 461 q 628 407 679 410 q 516 398 569 403 q 416 387 463 393 q 329 373 369 381 q 254 357 289 365 m 214 764 q 122 791 153 764 q 90 856 90 818 q 101 896 90 876 q 149 925 113 915 q 342 959 239 946 q 542 979 446 972 q 706 986 638 986 q 813 962 781 986 q 844 894 844 938 q 824 835 844 860 q 758 811 803 811 q 573 804 658 811 q 419 788 488 797 q 298 771 350 778 q 214 764 246 764 m 346 1058 q 301 1070 322 1058 q 267 1100 281 1082 q 254 1136 254 1118 q 261 1162 254 1149 q 293 1200 268 1175 q 374 1271 318 1225 q 440 1323 415 1303 q 486 1351 464 1343 q 540 1360 508 1360 q 599 1344 574 1360 q 651 1292 625 1328 q 710 1224 683 1249 q 758 1185 738 1200 q 792 1156 779 1169 q 804 1118 804 1142 q 781 1077 804 1092 q 717 1063 758 1063 q 651 1076 683 1063 q 580 1124 618 1089 q 489 1225 542 1160 l 560 1225 q 467 1131 503 1165 q 409 1082 431 1097 q 374 1063 388 1067 q 346 1058 360 1058 m 539 -362 q 426 -326 469 -362 q 382 -239 382 -290 q 419 -157 382 -187 q 515 -126 457 -126 q 594 -147 561 -126 q 643 -197 626 -167 q 660 -258 660 -228 q 632 -329 660 -296 q 539 -362 604 -362 z "},"F":{"ha":806,"x_min":38,"x_max":753,"o":"m 321 -17 q 256 4 290 -17 q 186 81 221 25 q 150 160 165 115 q 126 265 135 204 q 118 408 118 325 q 122 523 118 468 q 135 629 126 578 q 153 726 143 681 q 196 822 167 792 q 271 853 225 853 q 324 828 310 853 q 336 774 338 804 q 326 704 332 744 q 315 614 321 664 q 304 503 308 564 q 300 375 300 443 q 310 264 301 310 q 333 188 319 218 q 358 135 346 157 q 379 93 371 113 q 388 50 388 74 q 371 3 388 22 q 321 -17 354 -17 m 272 319 q 203 319 229 310 q 165 348 176 328 q 154 389 154 368 q 167 438 154 415 q 201 477 179 461 q 250 500 222 493 q 366 519 303 510 q 497 533 429 528 q 629 539 564 539 q 702 522 682 539 q 722 468 722 504 q 684 391 722 417 q 586 361 646 365 q 465 350 524 357 q 358 335 407 343 q 272 319 308 328 m 169 750 q 94 765 124 750 q 51 803 64 779 q 38 851 38 826 q 52 896 38 878 q 99 922 67 914 q 256 954 169 940 q 434 976 343 968 q 608 985 525 985 q 681 970 649 985 q 733 931 714 956 q 753 874 753 906 q 733 824 753 842 q 663 806 713 806 q 427 792 526 806 q 263 764 328 778 q 169 750 199 750 z "},"G":{"ha":1092,"x_min":68,"x_max":1065,"o":"m 960 -153 q 889 -131 917 -153 q 835 -64 861 -108 q 804 6 819 -36 q 776 112 789 49 q 757 265 764 175 l 814 244 q 686 91 754 147 q 544 10 618 35 q 396 -14 471 -14 q 260 9 321 -14 q 157 76 200 32 q 91 183 114 119 q 68 329 68 247 q 103 526 68 431 q 200 705 139 622 q 342 850 261 788 q 513 948 422 913 q 699 983 604 983 q 790 967 756 983 q 841 923 825 951 q 857 858 857 894 q 842 778 857 814 q 799 719 826 742 q 736 697 772 697 q 709 706 717 697 q 699 728 701 715 q 695 755 697 742 q 684 776 693 768 q 651 785 675 785 q 538 759 594 785 q 432 688 482 733 q 344 585 382 642 q 285 465 307 528 q 263 343 263 403 q 301 210 263 254 q 408 165 340 165 q 536 192 475 165 q 651 270 597 218 q 747 399 704 322 q 798 448 769 435 q 868 461 826 461 q 915 448 900 461 q 929 406 929 435 q 937 243 929 311 q 959 122 944 175 q 996 21 974 69 q 1017 -27 1010 -8 q 1026 -58 1024 -46 q 1029 -86 1029 -71 q 1010 -135 1029 -118 q 960 -153 990 -153 m 553 357 q 485 382 513 357 q 458 446 458 407 q 477 492 458 474 q 549 525 496 511 q 733 564 638 550 q 936 578 828 578 q 1018 569 990 578 q 1056 542 1046 560 q 1065 500 1065 525 q 1042 433 1065 463 q 964 403 1018 403 q 810 396 876 403 q 697 380 744 389 q 615 364 650 371 q 553 357 581 357 z "},"Ĝ":{"ha":1092,"x_min":68,"x_max":1065,"o":"m 960 -153 q 889 -131 917 -153 q 835 -64 861 -108 q 804 6 819 -36 q 776 112 789 49 q 757 265 764 175 l 814 244 q 686 91 754 147 q 544 10 618 35 q 396 -14 471 -14 q 260 9 321 -14 q 157 76 200 32 q 91 183 114 119 q 68 329 68 247 q 103 526 68 431 q 200 705 139 622 q 342 850 261 788 q 513 948 422 913 q 699 983 604 983 q 790 967 756 983 q 841 923 825 951 q 857 858 857 894 q 842 778 857 814 q 799 719 826 742 q 736 697 772 697 q 709 706 717 697 q 699 728 701 715 q 695 755 697 742 q 684 776 693 768 q 651 785 675 785 q 538 759 594 785 q 432 688 482 733 q 344 585 382 642 q 285 465 307 528 q 263 343 263 403 q 301 210 263 254 q 408 165 340 165 q 536 192 475 165 q 651 270 597 218 q 747 399 704 322 q 798 448 769 435 q 868 461 826 461 q 915 448 900 461 q 929 406 929 435 q 937 243 929 311 q 959 122 944 175 q 996 21 974 69 q 1017 -27 1010 -8 q 1026 -58 1024 -46 q 1029 -86 1029 -71 q 1010 -135 1029 -118 q 960 -153 990 -153 m 553 357 q 485 382 513 357 q 458 446 458 407 q 477 492 458 474 q 549 525 496 511 q 733 564 638 550 q 936 578 828 578 q 1018 569 990 578 q 1056 542 1046 560 q 1065 500 1065 525 q 1042 433 1065 463 q 964 403 1018 403 q 810 396 876 403 q 697 380 744 389 q 615 364 650 371 q 553 357 581 357 m 429 1058 q 385 1070 406 1058 q 351 1100 364 1082 q 338 1136 338 1118 q 344 1162 338 1149 q 376 1200 351 1175 q 457 1271 401 1225 q 523 1323 499 1303 q 569 1351 547 1343 q 624 1360 592 1360 q 683 1344 657 1360 q 735 1292 708 1328 q 794 1224 767 1249 q 842 1185 821 1200 q 875 1156 863 1169 q 888 1118 888 1142 q 865 1077 888 1092 q 800 1063 842 1063 q 734 1076 767 1063 q 663 1124 701 1089 q 572 1225 625 1160 l 643 1225 q 550 1131 586 1165 q 492 1082 514 1097 q 457 1063 471 1067 q 429 1058 443 1058 z "},"Ğ":{"ha":1092,"x_min":68,"x_max":1065,"o":"m 960 -153 q 889 -131 917 -153 q 835 -64 861 -108 q 804 6 819 -36 q 776 112 789 49 q 757 265 764 175 l 814 244 q 686 91 754 147 q 544 10 618 35 q 396 -14 471 -14 q 260 9 321 -14 q 157 76 200 32 q 91 183 114 119 q 68 329 68 247 q 103 526 68 431 q 200 705 139 622 q 342 850 261 788 q 513 948 422 913 q 699 983 604 983 q 790 967 756 983 q 841 923 825 951 q 857 858 857 894 q 842 778 857 814 q 799 719 826 742 q 736 697 772 697 q 709 706 717 697 q 699 728 701 715 q 695 755 697 742 q 684 776 693 768 q 651 785 675 785 q 538 759 594 785 q 432 688 482 733 q 344 585 382 642 q 285 465 307 528 q 263 343 263 403 q 301 210 263 254 q 408 165 340 165 q 536 192 475 165 q 651 270 597 218 q 747 399 704 322 q 798 448 769 435 q 868 461 826 461 q 915 448 900 461 q 929 406 929 435 q 937 243 929 311 q 959 122 944 175 q 996 21 974 69 q 1017 -27 1010 -8 q 1026 -58 1024 -46 q 1029 -86 1029 -71 q 1010 -135 1029 -118 q 960 -153 990 -153 m 553 357 q 485 382 513 357 q 458 446 458 407 q 477 492 458 474 q 549 525 496 511 q 733 564 638 550 q 936 578 828 578 q 1018 569 990 578 q 1056 542 1046 560 q 1065 500 1065 525 q 1042 433 1065 463 q 964 403 1018 403 q 810 396 876 403 q 697 380 744 389 q 615 364 650 371 q 553 357 581 357 m 599 1067 q 463 1094 521 1067 q 373 1165 406 1121 q 340 1261 340 1210 q 365 1331 340 1308 q 426 1353 389 1353 q 471 1339 454 1353 q 499 1293 488 1325 q 536 1241 510 1260 q 608 1222 563 1222 q 688 1240 660 1222 q 726 1292 715 1258 q 753 1344 738 1328 q 796 1360 768 1360 q 855 1337 835 1360 q 875 1271 875 1314 q 843 1169 875 1215 q 749 1094 811 1122 q 599 1067 688 1067 z "},"Ġ":{"ha":1092,"x_min":68,"x_max":1065,"o":"m 960 -153 q 889 -131 917 -153 q 835 -64 861 -108 q 804 6 819 -36 q 776 112 789 49 q 757 265 764 175 l 814 244 q 686 91 754 147 q 544 10 618 35 q 396 -14 471 -14 q 260 9 321 -14 q 157 76 200 32 q 91 183 114 119 q 68 329 68 247 q 103 526 68 431 q 200 705 139 622 q 342 850 261 788 q 513 948 422 913 q 699 983 604 983 q 790 967 756 983 q 841 923 825 951 q 857 858 857 894 q 842 778 857 814 q 799 719 826 742 q 736 697 772 697 q 709 706 717 697 q 699 728 701 715 q 695 755 697 742 q 684 776 693 768 q 651 785 675 785 q 538 759 594 785 q 432 688 482 733 q 344 585 382 642 q 285 465 307 528 q 263 343 263 403 q 301 210 263 254 q 408 165 340 165 q 536 192 475 165 q 651 270 597 218 q 747 399 704 322 q 798 448 769 435 q 868 461 826 461 q 915 448 900 461 q 929 406 929 435 q 937 243 929 311 q 959 122 944 175 q 996 21 974 69 q 1017 -27 1010 -8 q 1026 -58 1024 -46 q 1029 -86 1029 -71 q 1010 -135 1029 -118 q 960 -153 990 -153 m 553 357 q 485 382 513 357 q 458 446 458 407 q 477 492 458 474 q 549 525 496 511 q 733 564 638 550 q 936 578 828 578 q 1018 569 990 578 q 1056 542 1046 560 q 1065 500 1065 525 q 1042 433 1065 463 q 964 403 1018 403 q 810 396 876 403 q 697 380 744 389 q 615 364 650 371 q 553 357 581 357 m 621 1078 q 515 1113 556 1078 q 475 1197 475 1147 q 510 1276 475 1247 q 599 1304 544 1304 q 672 1285 642 1304 q 717 1237 701 1265 q 732 1178 732 1208 q 706 1110 732 1143 q 621 1078 681 1078 z "},"Ģ":{"ha":1092,"x_min":68,"x_max":1065,"o":"m 960 -153 q 889 -131 917 -153 q 835 -64 861 -108 q 804 6 819 -36 q 776 112 789 49 q 757 265 764 175 l 814 244 q 686 91 754 147 q 544 10 618 35 q 396 -14 471 -14 q 260 9 321 -14 q 157 76 200 32 q 91 183 114 119 q 68 329 68 247 q 103 526 68 431 q 200 705 139 622 q 342 850 261 788 q 513 948 422 913 q 699 983 604 983 q 790 967 756 983 q 841 923 825 951 q 857 858 857 894 q 842 778 857 814 q 799 719 826 742 q 736 697 772 697 q 709 706 717 697 q 699 728 701 715 q 695 755 697 742 q 684 776 693 768 q 651 785 675 785 q 538 759 594 785 q 432 688 482 733 q 344 585 382 642 q 285 465 307 528 q 263 343 263 403 q 301 210 263 254 q 408 165 340 165 q 536 192 475 165 q 651 270 597 218 q 747 399 704 322 q 798 448 769 435 q 868 461 826 461 q 915 448 900 461 q 929 406 929 435 q 937 243 929 311 q 959 122 944 175 q 996 21 974 69 q 1017 -27 1010 -8 q 1026 -58 1024 -46 q 1029 -86 1029 -71 q 1010 -135 1029 -118 q 960 -153 990 -153 m 553 357 q 485 382 513 357 q 458 446 458 407 q 477 492 458 474 q 549 525 496 511 q 733 564 638 550 q 936 578 828 578 q 1018 569 990 578 q 1056 542 1046 560 q 1065 500 1065 525 q 1042 433 1065 463 q 964 403 1018 403 q 810 396 876 403 q 697 380 744 389 q 615 364 650 371 q 553 357 581 357 m 447 -500 q 385 -453 385 -500 q 389 -422 385 -437 q 407 -376 393 -406 q 428 -316 422 -343 q 433 -266 433 -289 q 433 -221 433 -243 q 453 -160 433 -183 q 514 -137 472 -137 q 601 -166 568 -137 q 633 -246 633 -194 q 615 -349 633 -296 q 557 -447 597 -403 q 506 -487 532 -475 q 447 -500 479 -500 z "},"Ǧ":{"ha":1092,"x_min":68,"x_max":1065,"o":"m 960 -153 q 889 -131 917 -153 q 835 -64 861 -108 q 804 6 819 -36 q 776 112 789 49 q 757 265 764 175 l 814 244 q 686 91 754 147 q 544 10 618 35 q 396 -14 471 -14 q 260 9 321 -14 q 157 76 200 32 q 91 183 114 119 q 68 329 68 247 q 103 526 68 431 q 200 705 139 622 q 342 850 261 788 q 513 948 422 913 q 699 983 604 983 q 790 967 756 983 q 841 923 825 951 q 857 858 857 894 q 842 778 857 814 q 799 719 826 742 q 736 697 772 697 q 709 706 717 697 q 699 728 701 715 q 695 755 697 742 q 684 776 693 768 q 651 785 675 785 q 538 759 594 785 q 432 688 482 733 q 344 585 382 642 q 285 465 307 528 q 263 343 263 403 q 301 210 263 254 q 408 165 340 165 q 536 192 475 165 q 651 270 597 218 q 747 399 704 322 q 798 448 769 435 q 868 461 826 461 q 915 448 900 461 q 929 406 929 435 q 937 243 929 311 q 959 122 944 175 q 996 21 974 69 q 1017 -27 1010 -8 q 1026 -58 1024 -46 q 1029 -86 1029 -71 q 1010 -135 1029 -118 q 960 -153 990 -153 m 553 357 q 485 382 513 357 q 458 446 458 407 q 477 492 458 474 q 549 525 496 511 q 733 564 638 550 q 936 578 828 578 q 1018 569 990 578 q 1056 542 1046 560 q 1065 500 1065 525 q 1042 433 1065 463 q 964 403 1018 403 q 810 396 876 403 q 697 380 744 389 q 615 364 650 371 q 553 357 581 357 m 788 1385 q 832 1373 811 1385 q 866 1344 853 1361 q 879 1308 879 1326 q 872 1282 879 1296 q 840 1243 865 1268 q 760 1172 815 1218 q 694 1121 719 1140 q 647 1092 669 1101 q 593 1083 625 1083 q 534 1099 560 1083 q 482 1153 508 1115 q 423 1219 450 1194 q 375 1258 396 1243 q 342 1288 354 1274 q 329 1326 329 1303 q 353 1366 329 1351 q 417 1381 376 1381 q 484 1368 451 1381 q 555 1320 517 1356 q 644 1218 593 1285 l 574 1219 q 667 1313 632 1279 q 724 1362 703 1346 q 760 1381 746 1378 q 788 1385 774 1385 z "},"H":{"ha":1004,"x_min":58,"x_max":943,"o":"m 821 -14 q 737 24 769 -14 q 690 142 704 61 q 675 356 675 224 q 678 574 675 476 q 683 749 681 672 q 686 882 686 825 q 706 953 686 929 q 765 978 726 978 q 844 934 817 978 q 871 803 871 890 q 869 636 871 724 q 865 467 867 549 q 863 324 863 386 q 868 232 863 272 q 879 154 874 192 q 889 72 885 117 q 872 9 892 32 q 821 -14 853 -14 m 250 -17 q 166 21 200 -17 q 135 140 132 58 q 137 281 136 207 q 136 435 138 356 q 134 594 135 515 q 132 747 133 672 q 131 885 131 821 q 151 958 131 931 q 217 985 172 985 q 294 946 264 985 q 325 822 325 907 q 325 610 325 715 q 326 406 325 504 q 326 222 326 308 q 326 67 326 136 q 306 5 326 26 q 250 -17 285 -17 m 222 368 q 124 383 160 368 q 73 420 88 397 q 58 468 58 443 q 67 504 58 489 q 104 525 76 519 q 328 563 217 550 q 550 578 439 575 q 774 582 661 582 q 867 567 829 582 q 924 528 904 553 q 943 476 943 504 q 926 429 943 447 q 878 411 908 411 q 614 405 724 411 q 430 390 504 399 q 306 375 356 382 q 222 368 257 368 z "},"Ĥ":{"ha":1004,"x_min":58,"x_max":943,"o":"m 821 -14 q 737 24 769 -14 q 690 142 704 61 q 675 356 675 224 q 678 574 675 476 q 683 749 681 672 q 686 882 686 825 q 706 953 686 929 q 765 978 726 978 q 844 934 817 978 q 871 803 871 890 q 869 636 871 724 q 865 467 867 549 q 863 324 863 386 q 868 232 863 272 q 879 154 874 192 q 889 72 885 117 q 872 9 892 32 q 821 -14 853 -14 m 250 -17 q 166 21 200 -17 q 135 140 132 58 q 137 281 136 207 q 136 435 138 356 q 134 594 135 515 q 132 747 133 672 q 131 885 131 821 q 151 958 131 931 q 217 985 172 985 q 294 946 264 985 q 325 822 325 907 q 325 610 325 715 q 326 406 325 504 q 326 222 326 308 q 326 67 326 136 q 306 5 326 26 q 250 -17 285 -17 m 222 368 q 124 383 160 368 q 73 420 88 397 q 58 468 58 443 q 67 504 58 489 q 104 525 76 519 q 328 563 217 550 q 550 578 439 575 q 774 582 661 582 q 867 567 829 582 q 924 528 904 553 q 943 476 943 504 q 926 429 943 447 q 878 411 908 411 q 614 405 724 411 q 430 390 504 399 q 306 375 356 382 q 222 368 257 368 m 321 1058 q 276 1070 297 1058 q 242 1100 256 1082 q 229 1136 229 1118 q 236 1162 229 1149 q 268 1200 243 1175 q 349 1271 293 1225 q 415 1323 390 1303 q 461 1351 439 1343 q 515 1360 483 1360 q 574 1344 549 1360 q 626 1292 600 1328 q 685 1224 658 1249 q 733 1185 713 1200 q 767 1156 754 1169 q 779 1118 779 1142 q 756 1077 779 1092 q 692 1063 733 1063 q 626 1076 658 1063 q 555 1124 593 1089 q 464 1225 517 1160 l 535 1225 q 442 1131 478 1165 q 384 1082 406 1097 q 349 1063 363 1067 q 321 1058 335 1058 z "},"I":{"ha":775,"x_min":40,"x_max":733,"o":"m 149 774 q 67 800 92 774 q 42 864 42 826 q 65 920 42 897 q 132 949 88 943 q 290 967 207 960 q 456 979 374 975 q 610 983 539 983 q 705 967 676 983 q 733 908 733 950 q 687 828 733 858 q 565 797 640 797 q 433 795 489 797 q 335 790 376 793 q 260 783 293 786 q 201 776 228 779 q 149 774 175 774 m 406 122 q 322 151 354 122 q 290 229 290 181 q 297 425 290 329 q 308 608 303 521 q 313 767 313 696 q 328 835 313 813 q 382 857 343 857 q 462 824 428 857 q 496 743 496 790 q 490 610 496 692 q 478 424 485 529 q 472 196 472 319 q 406 122 472 122 m 193 -15 q 76 13 113 -15 q 40 85 40 40 q 58 131 40 113 q 111 154 75 150 q 218 164 169 160 q 312 170 267 168 q 402 173 357 172 q 497 174 447 174 q 604 174 546 174 q 685 164 657 174 q 723 137 713 154 q 733 99 733 119 q 698 29 733 58 q 583 0 663 0 q 417 -3 493 0 q 283 -11 340 -7 q 193 -15 226 -15 z "},"Ì":{"ha":775,"x_min":40,"x_max":733,"o":"m 149 774 q 67 800 92 774 q 42 864 42 826 q 65 920 42 897 q 132 949 88 943 q 290 967 207 960 q 456 979 374 975 q 610 983 539 983 q 705 967 676 983 q 733 908 733 950 q 687 828 733 858 q 565 797 640 797 q 433 795 489 797 q 335 790 376 793 q 260 783 293 786 q 201 776 228 779 q 149 774 175 774 m 406 122 q 322 151 354 122 q 290 229 290 181 q 297 425 290 329 q 308 608 303 521 q 313 767 313 696 q 328 835 313 813 q 382 857 343 857 q 462 824 428 857 q 496 743 496 790 q 490 610 496 692 q 478 424 485 529 q 472 196 472 319 q 406 122 472 122 m 193 -15 q 76 13 113 -15 q 40 85 40 40 q 58 131 40 113 q 111 154 75 150 q 218 164 169 160 q 312 170 267 168 q 402 173 357 172 q 497 174 447 174 q 604 174 546 174 q 685 164 657 174 q 723 137 713 154 q 733 99 733 119 q 698 29 733 58 q 583 0 663 0 q 417 -3 493 0 q 283 -11 340 -7 q 193 -15 226 -15 m 394 1075 q 315 1094 356 1075 q 240 1147 274 1114 q 186 1217 207 1179 q 165 1293 165 1256 q 189 1363 165 1336 q 264 1389 213 1389 q 322 1372 299 1389 q 364 1307 346 1354 q 397 1244 378 1267 q 435 1208 417 1222 q 465 1180 453 1194 q 478 1142 478 1165 q 458 1093 478 1111 q 394 1075 438 1075 z "},"Í":{"ha":775,"x_min":40,"x_max":733,"o":"m 149 774 q 67 800 92 774 q 42 864 42 826 q 65 920 42 897 q 132 949 88 943 q 290 967 207 960 q 456 979 374 975 q 610 983 539 983 q 705 967 676 983 q 733 908 733 950 q 687 828 733 858 q 565 797 640 797 q 433 795 489 797 q 335 790 376 793 q 260 783 293 786 q 201 776 228 779 q 149 774 175 774 m 406 122 q 322 151 354 122 q 290 229 290 181 q 297 425 290 329 q 308 608 303 521 q 313 767 313 696 q 328 835 313 813 q 382 857 343 857 q 462 824 428 857 q 496 743 496 790 q 490 610 496 692 q 478 424 485 529 q 472 196 472 319 q 406 122 472 122 m 193 -15 q 76 13 113 -15 q 40 85 40 40 q 58 131 40 113 q 111 154 75 150 q 218 164 169 160 q 312 170 267 168 q 402 173 357 172 q 497 174 447 174 q 604 174 546 174 q 685 164 657 174 q 723 137 713 154 q 733 99 733 119 q 698 29 733 58 q 583 0 663 0 q 417 -3 493 0 q 283 -11 340 -7 q 193 -15 226 -15 m 378 1068 q 321 1084 340 1068 q 301 1125 301 1100 q 314 1164 301 1147 q 350 1201 326 1181 q 398 1257 383 1231 q 425 1324 413 1283 q 463 1383 440 1368 q 518 1399 486 1399 q 589 1375 565 1399 q 613 1304 613 1351 q 578 1188 613 1242 q 489 1101 543 1135 q 378 1068 435 1068 z "},"Î":{"ha":775,"x_min":40,"x_max":733,"o":"m 149 774 q 67 800 92 774 q 42 864 42 826 q 65 920 42 897 q 132 949 88 943 q 290 967 207 960 q 456 979 374 975 q 610 983 539 983 q 705 967 676 983 q 733 908 733 950 q 687 828 733 858 q 565 797 640 797 q 433 795 489 797 q 335 790 376 793 q 260 783 293 786 q 201 776 228 779 q 149 774 175 774 m 406 122 q 322 151 354 122 q 290 229 290 181 q 297 425 290 329 q 308 608 303 521 q 313 767 313 696 q 328 835 313 813 q 382 857 343 857 q 462 824 428 857 q 496 743 496 790 q 490 610 496 692 q 478 424 485 529 q 472 196 472 319 q 406 122 472 122 m 193 -15 q 76 13 113 -15 q 40 85 40 40 q 58 131 40 113 q 111 154 75 150 q 218 164 169 160 q 312 170 267 168 q 402 173 357 172 q 497 174 447 174 q 604 174 546 174 q 685 164 657 174 q 723 137 713 154 q 733 99 733 119 q 698 29 733 58 q 583 0 663 0 q 417 -3 493 0 q 283 -11 340 -7 q 193 -15 226 -15 m 218 1058 q 174 1070 194 1058 q 140 1100 153 1082 q 126 1136 126 1118 q 133 1162 126 1149 q 165 1200 140 1175 q 246 1271 190 1225 q 312 1323 288 1303 q 358 1351 336 1343 q 413 1360 381 1360 q 472 1344 446 1360 q 524 1292 497 1328 q 583 1224 556 1249 q 631 1185 610 1200 q 664 1156 651 1169 q 676 1118 676 1142 q 653 1077 676 1092 q 589 1063 631 1063 q 523 1076 556 1063 q 452 1124 490 1089 q 361 1225 414 1160 l 432 1225 q 339 1131 375 1165 q 281 1082 303 1097 q 246 1063 260 1067 q 218 1058 232 1058 z "},"Ï":{"ha":775,"x_min":40,"x_max":733,"o":"m 149 774 q 67 800 92 774 q 42 864 42 826 q 65 920 42 897 q 132 949 88 943 q 290 967 207 960 q 456 979 374 975 q 610 983 539 983 q 705 967 676 983 q 733 908 733 950 q 687 828 733 858 q 565 797 640 797 q 433 795 489 797 q 335 790 376 793 q 260 783 293 786 q 201 776 228 779 q 149 774 175 774 m 406 122 q 322 151 354 122 q 290 229 290 181 q 297 425 290 329 q 308 608 303 521 q 313 767 313 696 q 328 835 313 813 q 382 857 343 857 q 462 824 428 857 q 496 743 496 790 q 490 610 496 692 q 478 424 485 529 q 472 196 472 319 q 406 122 472 122 m 193 -15 q 76 13 113 -15 q 40 85 40 40 q 58 131 40 113 q 111 154 75 150 q 218 164 169 160 q 312 170 267 168 q 402 173 357 172 q 497 174 447 174 q 604 174 546 174 q 685 164 657 174 q 723 137 713 154 q 733 99 733 119 q 698 29 733 58 q 583 0 663 0 q 417 -3 493 0 q 283 -11 340 -7 q 193 -15 226 -15 m 575 1069 q 485 1109 522 1069 q 447 1207 447 1149 q 479 1281 447 1251 q 556 1310 511 1310 q 626 1287 597 1310 q 672 1231 656 1264 q 688 1167 688 1199 q 662 1101 688 1132 q 575 1069 636 1069 m 240 1063 q 171 1081 201 1063 q 122 1131 140 1100 q 104 1194 104 1161 q 132 1272 104 1243 q 207 1301 160 1301 q 283 1279 251 1301 q 331 1224 314 1257 q 347 1157 347 1190 q 322 1091 347 1119 q 240 1063 297 1063 z "},"Ĩ":{"ha":775,"x_min":40,"x_max":733,"o":"m 149 774 q 67 800 92 774 q 42 864 42 826 q 65 920 42 897 q 132 949 88 943 q 290 967 207 960 q 456 979 374 975 q 610 983 539 983 q 705 967 676 983 q 733 908 733 950 q 687 828 733 858 q 565 797 640 797 q 433 795 489 797 q 335 790 376 793 q 260 783 293 786 q 201 776 228 779 q 149 774 175 774 m 406 122 q 322 151 354 122 q 290 229 290 181 q 297 425 290 329 q 308 608 303 521 q 313 767 313 696 q 328 835 313 813 q 382 857 343 857 q 462 824 428 857 q 496 743 496 790 q 490 610 496 692 q 478 424 485 529 q 472 196 472 319 q 406 122 472 122 m 193 -15 q 76 13 113 -15 q 40 85 40 40 q 58 131 40 113 q 111 154 75 150 q 218 164 169 160 q 312 170 267 168 q 402 173 357 172 q 497 174 447 174 q 604 174 546 174 q 685 164 657 174 q 723 137 713 154 q 733 99 733 119 q 698 29 733 58 q 583 0 663 0 q 417 -3 493 0 q 283 -11 340 -7 q 193 -15 226 -15 m 194 1085 q 131 1115 154 1085 q 107 1189 107 1146 q 124 1266 107 1229 q 178 1326 140 1303 q 276 1350 215 1350 q 354 1335 322 1350 q 410 1301 386 1319 q 453 1267 433 1282 q 494 1251 474 1251 q 531 1260 518 1251 q 553 1283 544 1269 q 569 1311 563 1297 q 588 1334 576 1325 q 618 1343 599 1343 q 669 1322 650 1343 q 688 1250 688 1300 q 640 1129 688 1176 q 513 1082 593 1082 q 450 1095 476 1082 q 401 1126 424 1108 q 359 1156 379 1143 q 314 1169 339 1169 q 273 1157 286 1169 q 252 1127 260 1144 q 232 1097 244 1110 q 194 1085 219 1085 z "},"Ī":{"ha":775,"x_min":40,"x_max":733,"o":"m 149 774 q 67 800 92 774 q 42 864 42 826 q 65 920 42 897 q 132 949 88 943 q 290 967 207 960 q 456 979 374 975 q 610 983 539 983 q 705 967 676 983 q 733 908 733 950 q 687 828 733 858 q 565 797 640 797 q 433 795 489 797 q 335 790 376 793 q 260 783 293 786 q 201 776 228 779 q 149 774 175 774 m 406 122 q 322 151 354 122 q 290 229 290 181 q 297 425 290 329 q 308 608 303 521 q 313 767 313 696 q 328 835 313 813 q 382 857 343 857 q 462 824 428 857 q 496 743 496 790 q 490 610 496 692 q 478 424 485 529 q 472 196 472 319 q 406 122 472 122 m 193 -15 q 76 13 113 -15 q 40 85 40 40 q 58 131 40 113 q 111 154 75 150 q 218 164 169 160 q 312 170 267 168 q 402 173 357 172 q 497 174 447 174 q 604 174 546 174 q 685 164 657 174 q 723 137 713 154 q 733 99 733 119 q 698 29 733 58 q 583 0 663 0 q 417 -3 493 0 q 283 -11 340 -7 q 193 -15 226 -15 m 247 1111 q 155 1144 188 1111 q 122 1213 122 1176 q 136 1255 122 1235 q 199 1281 150 1275 q 309 1293 258 1289 q 410 1299 360 1297 q 515 1301 460 1301 q 617 1283 579 1301 q 670 1238 654 1264 q 686 1192 686 1213 q 668 1144 686 1161 q 617 1126 650 1126 q 428 1123 500 1126 q 315 1115 357 1119 q 247 1111 274 1111 z "},"Ĭ":{"ha":775,"x_min":40,"x_max":733,"o":"m 149 774 q 67 800 92 774 q 42 864 42 826 q 65 920 42 897 q 132 949 88 943 q 290 967 207 960 q 456 979 374 975 q 610 983 539 983 q 705 967 676 983 q 733 908 733 950 q 687 828 733 858 q 565 797 640 797 q 433 795 489 797 q 335 790 376 793 q 260 783 293 786 q 201 776 228 779 q 149 774 175 774 m 406 122 q 322 151 354 122 q 290 229 290 181 q 297 425 290 329 q 308 608 303 521 q 313 767 313 696 q 328 835 313 813 q 382 857 343 857 q 462 824 428 857 q 496 743 496 790 q 490 610 496 692 q 478 424 485 529 q 472 196 472 319 q 406 122 472 122 m 193 -15 q 76 13 113 -15 q 40 85 40 40 q 58 131 40 113 q 111 154 75 150 q 218 164 169 160 q 312 170 267 168 q 402 173 357 172 q 497 174 447 174 q 604 174 546 174 q 685 164 657 174 q 723 137 713 154 q 733 99 733 119 q 698 29 733 58 q 583 0 663 0 q 417 -3 493 0 q 283 -11 340 -7 q 193 -15 226 -15 m 388 1067 q 252 1094 310 1067 q 162 1165 194 1121 q 129 1261 129 1210 q 153 1331 129 1308 q 215 1353 178 1353 q 260 1339 243 1353 q 288 1293 276 1325 q 325 1241 299 1260 q 397 1222 351 1222 q 476 1240 449 1222 q 515 1292 504 1258 q 542 1344 526 1328 q 585 1360 557 1360 q 644 1337 624 1360 q 664 1271 664 1314 q 632 1169 664 1215 q 538 1094 600 1122 q 388 1067 476 1067 z "},"Į":{"ha":775,"x_min":40,"x_max":733,"o":"m 149 774 q 67 800 92 774 q 42 864 42 826 q 65 920 42 897 q 132 949 88 943 q 290 967 207 960 q 456 979 374 975 q 610 983 539 983 q 705 967 676 983 q 733 908 733 950 q 687 828 733 858 q 565 797 640 797 q 433 795 489 797 q 335 790 376 793 q 260 783 293 786 q 201 776 228 779 q 149 774 175 774 m 406 122 q 322 151 354 122 q 290 229 290 181 q 297 425 290 329 q 308 608 303 521 q 313 767 313 696 q 328 835 313 813 q 382 857 343 857 q 462 824 428 857 q 496 743 496 790 q 490 610 496 692 q 478 424 485 529 q 472 196 472 319 q 406 122 472 122 m 193 -15 q 76 13 113 -15 q 40 85 40 40 q 58 131 40 113 q 111 154 75 150 q 218 164 169 160 q 312 170 267 168 q 402 173 357 172 q 497 174 447 174 q 604 174 546 174 q 685 164 657 174 q 723 137 713 154 q 733 99 733 119 q 698 29 733 58 q 583 0 663 0 q 417 -3 493 0 q 283 -11 340 -7 q 193 -15 226 -15 m 599 -343 q 435 -295 492 -343 q 379 -165 379 -247 q 411 -48 379 -101 q 497 38 443 6 q 618 71 551 71 q 648 64 636 71 q 660 42 660 57 q 654 26 660 33 q 631 8 649 19 q 573 -44 592 -14 q 554 -110 554 -74 q 575 -157 554 -140 q 651 -174 596 -174 q 714 -192 697 -174 q 731 -239 731 -211 q 694 -318 731 -293 q 599 -343 657 -343 z "},"İ":{"ha":775,"x_min":40,"x_max":733,"o":"m 149 774 q 67 800 92 774 q 42 864 42 826 q 65 920 42 897 q 132 949 88 943 q 290 967 207 960 q 456 979 374 975 q 610 983 539 983 q 705 967 676 983 q 733 908 733 950 q 687 828 733 858 q 565 797 640 797 q 433 795 489 797 q 335 790 376 793 q 260 783 293 786 q 201 776 228 779 q 149 774 175 774 m 406 122 q 322 151 354 122 q 290 229 290 181 q 297 425 290 329 q 308 608 303 521 q 313 767 313 696 q 328 835 313 813 q 382 857 343 857 q 462 824 428 857 q 496 743 496 790 q 490 610 496 692 q 478 424 485 529 q 472 196 472 319 q 406 122 472 122 m 193 -15 q 76 13 113 -15 q 40 85 40 40 q 58 131 40 113 q 111 154 75 150 q 218 164 169 160 q 312 170 267 168 q 402 173 357 172 q 497 174 447 174 q 604 174 546 174 q 685 164 657 174 q 723 137 713 154 q 733 99 733 119 q 698 29 733 58 q 583 0 663 0 q 417 -3 493 0 q 283 -11 340 -7 q 193 -15 226 -15 m 410 1078 q 304 1113 344 1078 q 264 1197 264 1147 q 299 1276 264 1247 q 388 1304 333 1304 q 460 1285 431 1304 q 506 1237 490 1265 q 521 1178 521 1208 q 495 1110 521 1143 q 410 1078 469 1078 z "},"Ȉ":{"ha":775,"x_min":40,"x_max":733,"o":"m 149 774 q 67 800 92 774 q 42 864 42 826 q 65 920 42 897 q 132 949 88 943 q 290 967 207 960 q 456 979 374 975 q 610 983 539 983 q 705 967 676 983 q 733 908 733 950 q 687 828 733 858 q 565 797 640 797 q 433 795 489 797 q 335 790 376 793 q 260 783 293 786 q 201 776 228 779 q 149 774 175 774 m 406 122 q 322 151 354 122 q 290 229 290 181 q 297 425 290 329 q 308 608 303 521 q 313 767 313 696 q 328 835 313 813 q 382 857 343 857 q 462 824 428 857 q 496 743 496 790 q 490 610 496 692 q 478 424 485 529 q 472 196 472 319 q 406 122 472 122 m 193 -15 q 76 13 113 -15 q 40 85 40 40 q 58 131 40 113 q 111 154 75 150 q 218 164 169 160 q 312 170 267 168 q 402 173 357 172 q 497 174 447 174 q 604 174 546 174 q 685 164 657 174 q 723 137 713 154 q 733 99 733 119 q 698 29 733 58 q 583 0 663 0 q 417 -3 493 0 q 283 -11 340 -7 q 193 -15 226 -15 m 603 1100 q 530 1120 565 1100 q 465 1173 494 1140 q 419 1244 436 1206 q 403 1321 403 1283 q 425 1390 403 1364 q 494 1415 447 1415 q 555 1398 531 1415 q 597 1333 579 1381 q 624 1276 610 1297 q 649 1238 638 1254 q 667 1208 660 1222 q 675 1169 675 1193 q 656 1119 675 1139 q 603 1100 636 1100 m 319 1058 q 247 1078 282 1058 q 183 1131 213 1097 q 137 1203 154 1164 q 119 1278 119 1242 q 142 1347 119 1321 q 217 1372 165 1372 q 274 1354 251 1372 q 317 1285 297 1336 q 343 1224 331 1247 q 367 1186 356 1201 q 385 1158 378 1171 q 392 1125 392 1144 q 373 1076 392 1094 q 319 1058 354 1058 z "},"Ȋ":{"ha":775,"x_min":40,"x_max":733,"o":"m 149 774 q 67 800 92 774 q 42 864 42 826 q 65 920 42 897 q 132 949 88 943 q 290 967 207 960 q 456 979 374 975 q 610 983 539 983 q 705 967 676 983 q 733 908 733 950 q 687 828 733 858 q 565 797 640 797 q 433 795 489 797 q 335 790 376 793 q 260 783 293 786 q 201 776 228 779 q 149 774 175 774 m 406 122 q 322 151 354 122 q 290 229 290 181 q 297 425 290 329 q 308 608 303 521 q 313 767 313 696 q 328 835 313 813 q 382 857 343 857 q 462 824 428 857 q 496 743 496 790 q 490 610 496 692 q 478 424 485 529 q 472 196 472 319 q 406 122 472 122 m 193 -15 q 76 13 113 -15 q 40 85 40 40 q 58 131 40 113 q 111 154 75 150 q 218 164 169 160 q 312 170 267 168 q 402 173 357 172 q 497 174 447 174 q 604 174 546 174 q 685 164 657 174 q 723 137 713 154 q 733 99 733 119 q 698 29 733 58 q 583 0 663 0 q 417 -3 493 0 q 283 -11 340 -7 q 193 -15 226 -15 m 407 1397 q 542 1370 485 1397 q 633 1299 600 1343 q 665 1203 665 1254 q 641 1133 665 1156 q 579 1111 617 1111 q 535 1125 553 1111 q 507 1171 518 1139 q 471 1223 497 1204 q 397 1242 444 1242 q 319 1224 347 1242 q 279 1172 290 1206 q 253 1121 268 1138 q 210 1104 238 1104 q 151 1127 171 1104 q 131 1193 131 1150 q 163 1295 131 1249 q 256 1369 194 1342 q 407 1397 318 1397 z "},"Ỉ":{"ha":775,"x_min":40,"x_max":733,"o":"m 149 774 q 67 800 92 774 q 42 864 42 826 q 65 920 42 897 q 132 949 88 943 q 290 967 207 960 q 456 979 374 975 q 610 983 539 983 q 705 967 676 983 q 733 908 733 950 q 687 828 733 858 q 565 797 640 797 q 433 795 489 797 q 335 790 376 793 q 260 783 293 786 q 201 776 228 779 q 149 774 175 774 m 406 122 q 322 151 354 122 q 290 229 290 181 q 297 425 290 329 q 308 608 303 521 q 313 767 313 696 q 328 835 313 813 q 382 857 343 857 q 462 824 428 857 q 496 743 496 790 q 490 610 496 692 q 478 424 485 529 q 472 196 472 319 q 406 122 472 122 m 193 -15 q 76 13 113 -15 q 40 85 40 40 q 58 131 40 113 q 111 154 75 150 q 218 164 169 160 q 312 170 267 168 q 402 173 357 172 q 497 174 447 174 q 604 174 546 174 q 685 164 657 174 q 723 137 713 154 q 733 99 733 119 q 698 29 733 58 q 583 0 663 0 q 417 -3 493 0 q 283 -11 340 -7 q 193 -15 226 -15 m 400 1044 q 351 1059 365 1044 q 336 1094 336 1074 q 350 1126 336 1115 q 381 1144 364 1138 q 410 1163 397 1151 q 424 1194 424 1174 q 379 1233 424 1233 q 337 1227 356 1233 q 297 1221 318 1221 q 243 1239 263 1221 q 224 1289 224 1257 q 274 1369 224 1338 q 414 1401 324 1401 q 555 1353 506 1401 q 604 1219 604 1304 q 578 1131 604 1171 q 505 1068 551 1092 q 400 1044 458 1044 z "},"Ị":{"ha":775,"x_min":40,"x_max":733,"o":"m 149 774 q 67 800 92 774 q 42 864 42 826 q 65 920 42 897 q 132 949 88 943 q 290 967 207 960 q 456 979 374 975 q 610 983 539 983 q 705 967 676 983 q 733 908 733 950 q 687 828 733 858 q 565 797 640 797 q 433 795 489 797 q 335 790 376 793 q 260 783 293 786 q 201 776 228 779 q 149 774 175 774 m 406 122 q 322 151 354 122 q 290 229 290 181 q 297 425 290 329 q 308 608 303 521 q 313 767 313 696 q 328 835 313 813 q 382 857 343 857 q 462 824 428 857 q 496 743 496 790 q 490 610 496 692 q 478 424 485 529 q 472 196 472 319 q 406 122 472 122 m 193 -15 q 76 13 113 -15 q 40 85 40 40 q 58 131 40 113 q 111 154 75 150 q 218 164 169 160 q 312 170 267 168 q 402 173 357 172 q 497 174 447 174 q 604 174 546 174 q 685 164 657 174 q 723 137 713 154 q 733 99 733 119 q 698 29 733 58 q 583 0 663 0 q 417 -3 493 0 q 283 -11 340 -7 q 193 -15 226 -15 m 414 -362 q 301 -326 344 -362 q 257 -239 257 -290 q 294 -157 257 -187 q 390 -126 332 -126 q 469 -147 436 -126 q 518 -197 501 -167 q 535 -258 535 -228 q 507 -329 535 -296 q 414 -362 479 -362 z "},"J":{"ha":864,"x_min":68,"x_max":817,"o":"m 400 -17 q 227 13 301 -17 q 110 99 153 43 q 68 232 68 154 q 79 299 68 264 q 111 363 90 333 q 163 412 132 393 q 232 431 193 431 q 273 419 260 431 q 286 385 286 407 q 276 347 286 364 q 257 310 267 329 q 247 267 247 290 q 281 193 247 222 q 400 164 315 164 q 544 205 504 164 q 585 333 585 246 q 574 447 585 382 q 547 585 564 513 q 508 725 529 657 q 463 847 486 793 q 464 911 450 883 q 510 939 478 939 q 606 917 571 938 q 661 838 640 896 q 701 715 682 785 q 737 572 721 646 q 762 429 753 497 q 771 308 771 361 q 676 62 771 140 q 400 -17 582 -17 m 263 790 q 203 798 235 790 q 143 822 171 806 q 97 865 115 839 q 79 929 79 892 q 94 974 79 957 q 138 990 110 990 q 188 986 165 990 q 235 977 211 982 q 286 972 258 972 q 398 976 346 972 q 510 985 450 981 q 653 989 571 989 q 729 980 692 989 q 792 948 767 971 q 817 879 817 925 q 731 813 817 813 q 553 807 640 813 q 392 796 467 801 q 263 790 318 790 z "},"Ĵ":{"ha":864,"x_min":68,"x_max":817,"o":"m 400 -17 q 227 13 301 -17 q 110 99 153 43 q 68 232 68 154 q 79 299 68 264 q 111 363 90 333 q 163 412 132 393 q 232 431 193 431 q 273 419 260 431 q 286 385 286 407 q 276 347 286 364 q 257 310 267 329 q 247 267 247 290 q 281 193 247 222 q 400 164 315 164 q 544 205 504 164 q 585 333 585 246 q 574 447 585 382 q 547 585 564 513 q 508 725 529 657 q 463 847 486 793 q 464 911 450 883 q 510 939 478 939 q 606 917 571 938 q 661 838 640 896 q 701 715 682 785 q 737 572 721 646 q 762 429 753 497 q 771 308 771 361 q 676 62 771 140 q 400 -17 582 -17 m 263 790 q 203 798 235 790 q 143 822 171 806 q 97 865 115 839 q 79 929 79 892 q 94 974 79 957 q 138 990 110 990 q 188 986 165 990 q 235 977 211 982 q 286 972 258 972 q 398 976 346 972 q 510 985 450 981 q 653 989 571 989 q 729 980 692 989 q 792 948 767 971 q 817 879 817 925 q 731 813 817 813 q 553 807 640 813 q 392 796 467 801 q 263 790 318 790 m 265 1058 q 221 1070 242 1058 q 187 1100 200 1082 q 174 1136 174 1118 q 181 1162 174 1149 q 213 1200 188 1175 q 293 1271 238 1225 q 359 1323 335 1303 q 406 1351 383 1343 q 460 1360 428 1360 q 519 1344 493 1360 q 571 1292 544 1328 q 630 1224 603 1249 q 678 1185 657 1200 q 711 1156 699 1169 q 724 1118 724 1142 q 701 1077 724 1092 q 636 1063 678 1063 q 570 1076 603 1063 q 499 1124 538 1089 q 408 1225 461 1160 l 479 1225 q 386 1131 422 1165 q 328 1082 350 1097 q 293 1063 307 1067 q 265 1058 279 1058 z "},"K":{"ha":931,"x_min":92,"x_max":917,"o":"m 831 -15 q 728 3 788 -15 q 603 53 668 21 q 477 126 539 85 q 365 216 415 168 q 285 315 315 264 q 256 414 256 367 q 285 550 256 481 q 365 688 315 619 q 480 819 415 757 q 614 931 544 881 q 685 974 656 961 q 742 986 714 986 q 802 965 779 986 q 825 906 825 944 q 801 842 825 871 q 728 779 778 814 q 606 691 661 738 q 512 598 551 644 q 451 511 472 551 q 429 443 429 471 q 460 379 429 417 q 546 301 492 342 q 672 226 600 261 q 822 168 743 190 q 896 130 875 154 q 917 68 917 106 q 897 8 917 31 q 831 -15 878 -15 m 211 -17 q 140 10 165 -17 q 103 97 114 36 q 92 260 92 158 q 100 463 92 368 q 116 633 108 558 q 124 754 124 708 q 120 826 124 799 q 113 874 117 853 q 108 917 108 894 q 126 969 108 951 q 182 988 143 988 q 249 966 224 988 q 286 911 274 944 q 303 839 299 878 q 307 767 307 800 q 299 628 307 707 q 282 462 290 550 q 274 286 274 374 q 276 201 274 235 q 281 145 278 168 q 287 102 285 122 q 289 57 289 82 q 268 3 289 22 q 211 -17 247 -17 z "},"Ķ":{"ha":931,"x_min":92,"x_max":917,"o":"m 831 -15 q 728 3 788 -15 q 603 53 668 21 q 477 126 539 85 q 365 216 415 168 q 285 315 315 264 q 256 414 256 367 q 285 550 256 481 q 365 688 315 619 q 480 819 415 757 q 614 931 544 881 q 685 974 656 961 q 742 986 714 986 q 802 965 779 986 q 825 906 825 944 q 801 842 825 871 q 728 779 778 814 q 606 691 661 738 q 512 598 551 644 q 451 511 472 551 q 429 443 429 471 q 460 379 429 417 q 546 301 492 342 q 672 226 600 261 q 822 168 743 190 q 896 130 875 154 q 917 68 917 106 q 897 8 917 31 q 831 -15 878 -15 m 211 -17 q 140 10 165 -17 q 103 97 114 36 q 92 260 92 158 q 100 463 92 368 q 116 633 108 558 q 124 754 124 708 q 120 826 124 799 q 113 874 117 853 q 108 917 108 894 q 126 969 108 951 q 182 988 143 988 q 249 966 224 988 q 286 911 274 944 q 303 839 299 878 q 307 767 307 800 q 299 628 307 707 q 282 462 290 550 q 274 286 274 374 q 276 201 274 235 q 281 145 278 168 q 287 102 285 122 q 289 57 289 82 q 268 3 289 22 q 211 -17 247 -17 m 372 -500 q 310 -453 310 -500 q 314 -422 310 -437 q 332 -376 318 -406 q 353 -316 347 -343 q 358 -266 358 -289 q 358 -221 358 -243 q 378 -160 358 -183 q 439 -137 397 -137 q 526 -166 493 -137 q 558 -246 558 -194 q 540 -349 558 -296 q 482 -447 522 -403 q 431 -487 457 -475 q 372 -500 404 -500 z "},"L":{"ha":756,"x_min":75,"x_max":725,"o":"m 400 -12 q 221 28 293 -12 q 112 150 149 69 q 75 349 75 231 q 92 547 75 454 q 127 724 110 639 q 144 890 144 810 q 162 960 144 933 q 226 986 179 986 q 286 967 263 986 q 322 918 310 949 q 333 853 333 888 q 322 712 333 782 q 296 574 311 642 q 269 446 281 507 q 258 333 258 385 q 293 211 258 254 q 408 168 328 168 q 508 179 469 168 q 572 204 546 190 q 619 230 599 218 q 665 242 640 242 q 709 219 693 242 q 725 169 725 197 q 712 106 725 136 q 669 54 699 76 q 546 3 618 19 q 400 -12 474 -12 z "},"Ĺ":{"ha":756,"x_min":75,"x_max":725,"o":"m 400 -12 q 221 28 293 -12 q 112 150 149 69 q 75 349 75 231 q 92 547 75 454 q 127 724 110 639 q 144 890 144 810 q 162 960 144 933 q 226 986 179 986 q 286 967 263 986 q 322 918 310 949 q 333 853 333 888 q 322 712 333 782 q 296 574 311 642 q 269 446 281 507 q 258 333 258 385 q 293 211 258 254 q 408 168 328 168 q 508 179 469 168 q 572 204 546 190 q 619 230 599 218 q 665 242 640 242 q 709 219 693 242 q 725 169 725 197 q 712 106 725 136 q 669 54 699 76 q 546 3 618 19 q 400 -12 474 -12 m 221 1068 q 164 1084 183 1068 q 144 1125 144 1100 q 157 1164 144 1147 q 193 1201 169 1181 q 241 1257 226 1231 q 268 1324 256 1283 q 306 1383 283 1368 q 361 1399 329 1399 q 432 1375 408 1399 q 456 1304 456 1351 q 421 1188 456 1242 q 332 1101 386 1135 q 221 1068 278 1068 z "},"Ļ":{"ha":756,"x_min":75,"x_max":725,"o":"m 400 -12 q 221 28 293 -12 q 112 150 149 69 q 75 349 75 231 q 92 547 75 454 q 127 724 110 639 q 144 890 144 810 q 162 960 144 933 q 226 986 179 986 q 286 967 263 986 q 322 918 310 949 q 333 853 333 888 q 322 712 333 782 q 296 574 311 642 q 269 446 281 507 q 258 333 258 385 q 293 211 258 254 q 408 168 328 168 q 508 179 469 168 q 572 204 546 190 q 619 230 599 218 q 665 242 640 242 q 709 219 693 242 q 725 169 725 197 q 712 106 725 136 q 669 54 699 76 q 546 3 618 19 q 400 -12 474 -12 m 326 -500 q 264 -453 264 -500 q 268 -422 264 -437 q 286 -376 272 -406 q 307 -316 301 -343 q 313 -266 313 -289 q 313 -221 313 -243 q 332 -160 313 -183 q 393 -137 351 -137 q 480 -166 447 -137 q 513 -246 513 -194 q 494 -349 513 -296 q 436 -447 476 -403 q 385 -487 411 -475 q 326 -500 358 -500 z "},"Ľ":{"ha":756,"x_min":75,"x_max":729,"o":"m 400 -12 q 221 28 293 -12 q 112 150 149 69 q 75 349 75 231 q 92 547 75 454 q 127 724 110 639 q 144 890 144 810 q 162 960 144 933 q 226 986 179 986 q 286 967 263 986 q 322 918 310 949 q 333 853 333 888 q 322 712 333 782 q 296 574 311 642 q 269 446 281 507 q 258 333 258 385 q 293 211 258 254 q 408 168 328 168 q 508 179 469 168 q 572 204 546 190 q 619 230 599 218 q 665 242 640 242 q 709 219 693 242 q 725 169 725 197 q 712 106 725 136 q 669 54 699 76 q 546 3 618 19 q 400 -12 474 -12 m 606 517 q 553 536 576 517 q 519 585 529 556 q 518 643 508 614 q 543 760 533 694 q 540 889 553 825 q 546 939 536 917 q 576 974 556 961 q 624 986 596 986 q 687 965 663 986 q 718 917 711 944 q 728 809 729 867 q 716 692 726 751 q 686 582 706 633 q 606 517 664 517 z "},"M":{"ha":1394,"x_min":78,"x_max":1358,"o":"m 204 -17 q 158 -5 178 -17 q 124 36 138 7 q 102 116 110 65 q 94 243 94 167 q 98 374 94 315 q 105 483 101 432 q 108 581 108 533 q 103 667 108 631 q 92 731 99 704 q 82 780 86 758 q 78 821 78 801 q 94 874 78 854 q 147 894 110 894 q 213 869 185 894 q 256 801 240 844 q 276 707 272 758 l 242 694 q 306 849 271 785 q 381 949 340 914 q 464 985 421 985 q 526 961 499 985 q 574 889 553 938 q 611 769 594 840 q 644 600 628 697 q 673 450 661 517 q 699 328 685 383 q 738 218 713 272 l 668 240 q 714 373 692 301 q 758 519 736 444 q 803 663 781 593 q 851 786 826 732 q 908 891 879 846 q 973 962 938 936 q 1054 988 1008 988 q 1120 971 1090 988 q 1174 915 1150 954 q 1213 811 1197 876 q 1239 647 1229 746 q 1262 451 1249 547 q 1294 270 1275 356 q 1343 114 1314 185 q 1355 48 1358 76 q 1331 3 1351 19 q 1276 -12 1311 -12 q 1203 13 1233 -12 q 1144 92 1172 38 q 1109 194 1124 135 q 1084 320 1094 253 q 1066 453 1074 388 q 1053 578 1058 519 q 1044 669 1050 629 q 1028 744 1038 710 q 1001 815 1018 779 l 1057 789 q 988 660 1017 736 q 931 490 958 585 q 870 288 903 396 q 790 60 838 179 q 754 3 774 19 q 700 -14 735 -14 q 645 1 667 -14 q 604 47 624 15 q 535 221 563 117 q 488 465 507 325 q 461 630 475 560 q 419 761 447 700 l 443 760 q 325 458 358 631 q 285 69 292 286 q 262 3 283 22 q 204 -17 240 -17 z "},"N":{"ha":1086,"x_min":90,"x_max":992,"o":"m 174 -19 q 110 3 131 -19 q 90 63 90 25 q 97 119 90 90 q 111 190 103 147 q 126 300 119 232 q 132 475 132 368 q 128 599 132 535 q 121 723 125 664 q 113 826 117 782 q 110 886 110 869 q 133 957 110 928 q 203 986 157 986 q 312 954 261 986 q 406 868 363 922 q 488 744 449 814 q 561 601 526 675 q 629 454 596 526 q 694 322 663 382 q 760 219 726 261 q 828 164 793 178 l 732 119 q 766 159 750 136 q 792 220 782 182 q 801 321 801 258 q 797 480 801 404 q 789 627 792 556 q 790 767 786 699 q 810 903 794 835 q 842 968 822 949 q 893 988 861 988 q 957 965 935 988 q 985 910 979 942 q 986 850 992 879 q 969 723 972 783 q 967 603 965 663 q 972 479 969 544 q 975 336 975 414 q 963 153 975 233 q 913 26 951 72 q 799 -19 875 -19 q 701 8 744 -19 q 622 86 658 36 q 554 200 586 136 q 491 336 522 264 q 425 483 460 408 q 351 628 390 558 q 260 756 311 697 l 292 763 q 306 651 301 700 q 311 560 310 601 q 313 475 313 518 q 301 238 313 344 q 265 50 290 132 q 235 -1 257 18 q 174 -19 213 -19 z "},"Ñ":{"ha":1086,"x_min":90,"x_max":992,"o":"m 174 -19 q 110 3 131 -19 q 90 63 90 25 q 97 119 90 90 q 111 190 103 147 q 126 300 119 232 q 132 475 132 368 q 128 599 132 535 q 121 723 125 664 q 113 826 117 782 q 110 886 110 869 q 133 957 110 928 q 203 986 157 986 q 312 954 261 986 q 406 868 363 922 q 488 744 449 814 q 561 601 526 675 q 629 454 596 526 q 694 322 663 382 q 760 219 726 261 q 828 164 793 178 l 732 119 q 766 159 750 136 q 792 220 782 182 q 801 321 801 258 q 797 480 801 404 q 789 627 792 556 q 790 767 786 699 q 810 903 794 835 q 842 968 822 949 q 893 988 861 988 q 957 965 935 988 q 985 910 979 942 q 986 850 992 879 q 969 723 972 783 q 967 603 965 663 q 972 479 969 544 q 975 336 975 414 q 963 153 975 233 q 913 26 951 72 q 799 -19 875 -19 q 701 8 744 -19 q 622 86 658 36 q 554 200 586 136 q 491 336 522 264 q 425 483 460 408 q 351 628 390 558 q 260 756 311 697 l 292 763 q 306 651 301 700 q 311 560 310 601 q 313 475 313 518 q 301 238 313 344 q 265 50 290 132 q 235 -1 257 18 q 174 -19 213 -19 m 333 1085 q 269 1115 293 1085 q 246 1189 246 1146 q 263 1266 246 1229 q 317 1326 279 1303 q 415 1350 354 1350 q 493 1335 461 1350 q 549 1301 525 1319 q 592 1267 572 1282 q 633 1251 613 1251 q 670 1260 657 1251 q 692 1283 683 1269 q 708 1311 701 1297 q 726 1334 715 1325 q 757 1343 738 1343 q 808 1322 789 1343 q 826 1250 826 1300 q 779 1129 826 1176 q 651 1082 732 1082 q 589 1095 615 1082 q 540 1126 563 1108 q 498 1156 518 1143 q 453 1169 478 1169 q 412 1157 425 1169 q 391 1127 399 1144 q 371 1097 383 1110 q 333 1085 358 1085 z "},"Ń":{"ha":1086,"x_min":90,"x_max":992,"o":"m 174 -19 q 110 3 131 -19 q 90 63 90 25 q 97 119 90 90 q 111 190 103 147 q 126 300 119 232 q 132 475 132 368 q 128 599 132 535 q 121 723 125 664 q 113 826 117 782 q 110 886 110 869 q 133 957 110 928 q 203 986 157 986 q 312 954 261 986 q 406 868 363 922 q 488 744 449 814 q 561 601 526 675 q 629 454 596 526 q 694 322 663 382 q 760 219 726 261 q 828 164 793 178 l 732 119 q 766 159 750 136 q 792 220 782 182 q 801 321 801 258 q 797 480 801 404 q 789 627 792 556 q 790 767 786 699 q 810 903 794 835 q 842 968 822 949 q 893 988 861 988 q 957 965 935 988 q 985 910 979 942 q 986 850 992 879 q 969 723 972 783 q 967 603 965 663 q 972 479 969 544 q 975 336 975 414 q 963 153 975 233 q 913 26 951 72 q 799 -19 875 -19 q 701 8 744 -19 q 622 86 658 36 q 554 200 586 136 q 491 336 522 264 q 425 483 460 408 q 351 628 390 558 q 260 756 311 697 l 292 763 q 306 651 301 700 q 311 560 310 601 q 313 475 313 518 q 301 238 313 344 q 265 50 290 132 q 235 -1 257 18 q 174 -19 213 -19 m 517 1068 q 460 1084 479 1068 q 440 1125 440 1100 q 453 1164 440 1147 q 489 1201 465 1181 q 537 1257 522 1231 q 564 1324 551 1283 q 602 1383 579 1368 q 657 1399 625 1399 q 728 1375 704 1399 q 751 1304 751 1351 q 717 1188 751 1242 q 628 1101 682 1135 q 517 1068 574 1068 z "},"Ņ":{"ha":1086,"x_min":90,"x_max":992,"o":"m 174 -19 q 110 3 131 -19 q 90 63 90 25 q 97 119 90 90 q 111 190 103 147 q 126 300 119 232 q 132 475 132 368 q 128 599 132 535 q 121 723 125 664 q 113 826 117 782 q 110 886 110 869 q 133 957 110 928 q 203 986 157 986 q 312 954 261 986 q 406 868 363 922 q 488 744 449 814 q 561 601 526 675 q 629 454 596 526 q 694 322 663 382 q 760 219 726 261 q 828 164 793 178 l 732 119 q 766 159 750 136 q 792 220 782 182 q 801 321 801 258 q 797 480 801 404 q 789 627 792 556 q 790 767 786 699 q 810 903 794 835 q 842 968 822 949 q 893 988 861 988 q 957 965 935 988 q 985 910 979 942 q 986 850 992 879 q 969 723 972 783 q 967 603 965 663 q 972 479 969 544 q 975 336 975 414 q 963 153 975 233 q 913 26 951 72 q 799 -19 875 -19 q 701 8 744 -19 q 622 86 658 36 q 554 200 586 136 q 491 336 522 264 q 425 483 460 408 q 351 628 390 558 q 260 756 311 697 l 292 763 q 306 651 301 700 q 311 560 310 601 q 313 475 313 518 q 301 238 313 344 q 265 50 290 132 q 235 -1 257 18 q 174 -19 213 -19 m 461 -500 q 399 -453 399 -500 q 403 -422 399 -437 q 421 -376 407 -406 q 442 -316 436 -343 q 447 -266 447 -289 q 447 -221 447 -243 q 467 -160 447 -183 q 528 -137 486 -137 q 615 -166 582 -137 q 647 -246 647 -194 q 629 -349 647 -296 q 571 -447 611 -403 q 519 -487 546 -475 q 461 -500 493 -500 z "},"Ň":{"ha":1086,"x_min":90,"x_max":992,"o":"m 174 -19 q 110 3 131 -19 q 90 63 90 25 q 97 119 90 90 q 111 190 103 147 q 126 300 119 232 q 132 475 132 368 q 128 599 132 535 q 121 723 125 664 q 113 826 117 782 q 110 886 110 869 q 133 957 110 928 q 203 986 157 986 q 312 954 261 986 q 406 868 363 922 q 488 744 449 814 q 561 601 526 675 q 629 454 596 526 q 694 322 663 382 q 760 219 726 261 q 828 164 793 178 l 732 119 q 766 159 750 136 q 792 220 782 182 q 801 321 801 258 q 797 480 801 404 q 789 627 792 556 q 790 767 786 699 q 810 903 794 835 q 842 968 822 949 q 893 988 861 988 q 957 965 935 988 q 985 910 979 942 q 986 850 992 879 q 969 723 972 783 q 967 603 965 663 q 972 479 969 544 q 975 336 975 414 q 963 153 975 233 q 913 26 951 72 q 799 -19 875 -19 q 701 8 744 -19 q 622 86 658 36 q 554 200 586 136 q 491 336 522 264 q 425 483 460 408 q 351 628 390 558 q 260 756 311 697 l 292 763 q 306 651 301 700 q 311 560 310 601 q 313 475 313 518 q 301 238 313 344 q 265 50 290 132 q 235 -1 257 18 q 174 -19 213 -19 m 715 1385 q 760 1373 739 1385 q 794 1344 781 1361 q 807 1308 807 1326 q 800 1282 807 1296 q 768 1243 793 1268 q 688 1172 743 1218 q 622 1121 647 1140 q 575 1092 597 1101 q 521 1083 553 1083 q 462 1099 488 1083 q 410 1153 436 1115 q 351 1219 378 1194 q 303 1258 324 1243 q 269 1288 282 1274 q 257 1326 257 1303 q 281 1366 257 1351 q 344 1381 304 1381 q 412 1368 379 1381 q 483 1320 444 1356 q 572 1218 521 1285 l 501 1219 q 595 1313 560 1279 q 652 1362 631 1346 q 688 1381 674 1378 q 715 1385 701 1385 z "},"O":{"ha":1018,"x_min":69,"x_max":950,"o":"m 488 -14 q 317 17 393 -14 q 185 103 240 47 q 99 236 129 160 q 69 403 69 313 q 94 562 69 489 q 158 692 119 635 q 241 790 197 750 q 322 852 285 831 q 382 874 360 874 q 424 867 407 874 q 456 836 440 860 q 469 771 482 800 q 424 719 456 742 q 333 638 371 683 q 273 535 294 592 q 251 403 251 478 q 280 277 251 332 q 361 192 308 222 q 488 161 414 161 q 626 194 564 161 q 726 284 689 226 q 764 417 764 342 q 746 554 764 486 q 694 679 728 622 q 616 771 661 736 q 517 806 571 806 q 486 790 496 806 q 476 749 476 775 q 462 703 476 719 q 422 688 447 688 q 369 703 394 688 q 327 751 343 719 q 311 828 311 782 q 333 906 311 869 q 396 965 354 942 q 497 988 438 988 q 683 940 600 988 q 826 813 767 893 q 918 630 886 732 q 950 417 950 528 q 915 247 950 325 q 816 110 879 169 q 669 19 753 51 q 488 -14 586 -14 z "},"Ò":{"ha":1018,"x_min":69,"x_max":950,"o":"m 488 -14 q 317 17 393 -14 q 185 103 240 47 q 99 236 129 160 q 69 403 69 313 q 94 562 69 489 q 158 692 119 635 q 241 790 197 750 q 322 852 285 831 q 382 874 360 874 q 424 867 407 874 q 456 836 440 860 q 469 771 482 800 q 424 719 456 742 q 333 638 371 683 q 273 535 294 592 q 251 403 251 478 q 280 277 251 332 q 361 192 308 222 q 488 161 414 161 q 626 194 564 161 q 726 284 689 226 q 764 417 764 342 q 746 554 764 486 q 694 679 728 622 q 616 771 661 736 q 517 806 571 806 q 486 790 496 806 q 476 749 476 775 q 462 703 476 719 q 422 688 447 688 q 369 703 394 688 q 327 751 343 719 q 311 828 311 782 q 333 906 311 869 q 396 965 354 942 q 497 988 438 988 q 683 940 600 988 q 826 813 767 893 q 918 630 886 732 q 950 417 950 528 q 915 247 950 325 q 816 110 879 169 q 669 19 753 51 q 488 -14 586 -14 m 494 1075 q 415 1094 456 1075 q 340 1147 374 1114 q 286 1217 307 1179 q 265 1293 265 1256 q 289 1363 265 1336 q 364 1389 313 1389 q 422 1372 399 1389 q 464 1307 446 1354 q 497 1244 478 1267 q 535 1208 517 1222 q 565 1180 553 1194 q 578 1142 578 1165 q 558 1093 578 1111 q 494 1075 538 1075 z "},"Ó":{"ha":1018,"x_min":69,"x_max":950,"o":"m 488 -14 q 317 17 393 -14 q 185 103 240 47 q 99 236 129 160 q 69 403 69 313 q 94 562 69 489 q 158 692 119 635 q 241 790 197 750 q 322 852 285 831 q 382 874 360 874 q 424 867 407 874 q 456 836 440 860 q 469 771 482 800 q 424 719 456 742 q 333 638 371 683 q 273 535 294 592 q 251 403 251 478 q 280 277 251 332 q 361 192 308 222 q 488 161 414 161 q 626 194 564 161 q 726 284 689 226 q 764 417 764 342 q 746 554 764 486 q 694 679 728 622 q 616 771 661 736 q 517 806 571 806 q 486 790 496 806 q 476 749 476 775 q 462 703 476 719 q 422 688 447 688 q 369 703 394 688 q 327 751 343 719 q 311 828 311 782 q 333 906 311 869 q 396 965 354 942 q 497 988 438 988 q 683 940 600 988 q 826 813 767 893 q 918 630 886 732 q 950 417 950 528 q 915 247 950 325 q 816 110 879 169 q 669 19 753 51 q 488 -14 586 -14 m 478 1068 q 421 1084 440 1068 q 401 1125 401 1100 q 414 1164 401 1147 q 450 1201 426 1181 q 498 1257 483 1231 q 525 1324 513 1283 q 563 1383 540 1368 q 618 1399 586 1399 q 689 1375 665 1399 q 713 1304 713 1351 q 678 1188 713 1242 q 589 1101 643 1135 q 478 1068 535 1068 z "},"Ô":{"ha":1018,"x_min":69,"x_max":950,"o":"m 488 -14 q 317 17 393 -14 q 185 103 240 47 q 99 236 129 160 q 69 403 69 313 q 94 562 69 489 q 158 692 119 635 q 241 790 197 750 q 322 852 285 831 q 382 874 360 874 q 424 867 407 874 q 456 836 440 860 q 469 771 482 800 q 424 719 456 742 q 333 638 371 683 q 273 535 294 592 q 251 403 251 478 q 280 277 251 332 q 361 192 308 222 q 488 161 414 161 q 626 194 564 161 q 726 284 689 226 q 764 417 764 342 q 746 554 764 486 q 694 679 728 622 q 616 771 661 736 q 517 806 571 806 q 486 790 496 806 q 476 749 476 775 q 462 703 476 719 q 422 688 447 688 q 369 703 394 688 q 327 751 343 719 q 311 828 311 782 q 333 906 311 869 q 396 965 354 942 q 497 988 438 988 q 683 940 600 988 q 826 813 767 893 q 918 630 886 732 q 950 417 950 528 q 915 247 950 325 q 816 110 879 169 q 669 19 753 51 q 488 -14 586 -14 m 318 1058 q 274 1070 294 1058 q 240 1100 253 1082 q 226 1136 226 1118 q 233 1162 226 1149 q 265 1200 240 1175 q 346 1271 290 1225 q 412 1323 388 1303 q 458 1351 436 1343 q 513 1360 481 1360 q 572 1344 546 1360 q 624 1292 597 1328 q 683 1224 656 1249 q 731 1185 710 1200 q 764 1156 751 1169 q 776 1118 776 1142 q 753 1077 776 1092 q 689 1063 731 1063 q 623 1076 656 1063 q 552 1124 590 1089 q 461 1225 514 1160 l 532 1225 q 439 1131 475 1165 q 381 1082 403 1097 q 346 1063 360 1067 q 318 1058 332 1058 z "},"Õ":{"ha":1018,"x_min":69,"x_max":950,"o":"m 488 -14 q 317 17 393 -14 q 185 103 240 47 q 99 236 129 160 q 69 403 69 313 q 94 562 69 489 q 158 692 119 635 q 241 790 197 750 q 322 852 285 831 q 382 874 360 874 q 424 867 407 874 q 456 836 440 860 q 469 771 482 800 q 424 719 456 742 q 333 638 371 683 q 273 535 294 592 q 251 403 251 478 q 280 277 251 332 q 361 192 308 222 q 488 161 414 161 q 626 194 564 161 q 726 284 689 226 q 764 417 764 342 q 746 554 764 486 q 694 679 728 622 q 616 771 661 736 q 517 806 571 806 q 486 790 496 806 q 476 749 476 775 q 462 703 476 719 q 422 688 447 688 q 369 703 394 688 q 327 751 343 719 q 311 828 311 782 q 333 906 311 869 q 396 965 354 942 q 497 988 438 988 q 683 940 600 988 q 826 813 767 893 q 918 630 886 732 q 950 417 950 528 q 915 247 950 325 q 816 110 879 169 q 669 19 753 51 q 488 -14 586 -14 m 294 1085 q 231 1115 254 1085 q 207 1189 207 1146 q 224 1266 207 1229 q 278 1326 240 1303 q 376 1350 315 1350 q 454 1335 422 1350 q 510 1301 486 1319 q 553 1267 533 1282 q 594 1251 574 1251 q 631 1260 618 1251 q 653 1283 644 1269 q 669 1311 663 1297 q 688 1334 676 1325 q 718 1343 699 1343 q 769 1322 750 1343 q 788 1250 788 1300 q 740 1129 788 1176 q 613 1082 693 1082 q 550 1095 576 1082 q 501 1126 524 1108 q 459 1156 479 1143 q 414 1169 439 1169 q 373 1157 386 1169 q 352 1127 360 1144 q 332 1097 344 1110 q 294 1085 319 1085 z "},"Ö":{"ha":1018,"x_min":69,"x_max":950,"o":"m 488 -14 q 317 17 393 -14 q 185 103 240 47 q 99 236 129 160 q 69 403 69 313 q 94 562 69 489 q 158 692 119 635 q 241 790 197 750 q 322 852 285 831 q 382 874 360 874 q 424 867 407 874 q 456 836 440 860 q 469 771 482 800 q 424 719 456 742 q 333 638 371 683 q 273 535 294 592 q 251 403 251 478 q 280 277 251 332 q 361 192 308 222 q 488 161 414 161 q 626 194 564 161 q 726 284 689 226 q 764 417 764 342 q 746 554 764 486 q 694 679 728 622 q 616 771 661 736 q 517 806 571 806 q 486 790 496 806 q 476 749 476 775 q 462 703 476 719 q 422 688 447 688 q 369 703 394 688 q 327 751 343 719 q 311 828 311 782 q 333 906 311 869 q 396 965 354 942 q 497 988 438 988 q 683 940 600 988 q 826 813 767 893 q 918 630 886 732 q 950 417 950 528 q 915 247 950 325 q 816 110 879 169 q 669 19 753 51 q 488 -14 586 -14 m 675 1069 q 585 1109 622 1069 q 547 1207 547 1149 q 579 1281 547 1251 q 656 1310 611 1310 q 726 1287 697 1310 q 772 1231 756 1264 q 788 1167 788 1199 q 762 1101 788 1132 q 675 1069 736 1069 m 340 1063 q 271 1081 301 1063 q 222 1131 240 1100 q 204 1194 204 1161 q 232 1272 204 1243 q 307 1301 260 1301 q 383 1279 351 1301 q 431 1224 414 1257 q 447 1157 447 1190 q 422 1091 447 1119 q 340 1063 397 1063 z "},"Ō":{"ha":1018,"x_min":69,"x_max":950,"o":"m 488 -14 q 317 17 393 -14 q 185 103 240 47 q 99 236 129 160 q 69 403 69 313 q 94 562 69 489 q 158 692 119 635 q 241 790 197 750 q 322 852 285 831 q 382 874 360 874 q 424 867 407 874 q 456 836 440 860 q 469 771 482 800 q 424 719 456 742 q 333 638 371 683 q 273 535 294 592 q 251 403 251 478 q 280 277 251 332 q 361 192 308 222 q 488 161 414 161 q 626 194 564 161 q 726 284 689 226 q 764 417 764 342 q 746 554 764 486 q 694 679 728 622 q 616 771 661 736 q 517 806 571 806 q 486 790 496 806 q 476 749 476 775 q 462 703 476 719 q 422 688 447 688 q 369 703 394 688 q 327 751 343 719 q 311 828 311 782 q 333 906 311 869 q 396 965 354 942 q 497 988 438 988 q 683 940 600 988 q 826 813 767 893 q 918 630 886 732 q 950 417 950 528 q 915 247 950 325 q 816 110 879 169 q 669 19 753 51 q 488 -14 586 -14 m 347 1111 q 255 1144 288 1111 q 222 1213 222 1176 q 236 1255 222 1235 q 299 1281 250 1275 q 409 1293 358 1289 q 510 1299 460 1297 q 615 1301 560 1301 q 717 1283 679 1301 q 770 1238 754 1264 q 786 1192 786 1213 q 768 1144 786 1161 q 717 1126 750 1126 q 528 1123 600 1126 q 415 1115 457 1119 q 347 1111 374 1111 z "},"Ŏ":{"ha":1018,"x_min":69,"x_max":950,"o":"m 488 -14 q 317 17 393 -14 q 185 103 240 47 q 99 236 129 160 q 69 403 69 313 q 94 562 69 489 q 158 692 119 635 q 241 790 197 750 q 322 852 285 831 q 382 874 360 874 q 424 867 407 874 q 456 836 440 860 q 469 771 482 800 q 424 719 456 742 q 333 638 371 683 q 273 535 294 592 q 251 403 251 478 q 280 277 251 332 q 361 192 308 222 q 488 161 414 161 q 626 194 564 161 q 726 284 689 226 q 764 417 764 342 q 746 554 764 486 q 694 679 728 622 q 616 771 661 736 q 517 806 571 806 q 486 790 496 806 q 476 749 476 775 q 462 703 476 719 q 422 688 447 688 q 369 703 394 688 q 327 751 343 719 q 311 828 311 782 q 333 906 311 869 q 396 965 354 942 q 497 988 438 988 q 683 940 600 988 q 826 813 767 893 q 918 630 886 732 q 950 417 950 528 q 915 247 950 325 q 816 110 879 169 q 669 19 753 51 q 488 -14 586 -14 m 488 1067 q 352 1094 410 1067 q 262 1165 294 1121 q 229 1261 229 1210 q 253 1331 229 1308 q 315 1353 278 1353 q 360 1339 343 1353 q 388 1293 376 1325 q 425 1241 399 1260 q 497 1222 451 1222 q 576 1240 549 1222 q 615 1292 604 1258 q 642 1344 626 1328 q 685 1360 657 1360 q 744 1337 724 1360 q 764 1271 764 1314 q 732 1169 764 1215 q 638 1094 700 1122 q 488 1067 576 1067 z "},"Ő":{"ha":1018,"x_min":69,"x_max":950,"o":"m 488 -14 q 317 17 393 -14 q 185 103 240 47 q 99 236 129 160 q 69 403 69 313 q 94 562 69 489 q 158 692 119 635 q 241 790 197 750 q 322 852 285 831 q 382 874 360 874 q 424 867 407 874 q 456 836 440 860 q 469 771 482 800 q 424 719 456 742 q 333 638 371 683 q 273 535 294 592 q 251 403 251 478 q 280 277 251 332 q 361 192 308 222 q 488 161 414 161 q 626 194 564 161 q 726 284 689 226 q 764 417 764 342 q 746 554 764 486 q 694 679 728 622 q 616 771 661 736 q 517 806 571 806 q 486 790 496 806 q 476 749 476 775 q 462 703 476 719 q 422 688 447 688 q 369 703 394 688 q 327 751 343 719 q 311 828 311 782 q 333 906 311 869 q 396 965 354 942 q 497 988 438 988 q 683 940 600 988 q 826 813 767 893 q 918 630 886 732 q 950 417 950 528 q 915 247 950 325 q 816 110 879 169 q 669 19 753 51 q 488 -14 586 -14 m 613 1079 q 571 1092 585 1079 q 557 1125 557 1106 q 567 1164 557 1146 q 594 1204 576 1182 q 629 1261 618 1233 q 650 1328 640 1289 q 684 1382 661 1365 q 736 1399 707 1399 q 792 1379 772 1399 q 813 1319 813 1360 q 795 1229 813 1272 q 749 1152 778 1186 q 684 1099 719 1118 q 613 1079 649 1079 m 325 1071 q 283 1085 299 1071 q 268 1121 268 1099 q 277 1159 269 1142 q 306 1201 285 1176 q 339 1249 328 1229 q 360 1300 350 1268 q 390 1353 371 1339 q 439 1368 410 1368 q 499 1349 476 1368 q 519 1290 521 1331 q 501 1213 518 1251 q 457 1142 485 1174 q 394 1090 429 1110 q 325 1071 360 1071 z "},"Ơ":{"ha":1033,"x_min":69,"x_max":1031,"o":"m 751 774 q 677 799 701 774 q 653 863 653 825 q 667 909 653 894 q 706 924 681 924 q 803 941 768 924 q 839 993 839 958 q 835 1019 839 1008 q 828 1041 832 1031 q 825 1064 825 1051 q 844 1108 825 1092 q 900 1125 864 1125 q 994 1088 958 1125 q 1031 978 1031 1051 q 997 869 1031 915 q 900 798 963 822 q 751 774 838 774 m 488 -14 q 317 17 393 -14 q 185 103 240 47 q 99 236 129 160 q 69 403 69 313 q 94 562 69 489 q 158 692 119 635 q 241 790 197 750 q 322 852 285 831 q 382 874 360 874 q 424 867 407 874 q 456 836 440 860 q 469 771 482 800 q 424 719 456 742 q 333 638 371 683 q 273 535 294 592 q 251 403 251 478 q 280 277 251 332 q 361 192 308 222 q 488 161 414 161 q 626 194 564 161 q 726 284 689 226 q 764 417 764 342 q 746 554 764 486 q 694 679 728 622 q 616 771 661 736 q 517 806 571 806 q 486 790 496 806 q 476 749 476 775 q 462 703 476 719 q 422 688 447 688 q 369 703 394 688 q 327 751 343 719 q 311 828 311 782 q 333 906 311 869 q 396 965 354 942 q 497 988 438 988 q 683 940 600 988 q 826 813 767 893 q 918 630 886 732 q 950 417 950 528 q 915 247 950 325 q 816 110 879 169 q 669 19 753 51 q 488 -14 586 -14 z "},"Ǫ":{"ha":1018,"x_min":69,"x_max":950,"o":"m 488 -14 q 317 17 393 -14 q 185 103 240 47 q 99 236 129 160 q 69 403 69 313 q 94 562 69 489 q 158 692 119 635 q 241 790 197 750 q 322 852 285 831 q 382 874 360 874 q 424 867 407 874 q 456 836 440 860 q 469 771 482 800 q 424 719 456 742 q 333 638 371 683 q 273 535 294 592 q 251 403 251 478 q 280 277 251 332 q 361 192 308 222 q 488 161 414 161 q 626 194 564 161 q 726 284 689 226 q 764 417 764 342 q 746 554 764 486 q 694 679 728 622 q 616 771 661 736 q 517 806 571 806 q 486 790 496 806 q 476 749 476 775 q 462 703 476 719 q 422 688 447 688 q 369 703 394 688 q 327 751 343 719 q 311 828 311 782 q 333 906 311 869 q 396 965 354 942 q 497 988 438 988 q 683 940 600 988 q 826 813 767 893 q 918 630 886 732 q 950 417 950 528 q 915 247 950 325 q 816 110 879 169 q 669 19 753 51 q 488 -14 586 -14 m 640 -318 q 477 -270 533 -318 q 421 -140 421 -222 q 453 -23 421 -76 q 539 63 485 31 q 660 96 593 96 q 690 89 678 96 q 701 67 701 82 q 696 51 701 58 q 672 33 690 44 q 615 -19 633 11 q 596 -85 596 -49 q 617 -132 596 -115 q 693 -149 638 -149 q 756 -167 739 -149 q 772 -214 772 -186 q 735 -293 772 -268 q 640 -318 699 -318 z "},"Ȍ":{"ha":1018,"x_min":69,"x_max":950,"o":"m 488 -14 q 317 17 393 -14 q 185 103 240 47 q 99 236 129 160 q 69 403 69 313 q 94 562 69 489 q 158 692 119 635 q 241 790 197 750 q 322 852 285 831 q 382 874 360 874 q 424 867 407 874 q 456 836 440 860 q 469 771 482 800 q 424 719 456 742 q 333 638 371 683 q 273 535 294 592 q 251 403 251 478 q 280 277 251 332 q 361 192 308 222 q 488 161 414 161 q 626 194 564 161 q 726 284 689 226 q 764 417 764 342 q 746 554 764 486 q 694 679 728 622 q 616 771 661 736 q 517 806 571 806 q 486 790 496 806 q 476 749 476 775 q 462 703 476 719 q 422 688 447 688 q 369 703 394 688 q 327 751 343 719 q 311 828 311 782 q 333 906 311 869 q 396 965 354 942 q 497 988 438 988 q 683 940 600 988 q 826 813 767 893 q 918 630 886 732 q 950 417 950 528 q 915 247 950 325 q 816 110 879 169 q 669 19 753 51 q 488 -14 586 -14 m 703 1100 q 630 1120 665 1100 q 565 1173 594 1140 q 519 1244 536 1206 q 503 1321 503 1283 q 525 1390 503 1364 q 594 1415 547 1415 q 655 1398 631 1415 q 697 1333 679 1381 q 724 1276 710 1297 q 749 1238 738 1254 q 767 1208 760 1222 q 775 1169 775 1193 q 756 1119 775 1139 q 703 1100 736 1100 m 419 1058 q 347 1078 382 1058 q 283 1131 313 1097 q 237 1203 254 1164 q 219 1278 219 1242 q 242 1347 219 1321 q 317 1372 265 1372 q 374 1354 351 1372 q 417 1285 397 1336 q 443 1224 431 1247 q 467 1186 456 1201 q 485 1158 478 1171 q 492 1125 492 1144 q 473 1076 492 1094 q 419 1058 454 1058 z "},"Ȏ":{"ha":1018,"x_min":69,"x_max":950,"o":"m 488 -14 q 317 17 393 -14 q 185 103 240 47 q 99 236 129 160 q 69 403 69 313 q 94 562 69 489 q 158 692 119 635 q 241 790 197 750 q 322 852 285 831 q 382 874 360 874 q 424 867 407 874 q 456 836 440 860 q 469 771 482 800 q 424 719 456 742 q 333 638 371 683 q 273 535 294 592 q 251 403 251 478 q 280 277 251 332 q 361 192 308 222 q 488 161 414 161 q 626 194 564 161 q 726 284 689 226 q 764 417 764 342 q 746 554 764 486 q 694 679 728 622 q 616 771 661 736 q 517 806 571 806 q 486 790 496 806 q 476 749 476 775 q 462 703 476 719 q 422 688 447 688 q 369 703 394 688 q 327 751 343 719 q 311 828 311 782 q 333 906 311 869 q 396 965 354 942 q 497 988 438 988 q 683 940 600 988 q 826 813 767 893 q 918 630 886 732 q 950 417 950 528 q 915 247 950 325 q 816 110 879 169 q 669 19 753 51 q 488 -14 586 -14 m 507 1397 q 642 1370 585 1397 q 733 1299 700 1343 q 765 1203 765 1254 q 741 1133 765 1156 q 679 1111 717 1111 q 635 1125 653 1111 q 607 1171 618 1139 q 571 1223 597 1204 q 497 1242 544 1242 q 419 1224 447 1242 q 379 1172 390 1206 q 353 1121 368 1138 q 310 1104 338 1104 q 251 1127 271 1104 q 231 1193 231 1150 q 263 1295 231 1249 q 356 1369 294 1342 q 507 1397 418 1397 z "},"Ȫ":{"ha":1018,"x_min":69,"x_max":950,"o":"m 488 -14 q 317 17 393 -14 q 185 103 240 47 q 99 236 129 160 q 69 403 69 313 q 94 562 69 489 q 158 692 119 635 q 241 790 197 750 q 322 852 285 831 q 382 874 360 874 q 424 867 407 874 q 456 836 440 860 q 469 771 482 800 q 424 719 456 742 q 333 638 371 683 q 273 535 294 592 q 251 403 251 478 q 280 277 251 332 q 361 192 308 222 q 488 161 414 161 q 626 194 564 161 q 726 284 689 226 q 764 417 764 342 q 746 554 764 486 q 694 679 728 622 q 616 771 661 736 q 517 806 571 806 q 486 790 496 806 q 476 749 476 775 q 462 703 476 719 q 422 688 447 688 q 369 703 394 688 q 327 751 343 719 q 311 828 311 782 q 333 906 311 869 q 396 965 354 942 q 497 988 438 988 q 683 940 600 988 q 826 813 767 893 q 918 630 886 732 q 950 417 950 528 q 915 247 950 325 q 816 110 879 169 q 669 19 753 51 q 488 -14 586 -14 m 349 1324 q 259 1355 290 1324 q 228 1421 228 1386 q 242 1461 228 1442 q 303 1488 256 1481 q 410 1499 360 1494 q 508 1505 460 1503 q 611 1507 557 1507 q 709 1488 672 1507 q 762 1445 746 1469 q 778 1401 778 1421 q 760 1355 778 1372 q 710 1338 742 1338 q 526 1334 596 1338 q 415 1327 456 1331 q 349 1324 374 1324 m 346 1036 q 281 1053 310 1036 q 234 1100 251 1071 q 217 1163 217 1129 q 243 1236 217 1208 q 314 1264 269 1264 q 388 1243 358 1264 q 433 1190 418 1222 q 449 1126 449 1157 q 425 1063 449 1089 q 346 1036 401 1036 m 668 1043 q 581 1081 617 1043 q 546 1174 546 1119 q 576 1244 546 1217 q 649 1271 606 1271 q 717 1250 689 1271 q 760 1198 744 1229 q 775 1136 775 1167 q 751 1072 775 1101 q 668 1043 726 1043 z "},"Ȭ":{"ha":1018,"x_min":69,"x_max":950,"o":"m 488 -14 q 317 17 393 -14 q 185 103 240 47 q 99 236 129 160 q 69 403 69 313 q 94 562 69 489 q 158 692 119 635 q 241 790 197 750 q 322 852 285 831 q 382 874 360 874 q 424 867 407 874 q 456 836 440 860 q 469 771 482 800 q 424 719 456 742 q 333 638 371 683 q 273 535 294 592 q 251 403 251 478 q 280 277 251 332 q 361 192 308 222 q 488 161 414 161 q 626 194 564 161 q 726 284 689 226 q 764 417 764 342 q 746 554 764 486 q 694 679 728 622 q 616 771 661 736 q 517 806 571 806 q 486 790 496 806 q 476 749 476 775 q 462 703 476 719 q 422 688 447 688 q 369 703 394 688 q 327 751 343 719 q 311 828 311 782 q 333 906 311 869 q 396 965 354 942 q 497 988 438 988 q 683 940 600 988 q 826 813 767 893 q 918 630 886 732 q 950 417 950 528 q 915 247 950 325 q 816 110 879 169 q 669 19 753 51 q 488 -14 586 -14 m 597 1031 q 542 1041 565 1031 q 501 1066 519 1051 q 465 1091 482 1081 q 426 1101 447 1101 q 388 1091 400 1101 q 369 1067 376 1081 q 351 1042 361 1053 q 317 1032 340 1032 q 258 1060 281 1032 q 235 1129 235 1089 q 251 1194 235 1163 q 301 1247 267 1226 q 392 1268 335 1268 q 458 1256 431 1268 q 507 1228 486 1243 q 545 1200 528 1213 q 581 1188 563 1188 q 622 1199 608 1188 q 642 1224 635 1210 q 661 1250 650 1239 q 694 1261 672 1261 q 742 1242 724 1261 q 760 1175 760 1222 q 716 1071 760 1111 q 597 1031 672 1031 m 349 1307 q 259 1338 290 1307 q 228 1404 228 1369 q 242 1444 228 1425 q 303 1471 256 1464 q 410 1482 360 1478 q 508 1488 460 1486 q 611 1490 557 1490 q 709 1472 672 1490 q 762 1428 746 1453 q 778 1385 778 1404 q 760 1338 778 1356 q 710 1321 742 1321 q 526 1317 596 1321 q 415 1310 456 1314 q 349 1307 374 1307 z "},"Ȱ":{"ha":1018,"x_min":69,"x_max":950,"o":"m 488 -14 q 317 17 393 -14 q 185 103 240 47 q 99 236 129 160 q 69 403 69 313 q 94 562 69 489 q 158 692 119 635 q 241 790 197 750 q 322 852 285 831 q 382 874 360 874 q 424 867 407 874 q 456 836 440 860 q 469 771 482 800 q 424 719 456 742 q 333 638 371 683 q 273 535 294 592 q 251 403 251 478 q 280 277 251 332 q 361 192 308 222 q 488 161 414 161 q 626 194 564 161 q 726 284 689 226 q 764 417 764 342 q 746 554 764 486 q 694 679 728 622 q 616 771 661 736 q 517 806 571 806 q 486 790 496 806 q 476 749 476 775 q 462 703 476 719 q 422 688 447 688 q 369 703 394 688 q 327 751 343 719 q 311 828 311 782 q 333 906 311 869 q 396 965 354 942 q 497 988 438 988 q 683 940 600 988 q 826 813 767 893 q 918 630 886 732 q 950 417 950 528 q 915 247 950 325 q 816 110 879 169 q 669 19 753 51 q 488 -14 586 -14 m 349 1307 q 259 1338 290 1307 q 228 1404 228 1369 q 242 1444 228 1425 q 303 1471 256 1464 q 410 1482 360 1478 q 508 1488 460 1486 q 611 1490 557 1490 q 709 1472 672 1490 q 762 1428 746 1453 q 778 1385 778 1404 q 760 1338 778 1356 q 710 1321 742 1321 q 526 1317 596 1321 q 415 1310 456 1314 q 349 1307 374 1307 m 508 1044 q 410 1077 449 1044 q 372 1157 372 1110 q 404 1231 372 1203 q 488 1258 436 1258 q 556 1240 528 1258 q 599 1193 585 1221 q 614 1138 614 1165 q 590 1074 614 1104 q 508 1044 565 1044 z "},"Ọ":{"ha":1018,"x_min":69,"x_max":950,"o":"m 488 -14 q 317 17 393 -14 q 185 103 240 47 q 99 236 129 160 q 69 403 69 313 q 94 562 69 489 q 158 692 119 635 q 241 790 197 750 q 322 852 285 831 q 382 874 360 874 q 424 867 407 874 q 456 836 440 860 q 469 771 482 800 q 424 719 456 742 q 333 638 371 683 q 273 535 294 592 q 251 403 251 478 q 280 277 251 332 q 361 192 308 222 q 488 161 414 161 q 626 194 564 161 q 726 284 689 226 q 764 417 764 342 q 746 554 764 486 q 694 679 728 622 q 616 771 661 736 q 517 806 571 806 q 486 790 496 806 q 476 749 476 775 q 462 703 476 719 q 422 688 447 688 q 369 703 394 688 q 327 751 343 719 q 311 828 311 782 q 333 906 311 869 q 396 965 354 942 q 497 988 438 988 q 683 940 600 988 q 826 813 767 893 q 918 630 886 732 q 950 417 950 528 q 915 247 950 325 q 816 110 879 169 q 669 19 753 51 q 488 -14 586 -14 m 514 -362 q 401 -326 444 -362 q 357 -239 357 -290 q 394 -157 357 -187 q 490 -126 432 -126 q 569 -147 536 -126 q 618 -197 601 -167 q 635 -258 635 -228 q 607 -329 635 -296 q 514 -362 579 -362 z "},"Ỏ":{"ha":1018,"x_min":69,"x_max":950,"o":"m 488 -14 q 317 17 393 -14 q 185 103 240 47 q 99 236 129 160 q 69 403 69 313 q 94 562 69 489 q 158 692 119 635 q 241 790 197 750 q 322 852 285 831 q 382 874 360 874 q 424 867 407 874 q 456 836 440 860 q 469 771 482 800 q 424 719 456 742 q 333 638 371 683 q 273 535 294 592 q 251 403 251 478 q 280 277 251 332 q 361 192 308 222 q 488 161 414 161 q 626 194 564 161 q 726 284 689 226 q 764 417 764 342 q 746 554 764 486 q 694 679 728 622 q 616 771 661 736 q 517 806 571 806 q 486 790 496 806 q 476 749 476 775 q 462 703 476 719 q 422 688 447 688 q 369 703 394 688 q 327 751 343 719 q 311 828 311 782 q 333 906 311 869 q 396 965 354 942 q 497 988 438 988 q 683 940 600 988 q 826 813 767 893 q 918 630 886 732 q 950 417 950 528 q 915 247 950 325 q 816 110 879 169 q 669 19 753 51 q 488 -14 586 -14 m 500 1044 q 451 1059 465 1044 q 436 1094 436 1074 q 450 1126 436 1115 q 481 1144 464 1138 q 510 1163 497 1151 q 524 1194 524 1174 q 479 1233 524 1233 q 437 1227 456 1233 q 397 1221 418 1221 q 343 1239 363 1221 q 324 1289 324 1257 q 374 1369 324 1338 q 514 1401 424 1401 q 655 1353 606 1401 q 704 1219 704 1304 q 678 1131 704 1171 q 605 1068 651 1092 q 500 1044 558 1044 z "},"Ố":{"ha":1018,"x_min":69,"x_max":950,"o":"m 488 -14 q 317 17 393 -14 q 185 103 240 47 q 99 236 129 160 q 69 403 69 313 q 94 562 69 489 q 158 692 119 635 q 241 790 197 750 q 322 852 285 831 q 382 874 360 874 q 424 867 407 874 q 456 836 440 860 q 469 771 482 800 q 424 719 456 742 q 333 638 371 683 q 273 535 294 592 q 251 403 251 478 q 280 277 251 332 q 361 192 308 222 q 488 161 414 161 q 626 194 564 161 q 726 284 689 226 q 764 417 764 342 q 746 554 764 486 q 694 679 728 622 q 616 771 661 736 q 517 806 571 806 q 486 790 496 806 q 476 749 476 775 q 462 703 476 719 q 422 688 447 688 q 369 703 394 688 q 327 751 343 719 q 311 828 311 782 q 333 906 311 869 q 396 965 354 942 q 497 988 438 988 q 683 940 600 988 q 826 813 767 893 q 918 630 886 732 q 950 417 950 528 q 915 247 950 325 q 816 110 879 169 q 669 19 753 51 q 488 -14 586 -14 m 331 1010 q 287 1022 307 1010 q 254 1050 267 1033 q 242 1083 242 1067 q 247 1109 242 1096 q 276 1144 253 1122 q 350 1208 300 1167 q 415 1259 390 1240 q 460 1286 439 1278 q 511 1294 481 1294 q 569 1279 544 1294 q 619 1229 593 1264 q 673 1169 647 1190 q 718 1133 699 1147 q 749 1106 738 1119 q 760 1072 760 1093 q 738 1034 760 1049 q 678 1019 717 1019 q 615 1031 646 1019 q 547 1074 583 1043 q 464 1167 511 1106 l 531 1165 q 443 1078 476 1110 q 389 1032 410 1046 q 356 1014 368 1018 q 331 1010 343 1010 m 703 1254 q 653 1268 669 1254 q 636 1304 636 1282 q 648 1340 636 1325 q 681 1372 660 1354 q 722 1419 710 1397 q 746 1475 735 1440 q 778 1528 758 1514 q 826 1542 797 1542 q 888 1521 867 1542 q 908 1458 908 1500 q 878 1359 908 1406 q 800 1283 847 1313 q 703 1254 753 1254 z "},"Ồ":{"ha":1018,"x_min":69,"x_max":950,"o":"m 488 -14 q 317 17 393 -14 q 185 103 240 47 q 99 236 129 160 q 69 403 69 313 q 94 562 69 489 q 158 692 119 635 q 241 790 197 750 q 322 852 285 831 q 382 874 360 874 q 424 867 407 874 q 456 836 440 860 q 469 771 482 800 q 424 719 456 742 q 333 638 371 683 q 273 535 294 592 q 251 403 251 478 q 280 277 251 332 q 361 192 308 222 q 488 161 414 161 q 626 194 564 161 q 726 284 689 226 q 764 417 764 342 q 746 554 764 486 q 694 679 728 622 q 616 771 661 736 q 517 806 571 806 q 486 790 496 806 q 476 749 476 775 q 462 703 476 719 q 422 688 447 688 q 369 703 394 688 q 327 751 343 719 q 311 828 311 782 q 333 906 311 869 q 396 965 354 942 q 497 988 438 988 q 683 940 600 988 q 826 813 767 893 q 918 630 886 732 q 950 417 950 528 q 915 247 950 325 q 816 110 879 169 q 669 19 753 51 q 488 -14 586 -14 m 331 1010 q 287 1022 307 1010 q 254 1050 267 1033 q 242 1083 242 1067 q 247 1109 242 1096 q 276 1144 253 1122 q 350 1208 300 1167 q 415 1259 390 1240 q 460 1286 439 1278 q 511 1294 481 1294 q 569 1279 544 1294 q 619 1229 593 1264 q 673 1169 647 1190 q 718 1133 699 1147 q 749 1106 738 1119 q 760 1072 760 1093 q 738 1034 760 1049 q 678 1019 717 1019 q 615 1031 646 1019 q 547 1074 583 1043 q 464 1167 511 1106 l 531 1165 q 443 1078 476 1110 q 389 1032 410 1046 q 356 1014 368 1018 q 331 1010 343 1010 m 751 1249 q 678 1267 715 1249 q 609 1316 640 1286 q 558 1381 578 1346 q 539 1450 539 1417 q 561 1515 539 1490 q 631 1539 583 1539 q 685 1523 664 1539 q 724 1463 707 1507 q 754 1405 736 1425 q 790 1372 772 1385 q 818 1345 807 1358 q 829 1311 829 1332 q 810 1266 829 1283 q 751 1249 792 1249 z "},"Ổ":{"ha":1018,"x_min":69,"x_max":950,"o":"m 488 -14 q 317 17 393 -14 q 185 103 240 47 q 99 236 129 160 q 69 403 69 313 q 94 562 69 489 q 158 692 119 635 q 241 790 197 750 q 322 852 285 831 q 382 874 360 874 q 424 867 407 874 q 456 836 440 860 q 469 771 482 800 q 424 719 456 742 q 333 638 371 683 q 273 535 294 592 q 251 403 251 478 q 280 277 251 332 q 361 192 308 222 q 488 161 414 161 q 626 194 564 161 q 726 284 689 226 q 764 417 764 342 q 746 554 764 486 q 694 679 728 622 q 616 771 661 736 q 517 806 571 806 q 486 790 496 806 q 476 749 476 775 q 462 703 476 719 q 422 688 447 688 q 369 703 394 688 q 327 751 343 719 q 311 828 311 782 q 333 906 311 869 q 396 965 354 942 q 497 988 438 988 q 683 940 600 988 q 826 813 767 893 q 918 630 886 732 q 950 417 950 528 q 915 247 950 325 q 816 110 879 169 q 669 19 753 51 q 488 -14 586 -14 m 331 1010 q 287 1022 307 1010 q 254 1050 267 1033 q 242 1083 242 1067 q 247 1109 242 1096 q 276 1144 253 1122 q 350 1208 300 1167 q 415 1259 390 1240 q 460 1286 439 1278 q 511 1294 481 1294 q 569 1279 544 1294 q 619 1229 593 1264 q 673 1169 647 1190 q 718 1133 699 1147 q 749 1106 738 1119 q 760 1072 760 1093 q 738 1034 760 1049 q 678 1019 717 1019 q 615 1031 646 1019 q 547 1074 583 1043 q 464 1167 511 1106 l 531 1165 q 443 1078 476 1110 q 389 1032 410 1046 q 356 1014 368 1018 q 331 1010 343 1010 m 736 1208 q 691 1221 704 1208 q 678 1253 678 1233 q 690 1281 678 1272 q 717 1296 701 1289 q 744 1313 732 1303 q 756 1340 756 1322 q 717 1375 756 1375 q 678 1369 694 1375 q 644 1363 663 1363 q 597 1378 614 1363 q 581 1424 581 1394 q 624 1495 581 1467 q 746 1524 667 1524 q 870 1480 826 1524 q 914 1361 914 1436 q 890 1285 914 1319 q 826 1229 867 1250 q 736 1208 786 1208 z "},"Ỗ":{"ha":1018,"x_min":69,"x_max":950,"o":"m 488 -14 q 317 17 393 -14 q 185 103 240 47 q 99 236 129 160 q 69 403 69 313 q 94 562 69 489 q 158 692 119 635 q 241 790 197 750 q 322 852 285 831 q 382 874 360 874 q 424 867 407 874 q 456 836 440 860 q 469 771 482 800 q 424 719 456 742 q 333 638 371 683 q 273 535 294 592 q 251 403 251 478 q 280 277 251 332 q 361 192 308 222 q 488 161 414 161 q 626 194 564 161 q 726 284 689 226 q 764 417 764 342 q 746 554 764 486 q 694 679 728 622 q 616 771 661 736 q 517 806 571 806 q 486 790 496 806 q 476 749 476 775 q 462 703 476 719 q 422 688 447 688 q 369 703 394 688 q 327 751 343 719 q 311 828 311 782 q 333 906 311 869 q 396 965 354 942 q 497 988 438 988 q 683 940 600 988 q 826 813 767 893 q 918 630 886 732 q 950 417 950 528 q 915 247 950 325 q 816 110 879 169 q 669 19 753 51 q 488 -14 586 -14 m 331 1010 q 288 1022 308 1010 q 255 1050 267 1033 q 243 1083 243 1067 q 249 1109 243 1096 q 278 1144 254 1122 q 351 1208 301 1167 q 416 1259 392 1240 q 462 1286 440 1278 q 513 1294 483 1294 q 571 1279 546 1294 q 619 1229 596 1264 q 674 1169 649 1190 q 719 1133 700 1147 q 750 1106 739 1119 q 761 1072 761 1093 q 740 1034 761 1049 q 679 1019 718 1019 q 616 1031 647 1019 q 548 1075 585 1043 q 464 1167 511 1107 l 532 1165 q 444 1078 478 1110 q 390 1032 411 1046 q 357 1014 369 1018 q 331 1010 344 1010 m 333 1321 q 276 1349 297 1321 q 254 1415 254 1376 q 269 1481 254 1449 q 319 1533 285 1513 q 407 1553 353 1553 q 474 1540 446 1553 q 522 1513 501 1528 q 559 1485 542 1497 q 594 1474 576 1474 q 634 1485 621 1474 q 655 1510 647 1496 q 674 1535 663 1524 q 706 1546 685 1546 q 752 1526 735 1546 q 769 1461 769 1507 q 726 1359 769 1399 q 610 1319 683 1319 q 556 1330 579 1319 q 515 1354 533 1340 q 480 1378 497 1368 q 442 1389 463 1389 q 404 1378 415 1389 q 385 1355 393 1368 q 367 1331 378 1342 q 333 1321 357 1321 z "},"Ộ":{"ha":1018,"x_min":69,"x_max":950,"o":"m 488 -14 q 317 17 393 -14 q 185 103 240 47 q 99 236 129 160 q 69 403 69 313 q 94 562 69 489 q 158 692 119 635 q 241 790 197 750 q 322 852 285 831 q 382 874 360 874 q 424 867 407 874 q 456 836 440 860 q 469 771 482 800 q 424 719 456 742 q 333 638 371 683 q 273 535 294 592 q 251 403 251 478 q 280 277 251 332 q 361 192 308 222 q 488 161 414 161 q 626 194 564 161 q 726 284 689 226 q 764 417 764 342 q 746 554 764 486 q 694 679 728 622 q 616 771 661 736 q 517 806 571 806 q 486 790 496 806 q 476 749 476 775 q 462 703 476 719 q 422 688 447 688 q 369 703 394 688 q 327 751 343 719 q 311 828 311 782 q 333 906 311 869 q 396 965 354 942 q 497 988 438 988 q 683 940 600 988 q 826 813 767 893 q 918 630 886 732 q 950 417 950 528 q 915 247 950 325 q 816 110 879 169 q 669 19 753 51 q 488 -14 586 -14 m 318 1058 q 274 1070 294 1058 q 240 1100 253 1082 q 226 1136 226 1118 q 233 1162 226 1149 q 265 1200 240 1175 q 346 1271 290 1225 q 412 1323 388 1303 q 458 1351 436 1343 q 513 1360 481 1360 q 572 1344 546 1360 q 624 1292 597 1328 q 683 1224 656 1249 q 731 1185 710 1200 q 764 1156 751 1169 q 776 1118 776 1142 q 753 1077 776 1092 q 689 1063 731 1063 q 623 1076 656 1063 q 552 1124 590 1089 q 461 1225 514 1160 l 532 1225 q 439 1131 475 1165 q 381 1082 403 1097 q 346 1063 360 1067 q 318 1058 332 1058 m 514 -362 q 401 -326 444 -362 q 357 -239 357 -290 q 394 -157 357 -187 q 490 -126 432 -126 q 569 -147 536 -126 q 618 -197 601 -167 q 635 -258 635 -228 q 607 -329 635 -296 q 514 -362 579 -362 z "},"Ớ":{"ha":1033,"x_min":69,"x_max":1031,"o":"m 751 774 q 677 799 701 774 q 653 863 653 825 q 667 909 653 894 q 706 924 681 924 q 803 941 768 924 q 839 993 839 958 q 835 1019 839 1008 q 828 1041 832 1031 q 825 1064 825 1051 q 844 1108 825 1092 q 900 1125 864 1125 q 994 1088 958 1125 q 1031 978 1031 1051 q 997 869 1031 915 q 900 798 963 822 q 751 774 838 774 m 488 -14 q 317 17 393 -14 q 185 103 240 47 q 99 236 129 160 q 69 403 69 313 q 94 562 69 489 q 158 692 119 635 q 241 790 197 750 q 322 852 285 831 q 382 874 360 874 q 424 867 407 874 q 456 836 440 860 q 469 771 482 800 q 424 719 456 742 q 333 638 371 683 q 273 535 294 592 q 251 403 251 478 q 280 277 251 332 q 361 192 308 222 q 488 161 414 161 q 626 194 564 161 q 726 284 689 226 q 764 417 764 342 q 746 554 764 486 q 694 679 728 622 q 616 771 661 736 q 517 806 571 806 q 486 790 496 806 q 476 749 476 775 q 462 703 476 719 q 422 688 447 688 q 369 703 394 688 q 327 751 343 719 q 311 828 311 782 q 333 906 311 869 q 396 965 354 942 q 497 988 438 988 q 683 940 600 988 q 826 813 767 893 q 918 630 886 732 q 950 417 950 528 q 915 247 950 325 q 816 110 879 169 q 669 19 753 51 q 488 -14 586 -14 m 486 1068 q 429 1084 449 1068 q 410 1125 410 1100 q 422 1164 410 1147 q 458 1201 435 1181 q 506 1257 492 1231 q 533 1324 521 1283 q 572 1383 549 1368 q 626 1399 594 1399 q 697 1375 674 1399 q 721 1304 721 1351 q 686 1188 721 1242 q 597 1101 651 1135 q 486 1068 543 1068 z "},"Ờ":{"ha":1033,"x_min":69,"x_max":1031,"o":"m 751 774 q 677 799 701 774 q 653 863 653 825 q 667 909 653 894 q 706 924 681 924 q 803 941 768 924 q 839 993 839 958 q 835 1019 839 1008 q 828 1041 832 1031 q 825 1064 825 1051 q 844 1108 825 1092 q 900 1125 864 1125 q 994 1088 958 1125 q 1031 978 1031 1051 q 997 869 1031 915 q 900 798 963 822 q 751 774 838 774 m 488 -14 q 317 17 393 -14 q 185 103 240 47 q 99 236 129 160 q 69 403 69 313 q 94 562 69 489 q 158 692 119 635 q 241 790 197 750 q 322 852 285 831 q 382 874 360 874 q 424 867 407 874 q 456 836 440 860 q 469 771 482 800 q 424 719 456 742 q 333 638 371 683 q 273 535 294 592 q 251 403 251 478 q 280 277 251 332 q 361 192 308 222 q 488 161 414 161 q 626 194 564 161 q 726 284 689 226 q 764 417 764 342 q 746 554 764 486 q 694 679 728 622 q 616 771 661 736 q 517 806 571 806 q 486 790 496 806 q 476 749 476 775 q 462 703 476 719 q 422 688 447 688 q 369 703 394 688 q 327 751 343 719 q 311 828 311 782 q 333 906 311 869 q 396 965 354 942 q 497 988 438 988 q 683 940 600 988 q 826 813 767 893 q 918 630 886 732 q 950 417 950 528 q 915 247 950 325 q 816 110 879 169 q 669 19 753 51 q 488 -14 586 -14 m 503 1075 q 423 1094 464 1075 q 349 1147 382 1114 q 294 1217 315 1179 q 274 1293 274 1256 q 297 1363 274 1336 q 372 1389 321 1389 q 431 1372 407 1389 q 472 1307 454 1354 q 506 1244 486 1267 q 543 1208 525 1222 q 574 1180 561 1194 q 586 1142 586 1165 q 566 1093 586 1111 q 503 1075 546 1075 z "},"Ở":{"ha":1033,"x_min":69,"x_max":1031,"o":"m 751 774 q 677 799 701 774 q 653 863 653 825 q 667 909 653 894 q 706 924 681 924 q 803 941 768 924 q 839 993 839 958 q 835 1019 839 1008 q 828 1041 832 1031 q 825 1064 825 1051 q 844 1108 825 1092 q 900 1125 864 1125 q 994 1088 958 1125 q 1031 978 1031 1051 q 997 869 1031 915 q 900 798 963 822 q 751 774 838 774 m 488 -14 q 317 17 393 -14 q 185 103 240 47 q 99 236 129 160 q 69 403 69 313 q 94 562 69 489 q 158 692 119 635 q 241 790 197 750 q 322 852 285 831 q 382 874 360 874 q 424 867 407 874 q 456 836 440 860 q 469 771 482 800 q 424 719 456 742 q 333 638 371 683 q 273 535 294 592 q 251 403 251 478 q 280 277 251 332 q 361 192 308 222 q 488 161 414 161 q 626 194 564 161 q 726 284 689 226 q 764 417 764 342 q 746 554 764 486 q 694 679 728 622 q 616 771 661 736 q 517 806 571 806 q 486 790 496 806 q 476 749 476 775 q 462 703 476 719 q 422 688 447 688 q 369 703 394 688 q 327 751 343 719 q 311 828 311 782 q 333 906 311 869 q 396 965 354 942 q 497 988 438 988 q 683 940 600 988 q 826 813 767 893 q 918 630 886 732 q 950 417 950 528 q 915 247 950 325 q 816 110 879 169 q 669 19 753 51 q 488 -14 586 -14 m 508 1044 q 459 1059 474 1044 q 444 1094 444 1074 q 458 1126 444 1115 q 489 1144 472 1138 q 519 1163 506 1151 q 532 1194 532 1174 q 488 1233 532 1233 q 445 1227 464 1233 q 406 1221 426 1221 q 351 1239 371 1221 q 332 1289 332 1257 q 382 1369 332 1338 q 522 1401 432 1401 q 663 1353 614 1401 q 713 1219 713 1304 q 686 1131 713 1171 q 613 1068 660 1092 q 508 1044 567 1044 z "},"Ỡ":{"ha":1033,"x_min":69,"x_max":1031,"o":"m 751 774 q 677 799 701 774 q 653 863 653 825 q 667 909 653 894 q 706 924 681 924 q 803 941 768 924 q 839 993 839 958 q 835 1019 839 1008 q 828 1041 832 1031 q 825 1064 825 1051 q 844 1108 825 1092 q 900 1125 864 1125 q 994 1088 958 1125 q 1031 978 1031 1051 q 997 869 1031 915 q 900 798 963 822 q 751 774 838 774 m 488 -14 q 317 17 393 -14 q 185 103 240 47 q 99 236 129 160 q 69 403 69 313 q 94 562 69 489 q 158 692 119 635 q 241 790 197 750 q 322 852 285 831 q 382 874 360 874 q 424 867 407 874 q 456 836 440 860 q 469 771 482 800 q 424 719 456 742 q 333 638 371 683 q 273 535 294 592 q 251 403 251 478 q 280 277 251 332 q 361 192 308 222 q 488 161 414 161 q 626 194 564 161 q 726 284 689 226 q 764 417 764 342 q 746 554 764 486 q 694 679 728 622 q 616 771 661 736 q 517 806 571 806 q 486 790 496 806 q 476 749 476 775 q 462 703 476 719 q 422 688 447 688 q 369 703 394 688 q 327 751 343 719 q 311 828 311 782 q 333 906 311 869 q 396 965 354 942 q 497 988 438 988 q 683 940 600 988 q 826 813 767 893 q 918 630 886 732 q 950 417 950 528 q 915 247 950 325 q 816 110 879 169 q 669 19 753 51 q 488 -14 586 -14 m 303 1085 q 239 1115 263 1085 q 215 1189 215 1146 q 232 1266 215 1229 q 286 1326 249 1303 q 385 1350 324 1350 q 463 1335 431 1350 q 518 1301 494 1319 q 562 1267 542 1282 q 603 1251 582 1251 q 640 1260 626 1251 q 662 1283 653 1269 q 678 1311 671 1297 q 696 1334 685 1325 q 726 1343 707 1343 q 777 1322 758 1343 q 796 1250 796 1300 q 749 1129 796 1176 q 621 1082 701 1082 q 558 1095 585 1082 q 510 1126 532 1108 q 467 1156 488 1143 q 422 1169 447 1169 q 381 1157 394 1169 q 360 1127 368 1144 q 340 1097 353 1110 q 303 1085 328 1085 z "},"Ợ":{"ha":1033,"x_min":69,"x_max":1031,"o":"m 751 774 q 677 799 701 774 q 653 863 653 825 q 667 909 653 894 q 706 924 681 924 q 803 941 768 924 q 839 993 839 958 q 835 1019 839 1008 q 828 1041 832 1031 q 825 1064 825 1051 q 844 1108 825 1092 q 900 1125 864 1125 q 994 1088 958 1125 q 1031 978 1031 1051 q 997 869 1031 915 q 900 798 963 822 q 751 774 838 774 m 488 -14 q 317 17 393 -14 q 185 103 240 47 q 99 236 129 160 q 69 403 69 313 q 94 562 69 489 q 158 692 119 635 q 241 790 197 750 q 322 852 285 831 q 382 874 360 874 q 424 867 407 874 q 456 836 440 860 q 469 771 482 800 q 424 719 456 742 q 333 638 371 683 q 273 535 294 592 q 251 403 251 478 q 280 277 251 332 q 361 192 308 222 q 488 161 414 161 q 626 194 564 161 q 726 284 689 226 q 764 417 764 342 q 746 554 764 486 q 694 679 728 622 q 616 771 661 736 q 517 806 571 806 q 486 790 496 806 q 476 749 476 775 q 462 703 476 719 q 422 688 447 688 q 369 703 394 688 q 327 751 343 719 q 311 828 311 782 q 333 906 311 869 q 396 965 354 942 q 497 988 438 988 q 683 940 600 988 q 826 813 767 893 q 918 630 886 732 q 950 417 950 528 q 915 247 950 325 q 816 110 879 169 q 669 19 753 51 q 488 -14 586 -14 m 522 -362 q 409 -326 453 -362 q 365 -239 365 -290 q 403 -157 365 -187 q 499 -126 440 -126 q 577 -147 544 -126 q 626 -197 610 -167 q 643 -258 643 -228 q 615 -329 643 -296 q 522 -362 588 -362 z "},"P":{"ha":850,"x_min":72,"x_max":797,"o":"m 247 -14 q 173 22 204 -14 q 142 139 142 57 q 131 299 142 229 q 106 425 119 368 q 83 535 93 482 q 72 647 72 588 q 110 824 72 749 q 229 942 147 900 q 444 983 311 983 q 581 963 518 983 q 694 901 644 942 q 770 801 743 860 q 797 667 797 742 q 765 522 797 590 q 676 401 733 454 q 545 318 619 349 q 385 288 471 288 q 279 306 325 288 q 207 356 233 325 q 181 421 181 386 q 199 469 181 453 q 244 486 218 486 q 277 480 263 486 q 315 467 292 474 q 376 461 338 461 q 499 491 444 461 q 584 568 553 521 q 615 667 615 615 q 591 742 615 713 q 528 787 567 772 q 444 801 489 801 q 302 762 350 801 q 254 647 254 722 q 265 531 254 589 q 290 410 276 474 q 315 269 304 346 q 326 94 326 192 q 311 17 326 47 q 247 -14 296 -14 z "},"Q":{"ha":1046,"x_min":74,"x_max":971,"o":"m 526 -12 q 315 24 401 -12 q 176 123 229 60 q 98 267 122 186 q 74 435 74 347 q 94 591 74 518 q 149 722 115 664 q 222 822 182 781 q 299 887 261 864 q 367 910 338 910 q 413 898 390 910 q 450 867 435 886 q 465 826 465 849 q 451 786 465 803 q 397 744 438 769 q 319 665 351 715 q 270 555 288 615 q 253 435 253 494 q 280 305 253 365 q 367 207 307 244 q 526 169 428 169 q 635 192 586 169 q 717 252 683 214 q 769 339 751 290 q 788 438 788 388 q 772 566 788 503 q 725 681 756 629 q 653 764 694 733 q 560 794 611 794 q 468 762 510 794 q 394 668 426 729 q 360 624 378 636 q 319 611 343 611 q 278 619 294 611 q 253 646 261 628 q 244 692 244 664 q 273 789 244 738 q 350 885 301 840 q 458 957 399 929 q 581 985 518 985 q 730 945 660 985 q 855 833 800 906 q 940 665 910 761 q 971 454 971 568 q 941 279 971 363 q 853 130 911 196 q 713 26 796 64 q 526 -12 631 -12 m 843 -151 q 789 -140 813 -151 q 731 -90 765 -129 q 665 -1 697 -54 q 603 110 633 51 q 543 222 572 168 q 486 315 514 276 q 455 388 458 356 q 470 438 451 419 q 528 456 489 456 q 599 435 571 456 q 663 367 628 415 q 696 310 676 347 q 741 224 715 272 q 798 125 767 175 q 867 31 829 75 q 911 -57 903 -15 q 901 -125 919 -99 q 843 -151 883 -151 z "},"R":{"ha":1003,"x_min":65,"x_max":967,"o":"m 190 -18 q 109 28 142 -18 q 76 164 76 75 q 94 305 76 226 q 147 481 111 383 q 139 592 147 542 q 117 693 131 642 q 82 807 103 744 q 81 888 65 858 q 149 917 96 917 q 247 867 210 917 q 304 693 285 817 l 265 692 q 384 853 318 788 q 528 953 450 919 q 689 986 606 986 q 797 967 751 986 q 872 916 843 949 q 915 840 901 883 q 928 746 928 796 q 902 626 928 685 q 822 512 876 567 q 685 409 768 457 q 485 324 601 361 q 659 230 561 274 q 864 156 757 186 q 946 120 925 139 q 967 75 967 101 q 937 8 967 32 q 849 -17 907 -17 q 752 1 813 -17 q 621 49 692 18 q 480 119 550 79 q 351 201 410 158 q 260 288 293 244 q 244 339 244 310 q 259 393 244 368 q 301 425 274 418 q 511 501 426 460 q 647 586 596 543 q 722 669 699 629 q 744 738 744 708 q 728 788 744 768 q 672 808 711 808 q 595 790 638 808 q 507 732 553 771 q 419 635 461 693 q 342 497 376 576 q 288 316 308 417 q 268 92 268 215 q 260 27 268 51 q 235 -8 251 3 q 190 -18 218 -18 z "},"Ŕ":{"ha":1003,"x_min":65,"x_max":967,"o":"m 190 -18 q 109 28 142 -18 q 76 164 76 75 q 94 305 76 226 q 147 481 111 383 q 139 592 147 542 q 117 693 131 642 q 82 807 103 744 q 81 888 65 858 q 149 917 96 917 q 247 867 210 917 q 304 693 285 817 l 265 692 q 384 853 318 788 q 528 953 450 919 q 689 986 606 986 q 797 967 751 986 q 872 916 843 949 q 915 840 901 883 q 928 746 928 796 q 902 626 928 685 q 822 512 876 567 q 685 409 768 457 q 485 324 601 361 q 659 230 561 274 q 864 156 757 186 q 946 120 925 139 q 967 75 967 101 q 937 8 967 32 q 849 -17 907 -17 q 752 1 813 -17 q 621 49 692 18 q 480 119 550 79 q 351 201 410 158 q 260 288 293 244 q 244 339 244 310 q 259 393 244 368 q 301 425 274 418 q 511 501 426 460 q 647 586 596 543 q 722 669 699 629 q 744 738 744 708 q 728 788 744 768 q 672 808 711 808 q 595 790 638 808 q 507 732 553 771 q 419 635 461 693 q 342 497 376 576 q 288 316 308 417 q 268 92 268 215 q 260 27 268 51 q 235 -8 251 3 q 190 -18 218 -18 m 513 1068 q 456 1084 475 1068 q 436 1125 436 1100 q 449 1164 436 1147 q 485 1201 461 1181 q 533 1257 518 1231 q 560 1324 547 1283 q 598 1383 575 1368 q 653 1399 621 1399 q 724 1375 700 1399 q 747 1304 747 1351 q 713 1188 747 1242 q 624 1101 678 1135 q 513 1068 569 1068 z "},"Ŗ":{"ha":1003,"x_min":65,"x_max":967,"o":"m 190 -18 q 109 28 142 -18 q 76 164 76 75 q 94 305 76 226 q 147 481 111 383 q 139 592 147 542 q 117 693 131 642 q 82 807 103 744 q 81 888 65 858 q 149 917 96 917 q 247 867 210 917 q 304 693 285 817 l 265 692 q 384 853 318 788 q 528 953 450 919 q 689 986 606 986 q 797 967 751 986 q 872 916 843 949 q 915 840 901 883 q 928 746 928 796 q 902 626 928 685 q 822 512 876 567 q 685 409 768 457 q 485 324 601 361 q 659 230 561 274 q 864 156 757 186 q 946 120 925 139 q 967 75 967 101 q 937 8 967 32 q 849 -17 907 -17 q 752 1 813 -17 q 621 49 692 18 q 480 119 550 79 q 351 201 410 158 q 260 288 293 244 q 244 339 244 310 q 259 393 244 368 q 301 425 274 418 q 511 501 426 460 q 647 586 596 543 q 722 669 699 629 q 744 738 744 708 q 728 788 744 768 q 672 808 711 808 q 595 790 638 808 q 507 732 553 771 q 419 635 461 693 q 342 497 376 576 q 288 316 308 417 q 268 92 268 215 q 260 27 268 51 q 235 -8 251 3 q 190 -18 218 -18 m 403 -500 q 340 -453 340 -500 q 344 -422 340 -437 q 363 -376 349 -406 q 383 -316 378 -343 q 389 -266 389 -289 q 389 -221 389 -243 q 408 -160 389 -183 q 469 -137 428 -137 q 556 -166 524 -137 q 589 -246 589 -194 q 571 -349 589 -296 q 513 -447 553 -403 q 461 -487 488 -475 q 403 -500 435 -500 z "},"Ř":{"ha":1003,"x_min":65,"x_max":967,"o":"m 190 -18 q 109 28 142 -18 q 76 164 76 75 q 94 305 76 226 q 147 481 111 383 q 139 592 147 542 q 117 693 131 642 q 82 807 103 744 q 81 888 65 858 q 149 917 96 917 q 247 867 210 917 q 304 693 285 817 l 265 692 q 384 853 318 788 q 528 953 450 919 q 689 986 606 986 q 797 967 751 986 q 872 916 843 949 q 915 840 901 883 q 928 746 928 796 q 902 626 928 685 q 822 512 876 567 q 685 409 768 457 q 485 324 601 361 q 659 230 561 274 q 864 156 757 186 q 946 120 925 139 q 967 75 967 101 q 937 8 967 32 q 849 -17 907 -17 q 752 1 813 -17 q 621 49 692 18 q 480 119 550 79 q 351 201 410 158 q 260 288 293 244 q 244 339 244 310 q 259 393 244 368 q 301 425 274 418 q 511 501 426 460 q 647 586 596 543 q 722 669 699 629 q 744 738 744 708 q 728 788 744 768 q 672 808 711 808 q 595 790 638 808 q 507 732 553 771 q 419 635 461 693 q 342 497 376 576 q 288 316 308 417 q 268 92 268 215 q 260 27 268 51 q 235 -8 251 3 q 190 -18 218 -18 m 711 1385 q 756 1373 735 1385 q 790 1344 776 1361 q 803 1308 803 1326 q 796 1282 803 1296 q 764 1243 789 1268 q 683 1172 739 1218 q 618 1121 643 1140 q 571 1092 593 1101 q 517 1083 549 1083 q 458 1099 483 1083 q 406 1153 432 1115 q 347 1219 374 1194 q 299 1258 319 1243 q 265 1288 278 1274 q 253 1326 253 1303 q 276 1366 253 1351 q 340 1381 300 1381 q 408 1368 375 1381 q 478 1320 440 1356 q 568 1218 517 1285 l 497 1219 q 591 1313 556 1279 q 648 1362 626 1346 q 683 1381 669 1378 q 711 1385 697 1385 z "},"Ȑ":{"ha":1003,"x_min":65,"x_max":967,"o":"m 190 -18 q 109 28 142 -18 q 76 164 76 75 q 94 305 76 226 q 147 481 111 383 q 139 592 147 542 q 117 693 131 642 q 82 807 103 744 q 81 888 65 858 q 149 917 96 917 q 247 867 210 917 q 304 693 285 817 l 265 692 q 384 853 318 788 q 528 953 450 919 q 689 986 606 986 q 797 967 751 986 q 872 916 843 949 q 915 840 901 883 q 928 746 928 796 q 902 626 928 685 q 822 512 876 567 q 685 409 768 457 q 485 324 601 361 q 659 230 561 274 q 864 156 757 186 q 946 120 925 139 q 967 75 967 101 q 937 8 967 32 q 849 -17 907 -17 q 752 1 813 -17 q 621 49 692 18 q 480 119 550 79 q 351 201 410 158 q 260 288 293 244 q 244 339 244 310 q 259 393 244 368 q 301 425 274 418 q 511 501 426 460 q 647 586 596 543 q 722 669 699 629 q 744 738 744 708 q 728 788 744 768 q 672 808 711 808 q 595 790 638 808 q 507 732 553 771 q 419 635 461 693 q 342 497 376 576 q 288 316 308 417 q 268 92 268 215 q 260 27 268 51 q 235 -8 251 3 q 190 -18 218 -18 m 738 1100 q 665 1120 700 1100 q 600 1173 629 1140 q 554 1244 571 1206 q 538 1321 538 1283 q 560 1390 538 1364 q 629 1415 582 1415 q 690 1398 665 1415 q 732 1333 714 1381 q 758 1276 744 1297 q 783 1238 772 1254 q 802 1208 794 1222 q 810 1169 810 1193 q 790 1119 810 1139 q 738 1100 771 1100 m 454 1058 q 382 1078 417 1058 q 318 1131 347 1097 q 272 1203 289 1164 q 254 1278 254 1242 q 277 1347 254 1321 q 351 1372 300 1372 q 409 1354 386 1372 q 451 1285 432 1336 q 478 1224 465 1247 q 501 1186 490 1201 q 519 1158 513 1171 q 526 1125 526 1144 q 508 1076 526 1094 q 454 1058 489 1058 z "},"Ȓ":{"ha":1003,"x_min":65,"x_max":967,"o":"m 190 -18 q 109 28 142 -18 q 76 164 76 75 q 94 305 76 226 q 147 481 111 383 q 139 592 147 542 q 117 693 131 642 q 82 807 103 744 q 81 888 65 858 q 149 917 96 917 q 247 867 210 917 q 304 693 285 817 l 265 692 q 384 853 318 788 q 528 953 450 919 q 689 986 606 986 q 797 967 751 986 q 872 916 843 949 q 915 840 901 883 q 928 746 928 796 q 902 626 928 685 q 822 512 876 567 q 685 409 768 457 q 485 324 601 361 q 659 230 561 274 q 864 156 757 186 q 946 120 925 139 q 967 75 967 101 q 937 8 967 32 q 849 -17 907 -17 q 752 1 813 -17 q 621 49 692 18 q 480 119 550 79 q 351 201 410 158 q 260 288 293 244 q 244 339 244 310 q 259 393 244 368 q 301 425 274 418 q 511 501 426 460 q 647 586 596 543 q 722 669 699 629 q 744 738 744 708 q 728 788 744 768 q 672 808 711 808 q 595 790 638 808 q 507 732 553 771 q 419 635 461 693 q 342 497 376 576 q 288 316 308 417 q 268 92 268 215 q 260 27 268 51 q 235 -8 251 3 q 190 -18 218 -18 m 542 1397 q 677 1370 619 1397 q 767 1299 735 1343 q 800 1203 800 1254 q 776 1133 800 1156 q 714 1111 751 1111 q 670 1125 688 1111 q 642 1171 653 1139 q 606 1223 632 1204 q 532 1242 579 1242 q 453 1224 482 1242 q 414 1172 425 1206 q 388 1121 403 1138 q 344 1104 372 1104 q 285 1127 306 1104 q 265 1193 265 1150 q 297 1295 265 1249 q 391 1369 329 1342 q 542 1397 453 1397 z "},"S":{"ha":786,"x_min":67,"x_max":732,"o":"m 301 -12 q 126 30 185 -12 q 67 132 67 72 q 80 176 67 160 q 122 193 93 193 q 156 189 142 193 q 188 178 171 185 q 227 168 204 172 q 283 164 250 164 q 393 169 346 164 q 476 185 440 175 q 542 211 511 196 q 494 265 532 242 q 402 311 456 289 q 291 359 349 333 q 183 419 233 385 q 101 499 132 453 q 69 610 69 546 q 108 736 69 678 q 211 840 147 794 q 349 919 275 886 q 492 969 422 951 q 614 986 563 986 q 674 973 651 986 q 708 938 697 960 q 718 889 718 915 q 701 839 718 860 q 647 811 685 818 q 440 754 528 788 q 304 683 351 721 q 257 608 257 646 q 291 555 257 579 q 379 508 325 531 q 494 458 433 485 q 608 398 554 432 q 697 319 663 364 q 732 211 732 274 q 701 111 732 153 q 613 42 671 69 q 477 1 556 14 q 301 -12 399 -12 z "},"Ś":{"ha":786,"x_min":67,"x_max":732,"o":"m 301 -12 q 126 30 185 -12 q 67 132 67 72 q 80 176 67 160 q 122 193 93 193 q 156 189 142 193 q 188 178 171 185 q 227 168 204 172 q 283 164 250 164 q 393 169 346 164 q 476 185 440 175 q 542 211 511 196 q 494 265 532 242 q 402 311 456 289 q 291 359 349 333 q 183 419 233 385 q 101 499 132 453 q 69 610 69 546 q 108 736 69 678 q 211 840 147 794 q 349 919 275 886 q 492 969 422 951 q 614 986 563 986 q 674 973 651 986 q 708 938 697 960 q 718 889 718 915 q 701 839 718 860 q 647 811 685 818 q 440 754 528 788 q 304 683 351 721 q 257 608 257 646 q 291 555 257 579 q 379 508 325 531 q 494 458 433 485 q 608 398 554 432 q 697 319 663 364 q 732 211 732 274 q 701 111 732 153 q 613 42 671 69 q 477 1 556 14 q 301 -12 399 -12 m 392 1068 q 335 1084 354 1068 q 315 1125 315 1100 q 328 1164 315 1147 q 364 1201 340 1181 q 412 1257 397 1231 q 439 1324 426 1283 q 477 1383 454 1368 q 532 1399 500 1399 q 603 1375 579 1399 q 626 1304 626 1351 q 592 1188 626 1242 q 503 1101 557 1135 q 392 1068 449 1068 z "},"Ŝ":{"ha":786,"x_min":67,"x_max":732,"o":"m 301 -12 q 126 30 185 -12 q 67 132 67 72 q 80 176 67 160 q 122 193 93 193 q 156 189 142 193 q 188 178 171 185 q 227 168 204 172 q 283 164 250 164 q 393 169 346 164 q 476 185 440 175 q 542 211 511 196 q 494 265 532 242 q 402 311 456 289 q 291 359 349 333 q 183 419 233 385 q 101 499 132 453 q 69 610 69 546 q 108 736 69 678 q 211 840 147 794 q 349 919 275 886 q 492 969 422 951 q 614 986 563 986 q 674 973 651 986 q 708 938 697 960 q 718 889 718 915 q 701 839 718 860 q 647 811 685 818 q 440 754 528 788 q 304 683 351 721 q 257 608 257 646 q 291 555 257 579 q 379 508 325 531 q 494 458 433 485 q 608 398 554 432 q 697 319 663 364 q 732 211 732 274 q 701 111 732 153 q 613 42 671 69 q 477 1 556 14 q 301 -12 399 -12 m 232 1058 q 188 1070 208 1058 q 153 1100 167 1082 q 140 1136 140 1118 q 147 1162 140 1149 q 179 1200 154 1175 q 260 1271 204 1225 q 326 1323 301 1303 q 372 1351 350 1343 q 426 1360 394 1360 q 485 1344 460 1360 q 538 1292 511 1328 q 597 1224 569 1249 q 644 1185 624 1200 q 678 1156 665 1169 q 690 1118 690 1142 q 667 1077 690 1092 q 603 1063 644 1063 q 537 1076 569 1063 q 466 1124 504 1089 q 375 1225 428 1160 l 446 1225 q 353 1131 389 1165 q 295 1082 317 1097 q 260 1063 274 1067 q 232 1058 246 1058 z "},"Ş":{"ha":786,"x_min":67,"x_max":732,"o":"m 301 -12 q 126 30 185 -12 q 67 132 67 72 q 80 176 67 160 q 122 193 93 193 q 156 189 142 193 q 188 178 171 185 q 227 168 204 172 q 283 164 250 164 q 393 169 346 164 q 476 185 440 175 q 542 211 511 196 q 494 265 532 242 q 402 311 456 289 q 291 359 349 333 q 183 419 233 385 q 101 499 132 453 q 69 610 69 546 q 108 736 69 678 q 211 840 147 794 q 349 919 275 886 q 492 969 422 951 q 614 986 563 986 q 674 973 651 986 q 708 938 697 960 q 718 889 718 915 q 701 839 718 860 q 647 811 685 818 q 440 754 528 788 q 304 683 351 721 q 257 608 257 646 q 291 555 257 579 q 379 508 325 531 q 494 458 433 485 q 608 398 554 432 q 697 319 663 364 q 732 211 732 274 q 701 111 732 153 q 613 42 671 69 q 477 1 556 14 q 301 -12 399 -12 m 311 -318 q 222 -294 256 -318 q 188 -226 188 -271 q 204 -175 188 -194 q 264 -149 221 -156 q 355 -119 329 -140 q 381 -61 381 -99 q 373 -24 381 -36 q 356 -3 365 -11 q 340 12 347 4 q 333 35 333 19 q 348 63 333 50 q 393 75 363 75 q 513 21 467 75 q 558 -126 558 -33 q 493 -266 558 -214 q 311 -318 428 -318 z "},"Š":{"ha":786,"x_min":67,"x_max":732,"o":"m 301 -12 q 126 30 185 -12 q 67 132 67 72 q 80 176 67 160 q 122 193 93 193 q 156 189 142 193 q 188 178 171 185 q 227 168 204 172 q 283 164 250 164 q 393 169 346 164 q 476 185 440 175 q 542 211 511 196 q 494 265 532 242 q 402 311 456 289 q 291 359 349 333 q 183 419 233 385 q 101 499 132 453 q 69 610 69 546 q 108 736 69 678 q 211 840 147 794 q 349 919 275 886 q 492 969 422 951 q 614 986 563 986 q 674 973 651 986 q 708 938 697 960 q 718 889 718 915 q 701 839 718 860 q 647 811 685 818 q 440 754 528 788 q 304 683 351 721 q 257 608 257 646 q 291 555 257 579 q 379 508 325 531 q 494 458 433 485 q 608 398 554 432 q 697 319 663 364 q 732 211 732 274 q 701 111 732 153 q 613 42 671 69 q 477 1 556 14 q 301 -12 399 -12 m 590 1385 q 635 1373 614 1385 q 669 1344 656 1361 q 682 1308 682 1326 q 675 1282 682 1296 q 643 1243 668 1268 q 563 1172 618 1218 q 497 1121 522 1140 q 450 1092 472 1101 q 396 1083 428 1083 q 337 1099 363 1083 q 285 1153 311 1115 q 226 1219 253 1194 q 178 1258 199 1243 q 144 1288 157 1274 q 132 1326 132 1303 q 156 1366 132 1351 q 219 1381 179 1381 q 287 1368 254 1381 q 358 1320 319 1356 q 447 1218 396 1285 l 376 1219 q 470 1313 435 1279 q 527 1362 506 1346 q 563 1381 549 1378 q 590 1385 576 1385 z "},"Ș":{"ha":786,"x_min":67,"x_max":732,"o":"m 301 -12 q 126 30 185 -12 q 67 132 67 72 q 80 176 67 160 q 122 193 93 193 q 156 189 142 193 q 188 178 171 185 q 227 168 204 172 q 283 164 250 164 q 393 169 346 164 q 476 185 440 175 q 542 211 511 196 q 494 265 532 242 q 402 311 456 289 q 291 359 349 333 q 183 419 233 385 q 101 499 132 453 q 69 610 69 546 q 108 736 69 678 q 211 840 147 794 q 349 919 275 886 q 492 969 422 951 q 614 986 563 986 q 674 973 651 986 q 708 938 697 960 q 718 889 718 915 q 701 839 718 860 q 647 811 685 818 q 440 754 528 788 q 304 683 351 721 q 257 608 257 646 q 291 555 257 579 q 379 508 325 531 q 494 458 433 485 q 608 398 554 432 q 697 319 663 364 q 732 211 732 274 q 701 111 732 153 q 613 42 671 69 q 477 1 556 14 q 301 -12 399 -12 m 319 -500 q 257 -453 257 -500 q 261 -422 257 -437 q 279 -376 265 -406 q 300 -316 294 -343 q 306 -266 306 -289 q 306 -221 306 -243 q 325 -160 306 -183 q 386 -137 344 -137 q 473 -166 440 -137 q 506 -246 506 -194 q 488 -349 506 -296 q 429 -447 469 -403 q 378 -487 404 -475 q 319 -500 351 -500 z "},"T":{"ha":863,"x_min":21,"x_max":842,"o":"m 451 -18 q 382 10 414 -18 q 332 121 350 39 q 316 232 322 171 q 309 373 310 293 q 314 560 308 453 q 332 815 319 668 q 355 876 335 853 q 408 900 375 900 q 497 861 474 900 q 514 731 519 822 q 503 479 506 583 q 506 306 501 375 q 515 191 510 236 q 524 116 519 146 q 529 61 529 86 q 510 0 529 18 q 451 -18 490 -18 m 654 796 q 517 796 581 796 q 397 797 454 796 q 283 801 340 799 q 165 807 226 804 q 77 825 108 811 q 33 862 46 839 q 21 918 21 885 q 38 965 21 946 q 94 983 54 983 q 220 982 164 983 q 327 978 276 981 q 428 974 378 976 q 535 972 479 972 q 624 976 588 972 q 694 983 661 979 q 771 986 728 986 q 824 968 807 986 q 842 921 842 950 q 814 850 842 878 q 743 809 786 822 q 654 796 700 796 z "},"Ţ":{"ha":863,"x_min":21,"x_max":842,"o":"m 451 -18 q 382 10 414 -18 q 332 121 350 39 q 316 232 322 171 q 309 373 310 293 q 314 560 308 453 q 332 815 319 668 q 355 876 335 853 q 408 900 375 900 q 497 861 474 900 q 514 731 519 822 q 503 479 506 583 q 506 306 501 375 q 515 191 510 236 q 524 116 519 146 q 529 61 529 86 q 510 0 529 18 q 451 -18 490 -18 m 654 796 q 517 796 581 796 q 397 797 454 796 q 283 801 340 799 q 165 807 226 804 q 77 825 108 811 q 33 862 46 839 q 21 918 21 885 q 38 965 21 946 q 94 983 54 983 q 220 982 164 983 q 327 978 276 981 q 428 974 378 976 q 535 972 479 972 q 624 976 588 972 q 694 983 661 979 q 771 986 728 986 q 824 968 807 986 q 842 921 842 950 q 814 850 842 878 q 743 809 786 822 q 654 796 700 796 m 368 -318 q 278 -294 313 -318 q 244 -226 244 -271 q 261 -175 244 -194 q 321 -149 278 -156 q 412 -119 386 -140 q 438 -61 438 -99 q 430 -24 438 -36 q 413 -3 422 -11 q 397 12 404 4 q 390 35 390 19 q 405 63 390 50 q 450 75 419 75 q 569 21 524 75 q 615 -126 615 -33 q 550 -266 615 -214 q 368 -318 485 -318 z "},"Ť":{"ha":863,"x_min":21,"x_max":842,"o":"m 451 -18 q 382 10 414 -18 q 332 121 350 39 q 316 232 322 171 q 309 373 310 293 q 314 560 308 453 q 332 815 319 668 q 355 876 335 853 q 408 900 375 900 q 497 861 474 900 q 514 731 519 822 q 503 479 506 583 q 506 306 501 375 q 515 191 510 236 q 524 116 519 146 q 529 61 529 86 q 510 0 529 18 q 451 -18 490 -18 m 654 796 q 517 796 581 796 q 397 797 454 796 q 283 801 340 799 q 165 807 226 804 q 77 825 108 811 q 33 862 46 839 q 21 918 21 885 q 38 965 21 946 q 94 983 54 983 q 220 982 164 983 q 327 978 276 981 q 428 974 378 976 q 535 972 479 972 q 624 976 588 972 q 694 983 661 979 q 771 986 728 986 q 824 968 807 986 q 842 921 842 950 q 814 850 842 878 q 743 809 786 822 q 654 796 700 796 m 621 1385 q 665 1373 644 1385 q 699 1344 686 1361 q 713 1308 713 1326 q 706 1282 713 1296 q 674 1243 699 1268 q 593 1172 649 1218 q 528 1121 553 1140 q 481 1092 503 1101 q 426 1083 458 1083 q 367 1099 393 1083 q 315 1153 342 1115 q 256 1219 283 1194 q 208 1258 229 1243 q 175 1288 188 1274 q 163 1326 163 1303 q 186 1366 163 1351 q 250 1381 210 1381 q 317 1368 285 1381 q 388 1320 350 1356 q 478 1218 426 1285 l 407 1219 q 501 1313 465 1279 q 558 1362 536 1346 q 593 1381 579 1378 q 621 1385 607 1385 z "},"Ț":{"ha":863,"x_min":21,"x_max":842,"o":"m 451 -18 q 382 10 414 -18 q 332 121 350 39 q 316 232 322 171 q 309 373 310 293 q 314 560 308 453 q 332 815 319 668 q 355 876 335 853 q 408 900 375 900 q 497 861 474 900 q 514 731 519 822 q 503 479 506 583 q 506 306 501 375 q 515 191 510 236 q 524 116 519 146 q 529 61 529 86 q 510 0 529 18 q 451 -18 490 -18 m 654 796 q 517 796 581 796 q 397 797 454 796 q 283 801 340 799 q 165 807 226 804 q 77 825 108 811 q 33 862 46 839 q 21 918 21 885 q 38 965 21 946 q 94 983 54 983 q 220 982 164 983 q 327 978 276 981 q 428 974 378 976 q 535 972 479 972 q 624 976 588 972 q 694 983 661 979 q 771 986 728 986 q 824 968 807 986 q 842 921 842 950 q 814 850 842 878 q 743 809 786 822 q 654 796 700 796 m 376 -500 q 314 -453 314 -500 q 318 -422 314 -437 q 336 -376 322 -406 q 357 -316 351 -343 q 363 -266 363 -289 q 363 -221 363 -243 q 382 -160 363 -183 q 443 -137 401 -137 q 530 -166 497 -137 q 563 -246 563 -194 q 544 -349 563 -296 q 486 -447 526 -403 q 435 -487 461 -475 q 376 -500 408 -500 z "},"U":{"ha":943,"x_min":79,"x_max":861,"o":"m 499 -18 q 266 42 354 -18 q 138 212 178 101 q 97 472 97 322 q 101 584 97 529 q 104 676 104 639 q 100 769 104 735 q 91 827 96 804 q 83 869 86 850 q 79 913 79 888 q 101 974 79 956 q 164 992 122 992 q 231 969 200 992 q 280 892 261 947 q 299 742 299 838 q 295 653 299 701 q 289 557 292 606 q 286 465 286 508 q 310 283 286 349 q 381 192 335 218 q 489 167 426 167 q 626 226 582 167 q 671 424 671 285 q 669 564 671 503 q 664 685 667 625 q 661 819 661 746 q 690 942 661 896 q 779 989 719 989 q 840 970 818 989 q 861 911 861 951 q 858 864 861 889 q 851 805 854 839 q 847 717 847 771 q 852 570 847 643 q 857 414 857 497 q 819 189 857 286 q 701 37 781 92 q 499 -18 622 -18 z "},"Ù":{"ha":943,"x_min":79,"x_max":861,"o":"m 499 -18 q 266 42 354 -18 q 138 212 178 101 q 97 472 97 322 q 101 584 97 529 q 104 676 104 639 q 100 769 104 735 q 91 827 96 804 q 83 869 86 850 q 79 913 79 888 q 101 974 79 956 q 164 992 122 992 q 231 969 200 992 q 280 892 261 947 q 299 742 299 838 q 295 653 299 701 q 289 557 292 606 q 286 465 286 508 q 310 283 286 349 q 381 192 335 218 q 489 167 426 167 q 626 226 582 167 q 671 424 671 285 q 669 564 671 503 q 664 685 667 625 q 661 819 661 746 q 690 942 661 896 q 779 989 719 989 q 840 970 818 989 q 861 911 861 951 q 858 864 861 889 q 851 805 854 839 q 847 717 847 771 q 852 570 847 643 q 857 414 857 497 q 819 189 857 286 q 701 37 781 92 q 499 -18 622 -18 m 481 1075 q 401 1094 442 1075 q 326 1147 360 1114 q 272 1217 293 1179 q 251 1293 251 1256 q 275 1363 251 1336 q 350 1389 299 1389 q 408 1372 385 1389 q 450 1307 432 1354 q 483 1244 464 1267 q 521 1208 503 1222 q 551 1180 539 1194 q 564 1142 564 1165 q 544 1093 564 1111 q 481 1075 524 1075 z "},"Ú":{"ha":943,"x_min":79,"x_max":861,"o":"m 499 -18 q 266 42 354 -18 q 138 212 178 101 q 97 472 97 322 q 101 584 97 529 q 104 676 104 639 q 100 769 104 735 q 91 827 96 804 q 83 869 86 850 q 79 913 79 888 q 101 974 79 956 q 164 992 122 992 q 231 969 200 992 q 280 892 261 947 q 299 742 299 838 q 295 653 299 701 q 289 557 292 606 q 286 465 286 508 q 310 283 286 349 q 381 192 335 218 q 489 167 426 167 q 626 226 582 167 q 671 424 671 285 q 669 564 671 503 q 664 685 667 625 q 661 819 661 746 q 690 942 661 896 q 779 989 719 989 q 840 970 818 989 q 861 911 861 951 q 858 864 861 889 q 851 805 854 839 q 847 717 847 771 q 852 570 847 643 q 857 414 857 497 q 819 189 857 286 q 701 37 781 92 q 499 -18 622 -18 m 464 1068 q 407 1084 426 1068 q 388 1125 388 1100 q 400 1164 388 1147 q 436 1201 413 1181 q 484 1257 469 1231 q 511 1324 499 1283 q 549 1383 526 1368 q 604 1399 572 1399 q 675 1375 651 1399 q 699 1304 699 1351 q 664 1188 699 1242 q 575 1101 629 1135 q 464 1068 521 1068 z "},"Û":{"ha":943,"x_min":79,"x_max":861,"o":"m 499 -18 q 266 42 354 -18 q 138 212 178 101 q 97 472 97 322 q 101 584 97 529 q 104 676 104 639 q 100 769 104 735 q 91 827 96 804 q 83 869 86 850 q 79 913 79 888 q 101 974 79 956 q 164 992 122 992 q 231 969 200 992 q 280 892 261 947 q 299 742 299 838 q 295 653 299 701 q 289 557 292 606 q 286 465 286 508 q 310 283 286 349 q 381 192 335 218 q 489 167 426 167 q 626 226 582 167 q 671 424 671 285 q 669 564 671 503 q 664 685 667 625 q 661 819 661 746 q 690 942 661 896 q 779 989 719 989 q 840 970 818 989 q 861 911 861 951 q 858 864 861 889 q 851 805 854 839 q 847 717 847 771 q 852 570 847 643 q 857 414 857 497 q 819 189 857 286 q 701 37 781 92 q 499 -18 622 -18 m 304 1058 q 260 1070 281 1058 q 226 1100 239 1082 q 213 1136 213 1118 q 219 1162 213 1149 q 251 1200 226 1175 q 332 1271 276 1225 q 398 1323 374 1303 q 444 1351 422 1343 q 499 1360 467 1360 q 558 1344 532 1360 q 610 1292 583 1328 q 669 1224 642 1249 q 717 1185 696 1200 q 750 1156 738 1169 q 763 1118 763 1142 q 740 1077 763 1092 q 675 1063 717 1063 q 609 1076 642 1063 q 538 1124 576 1089 q 447 1225 500 1160 l 518 1225 q 425 1131 461 1165 q 367 1082 389 1097 q 332 1063 346 1067 q 304 1058 318 1058 z "},"Ü":{"ha":943,"x_min":79,"x_max":861,"o":"m 499 -18 q 266 42 354 -18 q 138 212 178 101 q 97 472 97 322 q 101 584 97 529 q 104 676 104 639 q 100 769 104 735 q 91 827 96 804 q 83 869 86 850 q 79 913 79 888 q 101 974 79 956 q 164 992 122 992 q 231 969 200 992 q 280 892 261 947 q 299 742 299 838 q 295 653 299 701 q 289 557 292 606 q 286 465 286 508 q 310 283 286 349 q 381 192 335 218 q 489 167 426 167 q 626 226 582 167 q 671 424 671 285 q 669 564 671 503 q 664 685 667 625 q 661 819 661 746 q 690 942 661 896 q 779 989 719 989 q 840 970 818 989 q 861 911 861 951 q 858 864 861 889 q 851 805 854 839 q 847 717 847 771 q 852 570 847 643 q 857 414 857 497 q 819 189 857 286 q 701 37 781 92 q 499 -18 622 -18 m 661 1069 q 571 1109 608 1069 q 533 1207 533 1149 q 565 1281 533 1251 q 642 1310 597 1310 q 713 1287 683 1310 q 758 1231 742 1264 q 774 1167 774 1199 q 748 1101 774 1132 q 661 1069 722 1069 m 326 1063 q 257 1081 288 1063 q 208 1131 226 1100 q 190 1194 190 1161 q 218 1272 190 1243 q 293 1301 246 1301 q 369 1279 338 1301 q 417 1224 400 1257 q 433 1157 433 1190 q 408 1091 433 1119 q 326 1063 383 1063 z "},"Ũ":{"ha":943,"x_min":79,"x_max":861,"o":"m 499 -18 q 266 42 354 -18 q 138 212 178 101 q 97 472 97 322 q 101 584 97 529 q 104 676 104 639 q 100 769 104 735 q 91 827 96 804 q 83 869 86 850 q 79 913 79 888 q 101 974 79 956 q 164 992 122 992 q 231 969 200 992 q 280 892 261 947 q 299 742 299 838 q 295 653 299 701 q 289 557 292 606 q 286 465 286 508 q 310 283 286 349 q 381 192 335 218 q 489 167 426 167 q 626 226 582 167 q 671 424 671 285 q 669 564 671 503 q 664 685 667 625 q 661 819 661 746 q 690 942 661 896 q 779 989 719 989 q 840 970 818 989 q 861 911 861 951 q 858 864 861 889 q 851 805 854 839 q 847 717 847 771 q 852 570 847 643 q 857 414 857 497 q 819 189 857 286 q 701 37 781 92 q 499 -18 622 -18 m 281 1085 q 217 1115 240 1085 q 193 1189 193 1146 q 210 1266 193 1229 q 264 1326 226 1303 q 363 1350 301 1350 q 440 1335 408 1350 q 496 1301 472 1319 q 540 1267 519 1282 q 581 1251 560 1251 q 617 1260 604 1251 q 640 1283 631 1269 q 656 1311 649 1297 q 674 1334 663 1325 q 704 1343 685 1343 q 755 1322 736 1343 q 774 1250 774 1300 q 726 1129 774 1176 q 599 1082 679 1082 q 536 1095 563 1082 q 488 1126 510 1108 q 445 1156 465 1143 q 400 1169 425 1169 q 359 1157 372 1169 q 338 1127 346 1144 q 318 1097 331 1110 q 281 1085 306 1085 z "}}}
